<?xml version="1.0" standalone="no"?>
<!DOCTYPE svg PUBLIC "-//W3C//DTD SVG 1.1//EN" "http://www.w3.org/Graphics/SVG/1.1/DTD/svg11.dtd" >
<svg>
<metadata>
Created by FontForge 20090622 at Fri Sep 16 07:26:10 2016
 By deploy user
2011 Mitja Miklavcic published by FSI FontShop International GmbH
</metadata>
<defs>
<font id="TisaSansPro-Italic" horiz-adv-x="570" >
  <font-face 
    font-family="TisaSansPro-Italic"
    font-weight="400"
    font-style="italic"
    font-stretch="normal"
    units-per-em="1000"
    panose-1="2 11 5 4 2 1 1 1 1 2"
    ascent="729"
    descent="-271"
    x-height="482"
    cap-height="698"
    bbox="-391 -375 1426 1020"
    underline-thickness="70"
    underline-position="-70"
    slope="-6.79999"
    unicode-range="U+000D-U+FEFF"
  />
<missing-glyph horiz-adv-x="687" 
d="M90 0l90 723h494l-78 -723h-506zM351 238q31 5 49 29q-16 18 -16 38t16 39t39 35.5l46.5 35t39.5 46.5t16 62q0 104 -123 104q-77 0 -123 -42q-22 -29 -16 -68q57 49 119 49q69 0 69 -52q0 -27 -23 -51t-51 -41t-51 -47t-23 -67q0 -46 32 -70zM362 184q-21 0 -33.5 -12.5
t-12.5 -34.5q0 -21 11 -32t30 -11q20 0 33.5 13t13.5 34t-11.5 32t-30.5 11z" />
    <glyph glyph-name="f_b" unicode="fb" horiz-adv-x="807" 
d="M481 329l-30 -262q32 -13 79 -13q75 0 120 45q63 63 63 190q0 71 -23 104t-73 33q-80 0 -136 -97zM362 12l82 652q-28 18 -72 18q-54 0 -90.5 -31t-45.5 -112l-6 -57h110q6 -10 6 -31q0 -28 -9 -44h-115l-62 -558q-11 -7 -43 -7t-43 7l67 558h-69q0 45 16 75h62l6 54
q24 220 217 220q90 0 153 -51l-16 -141q-8 -71 -27 -156h4q49 94 161 94q150 0 150 -195q0 -69 -19 -136t-53 -109q-67 -82 -208 -82q-94 0 -156 32z" />
    <glyph glyph-name="f_f" unicode="ff" horiz-adv-x="575" 
d="M231 482h199l12 99q12 96 55 135.5t110 39.5q56 0 89 -24q10 -14 12.5 -38t-2.5 -44q-40 31 -88 31t-69.5 -23.5t-27.5 -76.5l-11 -99h122q6 -10 6 -31q0 -28 -9 -44h-127l-62 -558q-11 -7 -43 -7t-43 7l67 558h-198l-45 -403q-11 -7 -43 -7q-31 0 -42 7l49 403h-69
q0 45 16 75h62l10 82q12 97 52 135.5t106 38.5q52 0 80 -21q22 -34 10 -82q-33 28 -77 28t-64.5 -24t-26.5 -72z" />
    <glyph glyph-name="f_f_b" unicode="ffb" horiz-adv-x="1087" 
d="M642 12l82 652q-28 18 -72 18q-54 0 -90.5 -31t-45.5 -112l-6 -57h110q6 -10 6 -31q0 -28 -9 -44h-115l-62 -558q-11 -7 -43 -7t-43 7l67 558h-198l-45 -403q-11 -7 -43 -7q-31 0 -42 7l49 403h-69q0 45 16 75h62l10 82q12 97 52 135.5t106 38.5q52 0 80 -21
q22 -34 10 -82q-33 28 -77 28t-64.5 -24t-26.5 -72l-10 -85h199l6 54q24 220 217 220q90 0 153 -51l-16 -141q-8 -71 -27 -156h4q49 94 161 94q150 0 150 -195q0 -69 -19 -136t-53 -109q-67 -82 -208 -82q-94 0 -156 32zM761 329l-30 -262q32 -13 79 -13q75 0 120 45
q63 63 63 190q0 71 -23 104t-73 33q-80 0 -136 -97z" />
    <glyph glyph-name="f_f_h" unicode="ffh" horiz-adv-x="1120" 
d="M642 4l83 660q-28 18 -72 18q-55 0 -91.5 -30.5t-45.5 -112.5l-6 -57h110q6 -10 6 -31q0 -28 -9 -44h-115l-62 -558q-11 -7 -43 -7t-43 7l67 558h-198l-45 -403q-11 -7 -43 -7q-31 0 -42 7l49 403h-69q0 45 16 75h62l10 82q12 97 52 135.5t106 38.5q52 0 80 -21
q22 -34 10 -82q-33 28 -77 28t-64.5 -24t-26.5 -72l-10 -85h199l6 54q24 220 218 220q92 0 154 -52l-18 -148q-9 -84 -25 -152h4q21 42 62 70t103 28q135 0 135 -138q0 -30 -3 -54l-21 -196q-3 -34 5 -45t28 -11q22 0 45 13q3 -19 -2.5 -41.5t-15.5 -33.5q-24 -16 -61 -16
q-48 0 -67.5 23.5t-19.5 67.5q0 19 3 40l24 187q3 22 3 41q0 86 -83 86q-86 0 -140 -99l-37 -322q-11 -7 -43 -7q-31 0 -42 7z" />
    <glyph glyph-name="f_f_i" unicode="ffi" horiz-adv-x="811" 
d="M231 482h199l7 58q26 216 213 216q68 0 114 -32q23 -31 13 -82q-58 40 -123 40q-59 0 -94.5 -31t-43.5 -112l-6 -57h114q6 -10 6 -31q0 -28 -9 -44h-119l-62 -558q-11 -7 -43 -7t-43 7l67 558h-198l-45 -403q-11 -7 -43 -7q-31 0 -42 7l49 403h-69q0 45 16 75h62l10 82
q12 97 52 135.5t106 38.5q52 0 80 -21q22 -34 10 -82q-33 28 -77 28t-64.5 -24t-26.5 -72zM771 478l-41 -364q-4 -35 4.5 -45.5t30.5 -10.5q21 0 43 13q3 -19 -2.5 -41.5t-15.5 -33.5q-24 -16 -61 -16q-48 0 -67.5 23.5t-19.5 67.5q0 19 3 40l47 367q13 7 40 7q29 0 39 -7z
" />
    <glyph glyph-name="f_f_iogonek" unicode="ff&#x12f;" horiz-adv-x="811" 
d="M231 482h199l7 58q26 216 213 216q68 0 114 -32q23 -31 13 -82q-58 40 -123 40q-59 0 -94.5 -31t-43.5 -112l-6 -57h114q6 -10 6 -31q0 -28 -9 -44h-119l-62 -558q-11 -7 -43 -7t-43 7l67 558h-198l-45 -403q-11 -7 -43 -7q-31 0 -42 7l49 403h-69q0 45 16 75h62l10 82
q12 97 52 135.5t106 38.5q52 0 80 -21q22 -34 10 -82q-33 28 -77 28t-64.5 -24t-26.5 -72zM771 -152q18 -21 12 -58q-26 -12 -58 -12q-44 0 -72 24t-28 73q0 68 63 107v4q-46 19 -46 85q0 19 3 40l47 367q13 7 40 7q29 0 39 -7l-41 -364q-4 -35 4.5 -45.5t30.5 -10.5
q21 0 43 13q3 -19 -2 -40.5t-15 -32.5q-89 -44 -89 -105q0 -49 47 -49q10 0 22 4z" />
    <glyph glyph-name="f_f_j" unicode="ffj" horiz-adv-x="792" 
d="M230 482h199l7 58q26 216 213 216q68 0 114 -32q23 -31 13 -82q-58 40 -123 40q-59 0 -94.5 -31t-43.5 -112l-6 -57h114q6 -10 6 -31q0 -28 -9 -44h-119l-45 -403q-11 -7 -43 -7q-31 0 -42 7l49 403h-198l-62 -558q-11 -7 -43 -7t-43 7l67 558h-69q0 45 16 75h62l10 82
q12 97 52 135.5t106 38.5q52 0 80 -21q22 -34 10 -82q-33 28 -77 28t-64.5 -24t-26.5 -72zM776 478l-49 -429q-12 -105 -55.5 -170.5t-115.5 -119.5q-40 13 -47 61q55 41 88.5 91.5t43.5 130.5l56 436q13 7 40 7q29 0 39 -7z" />
    <glyph glyph-name="f_f_k" unicode="ffk" horiz-adv-x="1060" 
d="M642 4l83 660q-28 18 -72 18q-55 0 -91.5 -30.5t-45.5 -112.5l-6 -57h110q6 -10 6 -31q0 -28 -9 -44h-115l-62 -558q-11 -7 -43 -7t-43 7l67 558h-198l-45 -403q-11 -7 -43 -7q-31 0 -42 7l49 403h-69q0 45 16 75h62l10 82q12 97 52 135.5t106 38.5q52 0 80 -21
q22 -34 10 -82q-33 28 -77 28t-64.5 -24t-26.5 -72l-10 -85h199l6 54q24 220 218 220q92 0 154 -52l-47 -408h61l158 184q14 6 37 6q38 0 54 -12l-186 -214q33 -101 66 -153t81 -52q20 0 38 13q3 -18 -2.5 -41.5t-15.5 -34.5q-18 -12 -50 -12q-125 0 -189 247h-60l-26 -223
q-11 -7 -43 -7q-31 0 -42 7z" />
    <glyph glyph-name="f_f_kcommaaccent" unicode="ff&#x137;" horiz-adv-x="1060" 
d="M642 4l83 660q-28 18 -72 18q-55 0 -91.5 -30.5t-45.5 -112.5l-6 -57h110q6 -10 6 -31q0 -28 -9 -44h-115l-62 -558q-11 -7 -43 -7t-43 7l67 558h-198l-45 -403q-11 -7 -43 -7q-31 0 -42 7l49 403h-69q0 45 16 75h62l10 82q12 97 52 135.5t106 38.5q52 0 80 -21
q22 -34 10 -82q-33 28 -77 28t-64.5 -24t-26.5 -72l-10 -85h199l6 54q24 220 218 220q92 0 154 -52l-47 -408h61l158 184q14 6 37 6q38 0 54 -12l-186 -214q33 -101 66 -153t81 -52q20 0 38 13q3 -18 -2.5 -41.5t-15.5 -34.5q-18 -12 -50 -12q-125 0 -189 247h-60l-26 -223
q-11 -7 -43 -7q-31 0 -42 7zM880 -46q-16 -119 -69 -199q-38 4 -53 31q35 69 45 151q30 17 77 17z" />
    <glyph glyph-name="f_f_l" unicode="ffl" horiz-adv-x="825" 
d="M231 482h199l6 54q24 220 215 220q90 0 153 -51l-68 -591q-4 -34 5 -45t32 -11q29 0 54 16q3 -19 -2.5 -41.5t-15.5 -33.5q-28 -19 -70 -19q-91 0 -91 89q0 9 3 42l71 552q-28 19 -72 19q-53 0 -89 -31t-45 -112l-6 -57h110q6 -10 6 -31q0 -28 -9 -44h-115l-62 -558
q-11 -7 -43 -7t-43 7l67 558h-198l-45 -403q-11 -7 -43 -7q-31 0 -42 7l49 403h-69q0 45 16 75h62l10 82q12 97 52 135.5t106 38.5q52 0 80 -21q22 -34 10 -82q-33 28 -77 28t-64.5 -24t-26.5 -72z" />
    <glyph glyph-name="f_f_lcaron" unicode="ff&#x13e;" horiz-adv-x="831" 
d="M964 747q-7 -57 -28.5 -114.5t-46.5 -94.5q-36 4 -52 31q38 71 50 162q28 16 77 16zM231 482h199l6 54q24 220 215 220q90 0 153 -51l-68 -591q-4 -34 5 -45t32 -11q29 0 54 16q3 -19 -2.5 -41.5t-15.5 -33.5q-28 -19 -70 -19q-91 0 -91 89q0 9 3 42l71 552
q-28 19 -72 19q-53 0 -89 -31t-45 -112l-6 -57h110q6 -10 6 -31q0 -28 -9 -44h-115l-62 -558q-11 -7 -43 -7t-43 7l67 558h-198l-45 -403q-11 -7 -43 -7q-31 0 -42 7l49 403h-69q0 45 16 75h62l10 82q12 97 52 135.5t106 38.5q52 0 80 -21q22 -34 10 -82q-33 28 -77 28
t-64.5 -24t-26.5 -72z" />
    <glyph glyph-name="f_f_lcommaaccent" unicode="ff&#x13c;" horiz-adv-x="825" 
d="M231 482h199l6 54q24 220 215 220q90 0 153 -51l-68 -591q-4 -34 5 -45t32 -11q29 0 54 16q3 -19 -2.5 -41.5t-15.5 -33.5q-28 -19 -70 -19q-91 0 -91 89q0 9 3 42l71 552q-28 19 -72 19q-53 0 -89 -31t-45 -112l-6 -57h110q6 -10 6 -31q0 -28 -9 -44h-115l-62 -558
q-11 -7 -43 -7t-43 7l67 558h-198l-45 -403q-11 -7 -43 -7q-31 0 -42 7l49 403h-69q0 45 16 75h62l10 82q12 97 52 135.5t106 38.5q52 0 80 -21q22 -34 10 -82q-33 28 -77 28t-64.5 -24t-26.5 -72zM769 -46q-16 -119 -69 -199q-38 4 -53 31q35 69 45 151q30 17 77 17z" />
    <glyph glyph-name="f_f_ldot" unicode="ff&#x140;" horiz-adv-x="918" 
d="M892 340q22 0 35.5 -13t13.5 -38t-15.5 -40t-39.5 -15q-48 0 -48 51q0 26 14 40.5t40 14.5zM231 482h199l6 54q24 220 215 220q90 0 153 -51l-68 -591q-4 -34 5 -45t32 -11q29 0 54 16q3 -19 -2.5 -41.5t-15.5 -33.5q-28 -19 -70 -19q-91 0 -91 89q0 9 3 42l71 552
q-28 19 -72 19q-53 0 -89 -31t-45 -112l-6 -57h110q6 -10 6 -31q0 -28 -9 -44h-115l-62 -558q-11 -7 -43 -7t-43 7l67 558h-198l-45 -403q-11 -7 -43 -7q-31 0 -42 7l49 403h-69q0 45 16 75h62l10 82q12 97 52 135.5t106 38.5q52 0 80 -21q22 -34 10 -82q-33 28 -77 28
t-64.5 -24t-26.5 -72z" />
    <glyph glyph-name="f_f_t" unicode="fft" horiz-adv-x="893" 
d="M231 482h199l12 100q12 97 52 135.5t106 38.5q52 0 80 -21q22 -34 10 -82q-33 28 -77 28t-64.5 -24t-26.5 -72l-12 -103h188l15 114q31 21 80 21l-16 -135h130q6 -10 6 -31q0 -28 -9 -44h-136l-30 -258q-6 -46 6.5 -68t53.5 -22q49 0 89 34q7 -48 -19 -83
q-42 -30 -101 -30q-62 0 -89.5 28.5t-27.5 84.5q0 22 4 52l34 262h-186l-62 -558q-11 -7 -43 -7t-43 7l67 558h-198l-45 -403q-11 -7 -43 -7q-31 0 -42 7l49 403h-69q0 45 16 75h62l10 82q12 97 52 135.5t106 38.5q52 0 80 -21q22 -34 10 -82q-33 28 -77 28t-64.5 -24
t-26.5 -72z" />
    <glyph glyph-name="f_f_tbar" unicode="ff&#x167;" horiz-adv-x="896" 
d="M230 482h199l12 100q12 97 52 135.5t106 38.5q52 0 80 -21q22 -34 10 -82q-33 28 -77 28t-64.5 -24t-26.5 -72l-12 -103h190l15 114q32 21 80 21l-16 -135h130q6 -10 6 -31q0 -28 -9 -44h-136l-14 -123h116q5 -7 5 -24q0 -27 -8 -39h-121l-8 -72q-6 -46 6.5 -68t53.5 -22
q49 0 89 34q7 -48 -19 -83q-42 -30 -101 -30q-62 0 -89.5 28.5t-27.5 84.5q0 22 4 52l10 76h-59q0 39 14 63h53l16 123h-188l-62 -558q-11 -7 -43 -7t-43 7l67 558h-198l-45 -403q-11 -7 -43 -7q-31 0 -42 7l49 403h-69q0 45 16 75h62l10 82q12 97 52 135.5t106 38.5
q52 0 80 -21q22 -34 10 -82q-33 28 -77 28t-64.5 -24t-26.5 -72z" />
    <glyph glyph-name="f_f_tcaron" unicode="ff&#x165;" horiz-adv-x="895" 
d="M230 482h199l12 100q12 97 52 135.5t106 38.5q52 0 80 -21q22 -34 10 -82q-33 28 -77 28t-64.5 -24t-26.5 -72l-12 -103h188l15 114q32 21 80 21l-16 -135h130q6 -10 6 -31q0 -28 -9 -44h-136l-30 -258q-6 -46 6.5 -68t53.5 -22q49 0 89 34q7 -48 -19 -83
q-42 -30 -101 -30q-62 0 -89.5 28.5t-27.5 84.5q0 22 4 52l34 262h-186l-62 -558q-11 -7 -43 -7t-43 7l67 558h-198l-45 -403q-11 -7 -43 -7q-31 0 -42 7l49 403h-69q0 45 16 75h62l10 82q12 97 52 135.5t106 38.5q52 0 80 -21q22 -34 10 -82q-33 28 -77 28t-64.5 -24
t-26.5 -72zM1003 725q-7 -53 -25.5 -106t-41.5 -87q-37 4 -53 31q33 65 43 146q28 16 77 16z" />
    <glyph glyph-name="f_f_tcommaaccent" unicode="ff&#x163;" horiz-adv-x="893" 
d="M231 482h199l12 100q12 97 52 135.5t106 38.5q52 0 80 -21q22 -34 10 -82q-33 28 -77 28t-64.5 -24t-26.5 -72l-12 -103h188l15 114q31 21 80 21l-16 -135h130q6 -10 6 -31q0 -28 -9 -44h-136l-30 -258q-6 -46 6.5 -68t53.5 -22q49 0 89 34q7 -48 -19 -83
q-36 -25 -80 -29l-10 -35q49 -21 49 -72q0 -45 -33.5 -74t-87.5 -38q-32 17 -39 46q84 12 84 61q0 37 -48 49l27 65q-80 16 -80 110q0 22 4 52l34 262h-186l-62 -558q-11 -7 -43 -7t-43 7l67 558h-198l-45 -403q-11 -7 -43 -7q-31 0 -42 7l49 403h-69q0 45 16 75h62l10 82
q12 97 52 135.5t106 38.5q52 0 80 -21q22 -34 10 -82q-33 28 -77 28t-64.5 -24t-26.5 -72z" />
    <glyph glyph-name="f_f_uni021B" unicode="ff&#x21b;" horiz-adv-x="893" 
d="M231 482h199l12 100q12 97 52 135.5t106 38.5q52 0 80 -21q22 -34 10 -82q-33 28 -77 28t-64.5 -24t-26.5 -72l-12 -103h188l15 114q31 21 80 21l-16 -135h130q6 -10 6 -31q0 -28 -9 -44h-136l-30 -258q-6 -46 6.5 -68t53.5 -22q49 0 89 34q7 -48 -19 -83
q-42 -30 -101 -30q-62 0 -89.5 28.5t-27.5 84.5q0 22 4 52l34 262h-186l-62 -558q-11 -7 -43 -7t-43 7l67 558h-198l-45 -403q-11 -7 -43 -7q-31 0 -42 7l49 403h-69q0 45 16 75h62l10 82q12 97 52 135.5t106 38.5q52 0 80 -21q22 -34 10 -82q-33 28 -77 28t-64.5 -24
t-26.5 -72zM799 -46q-16 -119 -69 -199q-38 4 -53 31q35 69 45 151q30 17 77 17z" />
    <glyph glyph-name="f_h" unicode="fh" horiz-adv-x="840" 
d="M362 4l83 660q-28 18 -72 18q-55 0 -91.5 -30.5t-45.5 -112.5l-6 -57h110q6 -10 6 -31q0 -28 -9 -44h-115l-62 -558q-11 -7 -43 -7t-43 7l67 558h-69q0 45 16 75h62l6 54q24 220 218 220q92 0 154 -52l-18 -148q-9 -84 -25 -152h4q21 42 62 70t103 28q135 0 135 -138
q0 -30 -3 -54l-21 -196q-3 -34 5 -45t28 -11q22 0 45 13q3 -19 -2.5 -41.5t-15.5 -33.5q-24 -16 -61 -16q-48 0 -67.5 23.5t-19.5 67.5q0 19 3 40l24 187q3 22 3 41q0 86 -83 86q-86 0 -140 -99l-37 -322q-11 -7 -43 -7q-31 0 -42 7z" />
    <glyph glyph-name="f_i" unicode="fi" horiz-adv-x="531" 
d="M88 482h62l7 58q26 216 213 216q68 0 114 -32q23 -31 13 -82q-58 40 -123 40q-58 0 -94 -31t-44 -112l-6 -57h114q6 -10 6 -31q0 -28 -9 -44h-119l-62 -558q-11 -7 -43 -7t-43 7l67 558h-69q0 45 16 75zM491 478l-41 -364q-4 -35 4.5 -45.5t30.5 -10.5q21 0 43 13
q3 -19 -2.5 -41.5t-15.5 -33.5q-24 -16 -61 -16q-48 0 -67.5 23.5t-19.5 67.5q0 19 3 40l47 367q13 7 40 7q29 0 39 -7z" />
    <glyph glyph-name="f_iacute" unicode="f&#xed;" horiz-adv-x="532" 
d="M88 482h62l11 90q12 97 52 135.5t106 38.5q52 0 80 -21q22 -34 10 -82q-33 28 -77 28t-64.5 -24t-26.5 -72l-11 -93h114q6 -10 6 -31q0 -28 -9 -44h-119l-62 -558q-11 -7 -43 -7t-43 7l67 558h-69q0 45 16 75zM492 478l-41 -364q-4 -35 4.5 -45.5t30.5 -10.5q21 0 43 13
q3 -19 -2.5 -41.5t-15.5 -33.5q-24 -16 -61 -16q-48 0 -67.5 23.5t-19.5 67.5q0 19 3 40l47 367q13 7 40 7q29 0 39 -7zM604 710l-153 -156q-32 10 -42 42l122 144q51 0 73 -30z" />
    <glyph glyph-name="f_iogonek" unicode="f&#x12f;" horiz-adv-x="531" 
d="M88 482h62l7 58q26 216 213 216q68 0 114 -32q23 -31 13 -82q-58 40 -123 40q-58 0 -94 -31t-44 -112l-6 -57h114q6 -10 6 -31q0 -28 -9 -44h-119l-62 -558q-11 -7 -43 -7t-43 7l67 558h-69q0 45 16 75zM491 -152q18 -21 12 -58q-26 -12 -58 -12q-44 0 -72 24t-28 73
q0 68 63 107v4q-46 19 -46 85q0 19 3 40l47 367q13 7 40 7q29 0 39 -7l-41 -364q-4 -35 4.5 -45.5t30.5 -10.5q21 0 43 13q3 -19 -2 -40.5t-15 -32.5q-89 -44 -89 -105q0 -49 47 -49q10 0 22 4z" />
    <glyph glyph-name="f_j" unicode="fj" horiz-adv-x="514" 
d="M89 482h62l7 58q26 216 213 216q68 0 114 -32q23 -31 13 -82q-58 40 -123 40q-59 0 -94.5 -31t-43.5 -112l-6 -57h114q6 -10 6 -31q0 -28 -9 -44h-119l-45 -403q-11 -7 -43 -7q-31 0 -42 7l49 403h-69q0 45 16 75zM498 478l-49 -429q-12 -105 -55.5 -170.5t-115.5 -119.5
q-40 13 -47 61q55 41 88.5 91.5t43.5 130.5l56 436q13 7 40 7q29 0 39 -7z" />
    <glyph glyph-name="f_k" unicode="fk" horiz-adv-x="780" 
d="M362 4l83 660q-28 18 -72 18q-55 0 -91.5 -30.5t-45.5 -112.5l-6 -57h110q6 -10 6 -31q0 -28 -9 -44h-115l-62 -558q-11 -7 -43 -7t-43 7l67 558h-69q0 45 16 75h62l6 54q24 220 218 220q92 0 154 -52l-47 -408h61l158 184q14 6 37 6q38 0 54 -12l-186 -214
q33 -101 66 -153t81 -52q20 0 38 13q3 -18 -2.5 -41.5t-15.5 -34.5q-18 -12 -50 -12q-125 0 -189 247h-60l-26 -223q-11 -7 -43 -7q-31 0 -42 7z" />
    <glyph glyph-name="f_kcommaaccent" unicode="f&#x137;" horiz-adv-x="780" 
d="M362 4l83 660q-28 18 -72 18q-55 0 -91.5 -30.5t-45.5 -112.5l-6 -57h110q6 -10 6 -31q0 -28 -9 -44h-115l-62 -558q-11 -7 -43 -7t-43 7l67 558h-69q0 45 16 75h62l6 54q24 220 218 220q92 0 154 -52l-47 -408h61l158 184q14 6 37 6q38 0 54 -12l-186 -214
q33 -101 66 -153t81 -52q20 0 38 13q3 -18 -2.5 -41.5t-15.5 -34.5q-18 -12 -50 -12q-125 0 -189 247h-60l-26 -223q-11 -7 -43 -7q-31 0 -42 7zM600 -46q-16 -119 -69 -199q-38 4 -53 31q35 69 45 151q30 17 77 17z" />
    <glyph glyph-name="f_l" unicode="fl" horiz-adv-x="545" 
d="M88 482h62l6 54q24 220 215 220q90 0 153 -51l-68 -591q-4 -34 5 -45t32 -11q29 0 54 16q3 -19 -2.5 -41.5t-15.5 -33.5q-28 -19 -70 -19q-91 0 -91 89q0 9 3 42l71 552q-28 19 -72 19q-53 0 -89 -31t-45 -112l-6 -57h110q6 -10 6 -31q0 -28 -9 -44h-115l-62 -558
q-11 -7 -43 -7t-43 7l67 558h-69q0 45 16 75z" />
    <glyph glyph-name="f_lcaron" unicode="f&#x13e;" horiz-adv-x="551" 
d="M684 747q-7 -57 -28.5 -114.5t-46.5 -94.5q-36 4 -52 31q38 71 50 162q28 16 77 16zM88 482h62l6 54q24 220 215 220q90 0 153 -51l-68 -591q-4 -34 5 -45t32 -11q29 0 54 16q3 -19 -2.5 -41.5t-15.5 -33.5q-28 -19 -70 -19q-91 0 -91 89q0 9 3 42l71 552q-28 19 -72 19
q-53 0 -89 -31t-45 -112l-6 -57h110q6 -10 6 -31q0 -28 -9 -44h-115l-62 -558q-11 -7 -43 -7t-43 7l67 558h-69q0 45 16 75z" />
    <glyph glyph-name="f_lcommaaccent" unicode="f&#x13c;" horiz-adv-x="545" 
d="M88 482h62l6 54q24 220 215 220q90 0 153 -51l-68 -591q-4 -34 5 -45t32 -11q29 0 54 16q3 -19 -2.5 -41.5t-15.5 -33.5q-28 -19 -70 -19q-91 0 -91 89q0 9 3 42l71 552q-28 19 -72 19q-53 0 -89 -31t-45 -112l-6 -57h110q6 -10 6 -31q0 -28 -9 -44h-115l-62 -558
q-11 -7 -43 -7t-43 7l67 558h-69q0 45 16 75zM489 -46q-16 -119 -69 -199q-38 4 -53 31q35 69 45 151q30 17 77 17z" />
    <glyph glyph-name="f_ldot" unicode="f&#x140;" horiz-adv-x="638" 
d="M88 482h62l6 54q24 220 215 220q90 0 153 -51l-68 -591q-4 -34 5 -45t32 -11q29 0 54 16q3 -19 -2.5 -41.5t-15.5 -33.5q-28 -19 -70 -19q-91 0 -91 89q0 9 3 42l71 552q-28 19 -72 19q-53 0 -89 -31t-45 -112l-6 -57h110q6 -10 6 -31q0 -28 -9 -44h-115l-62 -558
q-11 -7 -43 -7t-43 7l67 558h-69q0 45 16 75zM612 340q22 0 35.5 -13t13.5 -38t-15.5 -40t-39.5 -15q-48 0 -48 51q0 26 14 40.5t40 14.5z" />
    <glyph glyph-name="f_t" unicode="ft" horiz-adv-x="613" 
d="M88 482h62l11 93q11 97 51.5 135.5t106.5 38.5q52 0 80 -21q22 -34 10 -82q-33 28 -77 28t-64.5 -24t-26.5 -72l-11 -96h188l15 114q32 21 80 21l-16 -135h130q6 -10 6 -31q0 -28 -9 -44h-136l-30 -258q-6 -46 6.5 -68t53.5 -22q49 0 89 34q7 -48 -19 -83
q-42 -30 -101 -30q-62 0 -89.5 28.5t-27.5 84.5q0 22 4 52l34 262h-186l-62 -558q-11 -7 -43 -7t-43 7l67 558h-69q0 45 16 75z" />
    <glyph glyph-name="f_tbar" unicode="f&#x167;" horiz-adv-x="617" 
d="M88 482h62l11 93q11 97 51.5 135.5t106.5 38.5q52 0 80 -21q22 -34 10 -82q-33 28 -77 28t-64.5 -24t-26.5 -72l-11 -96h190l15 114q31 21 80 21l-16 -135h130q6 -10 6 -31q0 -28 -9 -44h-136l-14 -123h116q5 -7 5 -24q0 -27 -8 -39h-121l-8 -72q-6 -46 6.5 -68t53.5 -22
q49 0 89 34q7 -48 -19 -83q-42 -30 -101 -30q-62 0 -89.5 28.5t-27.5 84.5q0 22 4 52l10 76h-59q0 39 14 63h53l16 123h-188l-62 -558q-11 -7 -43 -7t-43 7l67 558h-69q0 45 16 75z" />
    <glyph glyph-name="f_tcaron" unicode="f&#x165;" horiz-adv-x="616" 
d="M88 482h62l11 93q11 97 51.5 135.5t106.5 38.5q52 0 80 -21q22 -34 10 -82q-33 28 -77 28t-64.5 -24t-26.5 -72l-11 -96h188l15 114q32 21 80 21l-16 -135h130q6 -10 6 -31q0 -28 -9 -44h-136l-30 -258q-6 -46 6.5 -68t53.5 -22q49 0 89 34q7 -48 -19 -83
q-42 -30 -101 -30q-62 0 -89.5 28.5t-27.5 84.5q0 22 4 52l34 262h-186l-62 -558q-11 -7 -43 -7t-43 7l67 558h-69q0 45 16 75zM724 725q-7 -53 -25.5 -106t-41.5 -87q-37 4 -53 31q33 65 43 146q28 16 77 16z" />
    <glyph glyph-name="f_tcommaaccent" unicode="f&#x163;" horiz-adv-x="613" 
d="M88 482h62l11 93q11 97 51.5 135.5t106.5 38.5q52 0 80 -21q22 -34 10 -82q-33 28 -77 28t-64.5 -24t-26.5 -72l-11 -96h188l15 114q32 21 80 21l-16 -135h130q6 -10 6 -31q0 -28 -9 -44h-136l-30 -258q-6 -46 6.5 -68t53.5 -22q49 0 89 34q7 -48 -19 -83
q-36 -25 -80 -29l-10 -35q49 -21 49 -72q0 -45 -33.5 -74t-87.5 -38q-32 17 -39 46q84 12 84 61q0 37 -48 49l27 65q-80 16 -80 110q0 22 4 52l34 262h-186l-62 -558q-11 -7 -43 -7t-43 7l67 558h-69q0 45 16 75z" />
    <glyph glyph-name="f_uni021B" unicode="f&#x21b;" horiz-adv-x="613" 
d="M88 482h62l11 93q11 97 51.5 135.5t106.5 38.5q52 0 80 -21q22 -34 10 -82q-33 28 -77 28t-64.5 -24t-26.5 -72l-11 -96h188l15 114q32 21 80 21l-16 -135h130q6 -10 6 -31q0 -28 -9 -44h-136l-30 -258q-6 -46 6.5 -68t53.5 -22q49 0 89 34q7 -48 -19 -83
q-42 -30 -101 -30q-62 0 -89.5 28.5t-27.5 84.5q0 22 4 52l34 262h-186l-62 -558q-11 -7 -43 -7t-43 7l67 558h-69q0 45 16 75zM519 -46q-16 -119 -69 -199q-38 4 -53 31q35 69 45 151q30 17 77 17z" />
    <glyph glyph-name=".notdef" horiz-adv-x="687" 
d="M90 0l90 723h494l-78 -723h-506zM351 238q31 5 49 29q-16 18 -16 38t16 39t39 35.5l46.5 35t39.5 46.5t16 62q0 104 -123 104q-77 0 -123 -42q-22 -29 -16 -68q57 49 119 49q69 0 69 -52q0 -27 -23 -51t-51 -41t-51 -47t-23 -67q0 -46 32 -70zM362 184q-21 0 -33.5 -12.5
t-12.5 -34.5q0 -21 11 -32t30 -11q20 0 33.5 13t13.5 34t-11.5 32t-30.5 11z" />
    <glyph glyph-name=".null" horiz-adv-x="0" 
 />
    <glyph glyph-name=".null" horiz-adv-x="0" 
 />
    <glyph glyph-name="nonmarkingreturn" horiz-adv-x="333" 
 />
    <glyph glyph-name="CR" unicode="&#xd;" horiz-adv-x="170" 
 />
    <glyph glyph-name="space" unicode=" " horiz-adv-x="170" 
 />
    <glyph glyph-name="exclam" unicode="!" horiz-adv-x="271" 
d="M258 693l-63 -487q-11 -6 -36 -6t-36 6l45 482q18 11 50 11q26 0 40 -6zM144 100q24 0 38.5 -14t14.5 -41t-17 -43.5t-43 -16.5q-23 0 -37.5 14.5t-14.5 40.5q0 28 16 44t43 16z" />
    <glyph glyph-name="quotedbl" unicode="&#x22;" horiz-adv-x="347" 
d="M165 496q-41 0 -63 14q25 106 39 225q46 0 75 -15q-13 -111 -51 -224zM330 496q-41 0 -63 14q25 106 39 225q46 0 75 -15q-13 -111 -51 -224z" />
    <glyph glyph-name="numbersign" unicode="#" horiz-adv-x="513" 
d="M108 418h85l31 106q23 12 68 12l-32 -118h140l30 106q23 12 68 12l-31 -118h76q4 -6 4 -24q0 -22 -9 -35h-86l-44 -168h78q4 -6 4 -24q0 -21 -9 -35h-89l-33 -127q-11 -7 -39 -7q-30 0 -37 7l36 127h-136l-35 -127q-11 -7 -39 -7q-30 0 -37 7l37 127h-83q0 31 18 59h83
l49 168h-86q0 31 18 59zM244 359l-46 -168h138l47 168h-139z" />
    <glyph glyph-name="dollar" unicode="$" horiz-adv-x="437" 
d="M48 100q65 -45 162 -45q56 0 89 21.5t33 64.5q0 35 -24 57t-58 35t-67.5 28.5t-57.5 48.5t-24 84q0 68 40 108.5t113 47.5l9 70q29 10 69 10l-10 -82q48 -5 84 -29q10 -13 14.5 -38.5t-0.5 -45.5q-58 44 -133 44q-46 0 -75 -18.5t-29 -58.5q0 -27 17.5 -46.5t43.5 -30
t56.5 -24.5t56.5 -29.5t43.5 -47t17.5 -75.5q0 -74 -45.5 -117t-127.5 -50l-8 -73q-11 -6 -37 -6t-37 6l9 73q-67 6 -114 31q-11 17 -13.5 42t3.5 45z" />
    <glyph glyph-name="percent" unicode="%" horiz-adv-x="830" 
d="M696 537l-432 -575q-19 4 -34 16t-21 29l422 552q42 0 65 -22zM234 551q63 0 98 -37.5t35 -105.5q0 -76 -42 -128t-121 -52q-64 0 -98 36.5t-34 104.5q0 78 42 130t120 52zM229 491q-42 0 -65.5 -35t-23.5 -82q0 -40 18 -62t50 -22q43 0 67 34t24 82q0 41 -18 63t-52 22z
M689 303q63 0 98 -37.5t35 -105.5q0 -76 -42 -128t-121 -52q-64 0 -98 36.5t-34 104.5q0 78 42 130t120 52zM684 243q-42 0 -65.5 -35t-23.5 -82q0 -40 18 -62t50 -22q43 0 67 34t24 82q0 41 -18 63t-52 22z" />
    <glyph glyph-name="ampersand" unicode="&#x26;" horiz-adv-x="664" 
d="M658 407q-21 -154 -87 -247q52 -72 90 -152q-22 -15 -58 -15q-26 0 -34 5q-29 55 -56 94q-93 -115 -240 -115q-93 0 -156 44t-63 138q0 77 45 135t125 78v5q-76 47 -76 138q0 79 53.5 128.5t135.5 49.5q68 0 115 -37t47 -111q0 -63 -35 -111.5t-97 -67.5v-5
q89 -64 152 -138q41 66 54 169q29 15 85 15zM281 52q107 0 188 103q-82 106 -189 174q-139 -44 -139 -157q0 -63 39 -91.5t101 -28.5zM309 405q113 38 113 131q0 46 -25 67t-64 21q-46 0 -76 -28t-30 -78q0 -40 19.5 -64t62.5 -49z" />
    <glyph glyph-name="quotesingle" unicode="'" horiz-adv-x="182" 
d="M165 496q-41 0 -63 14q25 106 39 225q46 0 75 -15q-13 -111 -51 -224z" />
    <glyph glyph-name="parenleft" unicode="(" horiz-adv-x="283" 
d="M190 -220q-101 191 -101 418q0 321 208 582q37 -10 52 -44q-179 -240 -179 -533q0 -202 91 -378q-24 -37 -71 -45z" />
    <glyph glyph-name="parenright" unicode=")" horiz-adv-x="283" 
d="M-16 -176q97 126 145 257.5t48 290.5q0 199 -77 363q19 35 63 47q95 -189 95 -408q0 -168 -52.5 -310t-161.5 -286q-42 9 -60 46z" />
    <glyph glyph-name="asterisk" unicode="*" horiz-adv-x="380" 
d="M238 594l3 2q-7 25 -5 43l9 102q20 8 59 8l-16 -109q-3 -23 -15 -45l3 -2q15 19 34 32l87 55q22 -22 33 -53l-98 -52q-17 -9 -44 -12v-4q20 -3 38 -14l85 -50q-5 -35 -34 -55l-83 59q-16 14 -24 29l-4 -2q5 -18 5 -42l-7 -107q-10 -5 -33 -5q-21 0 -31 5l19 110
q2 16 13 37l-4 3q-10 -16 -29 -29l-91 -59q-27 22 -27 61l96 49q16 7 40 9v4q-19 4 -36 14l-80 48q7 34 27 58l83 -58q17 -13 27 -30z" />
    <glyph glyph-name="plus" unicode="+" 
d="M84 310h189v190q30 13 82 13v-203h195q6 -12 6 -39t-6 -39h-195v-197q-12 -7 -41 -7t-41 7v197h-202q0 50 13 78z" />
    <glyph glyph-name="comma" unicode="," horiz-adv-x="213" 
d="M82 74q33 15 87 15q-10 -69 -36 -140.5t-57 -113.5q-44 6 -61 35q53 90 67 204z" />
    <glyph glyph-name="hyphen" unicode="-" horiz-adv-x="312" 
d="M82 312h221q6 -10 6 -31q0 -31 -10 -47h-234q0 46 17 78z" />
    <glyph glyph-name="period" unicode="." horiz-adv-x="221" 
d="M120 102q24 0 39 -14.5t15 -41.5q0 -28 -17 -44.5t-44 -16.5q-24 0 -38.5 14.5t-14.5 41.5q0 28 16 44.5t44 16.5z" />
    <glyph glyph-name="slash" unicode="/" horiz-adv-x="388" 
d="M459 723l-401 -901q-21 0 -41 9.5t-28 23.5l404 887q41 0 66 -19z" />
    <glyph glyph-name="zero" unicode="0" horiz-adv-x="574" 
d="M341 551q102 0 158.5 -64t56.5 -185q0 -60 -15 -114.5t-44.5 -102.5t-82 -76.5t-121.5 -28.5q-103 0 -159 64t-56 186q0 136 68 228.5t195 92.5zM335 476q-59 0 -99 -37.5t-56 -90t-16 -114.5q0 -86 34 -131t99 -45q61 0 102 40.5t56 93t15 110.5q0 83 -35 128.5
t-100 45.5z" />
    <glyph glyph-name="one" unicode="1" horiz-adv-x="356" 
d="M166 4l56 452l-139 -25q5 45 24 76q73 29 207 43l-61 -546q-11 -7 -43 -7q-33 0 -44 7z" />
    <glyph glyph-name="two" unicode="2" horiz-adv-x="503" 
d="M191 79h286q0 -45 -13 -79h-396q-14 31 -14 78q22 14 78 47t92.5 57.5t79.5 59t65 71t22 74.5q0 86 -112 86q-84 0 -164 -56q-2 18 5 43.5t18 39.5q67 51 167 51q84 0 130.5 -37t46.5 -109q0 -179 -291 -320v-6z" />
    <glyph glyph-name="three" unicode="3" horiz-adv-x="503" 
d="M322 227q140 -23 140 -148q0 -98 -76.5 -150t-198.5 -52q-89 0 -142 21q-22 33 -17 86q67 -27 156 -27q79 0 133 30t54 93q0 55 -50.5 80t-169.5 25q-4 15 -1 38.5t11 35.5q38 0 75 7t72.5 21t57.5 41t22 63q0 84 -119 84q-79 0 -151 -37q-2 16 4 39.5t18 38.5
q60 35 156 35q83 0 131 -35.5t48 -107.5q0 -68 -42.5 -114.5t-110.5 -62.5v-4z" />
    <glyph glyph-name="four" unicode="4" horiz-adv-x="545" 
d="M504 520l-42 -370h77q5 -7 5 -33q0 -25 -8 -43h-82l-19 -167q-14 -6 -45 -6t-43 6l22 167h-314q-12 31 -12 69q160 207 367 399q59 -2 94 -22zM377 149l30 218q7 54 16 89h-5q-151 -145 -275 -309v-5q48 7 102 7h132z" />
    <glyph glyph-name="five" unicode="5" horiz-adv-x="503" 
d="M172 531h347q0 -45 -12 -78h-277l-36 -182q36 11 91 11q189 0 189 -171q0 -111 -78 -172.5t-209 -61.5q-83 0 -130 19q-23 35 -17 87q53 -25 147 -25q85 0 141.5 34.5t56.5 109.5q0 56 -35.5 80t-113.5 24q-69 0 -135 -20z" />
    <glyph glyph-name="six" unicode="6" horiz-adv-x="540" 
d="M179 317h5q50 78 162 78q89 0 135.5 -50t46.5 -136q0 -100 -61.5 -164.5t-173.5 -64.5q-208 0 -208 244q0 60 12.5 119.5t39 114t64.5 96t93 66.5t120 25t107 -23q10 -13 15 -39t1 -46q-47 32 -118 32q-94 0 -156.5 -64.5t-83.5 -187.5zM318 319q-85 0 -144 -73
q-4 -20 -4 -42q0 -70 33.5 -108.5t95.5 -38.5q65 0 103 40t38 102q0 55 -31.5 87.5t-90.5 32.5z" />
    <glyph glyph-name="seven" unicode="7" horiz-adv-x="469" 
d="M405 451h-332q2 46 18 80h397q13 -30 13 -77q-99 -121 -186.5 -271t-132.5 -275q-20 -8 -54 -8q-33 0 -47 8q50 130 138.5 277.5t185.5 261.5v4z" />
    <glyph glyph-name="eight" unicode="8" horiz-adv-x="532" 
d="M392 334v-5q111 -48 111 -154q0 -88 -65 -141.5t-168 -53.5q-85 0 -141.5 39t-56.5 123q0 70 42 118t115 71v5q-93 45 -93 136q0 79 58 126t147 47q77 0 127 -36.5t50 -108.5q0 -58 -34 -102t-92 -64zM295 292q-136 -41 -136 -139q0 -49 31.5 -74t84.5 -25q60 0 100 31
t40 85q0 46 -29 72.5t-91 49.5zM324 371q115 37 115 119q0 42 -27.5 63t-74.5 21q-52 0 -86 -25.5t-34 -72.5q0 -42 25 -63t82 -42z" />
    <glyph glyph-name="nine" unicode="9" horiz-adv-x="530" 
d="M41 -11q54 -33 135 -33q96 0 158.5 66t82.5 193h-5q-53 -78 -155 -78q-84 0 -129 50t-45 136q0 100 60 164t165 64q101 0 152 -62t51 -179q0 -60 -11 -118.5t-36.5 -116t-63 -101t-95.5 -70.5t-129 -27t-118 21q-12 14 -16.5 41t-0.5 50zM425 283q3 13 3 42q0 74 -32 113
t-91 39q-62 0 -99.5 -40.5t-37.5 -104.5q0 -57 30 -88t88 -31q78 0 139 70z" />
    <glyph glyph-name="colon" unicode=":" horiz-adv-x="233" 
d="M126 119q24 0 39 -14.5t15 -41.5q0 -28 -17 -44.5t-44 -16.5q-24 0 -38.5 14.5t-14.5 41.5q0 28 16 44.5t44 16.5zM166 481q24 0 38.5 -14t14.5 -41t-16.5 -43t-42.5 -16q-24 0 -38 14.5t-14 40.5q0 28 15.5 43.5t42.5 15.5z" />
    <glyph glyph-name="semicolon" unicode=";" horiz-adv-x="229" 
d="M89 74q33 15 87 15q-10 -69 -36 -140.5t-57 -113.5q-44 6 -61 35q53 90 67 204zM172 481q24 0 38.5 -14t14.5 -41t-16.5 -43t-42.5 -16q-24 0 -38 14.5t-14 40.5q0 28 15.5 43.5t42.5 15.5z" />
    <glyph glyph-name="less" unicode="&#x3c;" 
d="M136 309l309 213q38 -15 64 -49l-296 -199v-4l290 -197q-4 -19 -17.5 -38t-30.5 -26l-329 229q0 47 10 71z" />
    <glyph glyph-name="equal" unicode="=" 
d="M98 408h437q6 -12 6 -38t-6 -38h-450q0 50 13 76zM98 209h437q6 -12 6 -38t-6 -38h-450q0 50 13 76z" />
    <glyph glyph-name="greater" unicode="&#x3e;" 
d="M521 242l-331 -233q-40 20 -47 65l291 195v4l-297 203q29 34 66 48l307 -211q11 -30 11 -71z" />
    <glyph glyph-name="question" unicode="?" horiz-adv-x="374" 
d="M175 184q-42 34 -42 94q0 39 21 73t51.5 57.5l61 46t51.5 50t21 57.5q0 77 -96 77q-90 0 -167 -65q-2 17 4.5 45t17.5 44q67 55 171 55q161 0 161 -144q0 -39 -16 -72.5t-40 -56t-52 -45t-52 -40t-40 -40t-16 -46.5q0 -31 23 -54q-21 -29 -62 -36zM187 100q24 0 38.5 -14
t14.5 -41t-17 -43.5t-43 -16.5q-23 0 -37.5 14.5t-14.5 40.5q0 28 16 44t43 16z" />
    <glyph glyph-name="at" unicode="@" horiz-adv-x="938" 
d="M567 146l48 245q-20 16 -68 16q-72 0 -117 -50q-26 -29 -41 -77t-15 -97q0 -105 78 -105q34 0 65 17.5t50 50.5zM691 431l-48 -278q-8 -44 4.5 -62.5t43.5 -18.5q78 0 133 85.5t55 204.5q0 144 -89 218.5t-224 74.5q-126 0 -226 -64.5t-154 -173t-54 -239.5
q0 -164 86 -255.5t241 -91.5q138 0 247 66q27 -18 30 -54q-128 -78 -286 -78q-180 0 -283 109t-103 297q0 109 36 208t100 174.5t160.5 120t210.5 44.5q168 0 270.5 -93t102.5 -265q0 -161 -83.5 -258.5t-187.5 -97.5q-90 0 -99 75h-4q-23 -37 -63 -56t-83 -19
q-61 0 -95.5 41.5t-34.5 127.5q0 133 73 219q71 82 185 82q83 0 139 -43z" />
    <glyph glyph-name="A" unicode="A" horiz-adv-x="611" 
d="M511 5l-45 196h-269l-88 -196q-12 -8 -46 -8t-43 8l308 692q22 6 55 6q32 0 52 -6l163 -692q-11 -8 -43 -8q-33 0 -44 8zM228 276h223l-45 194q-21 88 -28 176h-5q-26 -97 -61 -178z" />
    <glyph glyph-name="B" unicode="B" horiz-adv-x="611" 
d="M468 367v-5q123 -32 123 -162q0 -105 -78.5 -155t-204.5 -50q-131 0 -218 11l79 680q83 18 168 18q116 0 181 -42.5t65 -130.5q0 -58 -29.5 -103.5t-85.5 -60.5zM212 322l-26 -244q41 -5 121 -5q196 0 196 129q0 120 -162 120h-129zM243 622l-24 -224h126q66 0 109 30
t43 90q0 111 -165 111q-50 0 -89 -7z" />
    <glyph glyph-name="C" unicode="C" horiz-adv-x="583" 
d="M549 95q4 -55 -27 -84q-68 -34 -158 -34q-132 0 -204 84t-72 239q0 82 21 155.5t62.5 133t109.5 94.5t155 35t141 -33q11 -15 15 -40t-1 -45q-69 40 -141 40q-136 0 -204.5 -94t-68.5 -235q0 -251 214 -251q81 0 158 35z" />
    <glyph glyph-name="D" unicode="D" horiz-adv-x="650" 
d="M89 5l80 680q73 17 153 17q154 0 240.5 -82t86.5 -247q0 -174 -96 -276t-279 -102q-92 0 -185 10zM243 618l-56 -539q36 -5 97 -5q136 0 206 81t70 215q0 129 -62.5 192.5t-176.5 63.5q-47 0 -78 -8z" />
    <glyph glyph-name="E" unicode="E" horiz-adv-x="562" 
d="M242 620l-25 -228h297q6 -10 6 -30q0 -29 -10 -45h-300l-26 -238h331q6 -10 6 -32q0 -31 -9 -47h-423l80 695h395q6 -10 6 -30q0 -29 -10 -45h-318z" />
    <glyph glyph-name="F" unicode="F" horiz-adv-x="512" 
d="M243 618l-26 -246h277q6 -10 6 -31q0 -29 -10 -45h-281l-30 -292q-13 -7 -45 -7q-34 0 -45 7l80 691h377q6 -10 6 -31q0 -30 -10 -46h-299z" />
    <glyph glyph-name="G" unicode="G" horiz-adv-x="653" 
d="M595 29q-98 -52 -218 -52q-140 0 -215 82.5t-75 237.5q0 85 23 159.5t67 133.5t116.5 93.5t163.5 34.5q92 0 152 -34q11 -15 15.5 -40t-0.5 -45q-74 41 -162 41q-140 0 -213 -95t-73 -240q0 -246 214 -246q67 0 124 25l26 218h-162q-6 10 -6 31q0 28 10 44h248z" />
    <glyph glyph-name="H" unicode="H" horiz-adv-x="690" 
d="M515 4l37 317h-340l-33 -317q-13 -7 -45 -7q-33 0 -44 7l79 687q11 7 42 7q29 0 39 -7l-31 -293h341l33 293q13 7 42 7t40 -7l-71 -687q-13 -7 -45 -7q-33 0 -44 7z" />
    <glyph glyph-name="I" unicode="I" horiz-adv-x="266" 
d="M90 4l79 687q11 7 42 7q29 0 40 -7l-71 -687q-13 -7 -45 -7q-34 0 -45 7z" />
    <glyph glyph-name="J" unicode="J" horiz-adv-x="298" 
d="M285 691l-58 -562q-13 -129 -66 -207.5t-153 -124.5q-32 23 -35 73q79 39 117 98t49 159l64 564q11 7 42 7q29 0 40 -7z" />
    <glyph glyph-name="K" unicode="K" horiz-adv-x="595" 
d="M90 4l79 687q11 7 42 7q29 0 40 -7l-31 -296h75l234 295q19 8 53 8q31 0 44 -8l-264 -335l219 -350q-11 -8 -50 -8q-37 0 -55 8l-191 313h-73l-32 -314q-13 -7 -45 -7q-34 0 -45 7z" />
    <glyph glyph-name="L" unicode="L" horiz-adv-x="529" 
d="M495 0h-406l79 691q11 7 42 7q29 0 40 -7l-63 -611h313q5 -10 5 -30q0 -30 -10 -50z" />
    <glyph glyph-name="M" unicode="M" horiz-adv-x="820" 
d="M651 4l70 629h-4q-27 -88 -70 -188l-190 -447q-15 -6 -48 -6q-29 0 -42 6l-96 449q-19 91 -29 186h-4l-64 -630q-10 -6 -42 -6t-42 6l79 687q21 7 63 7t65 -7l93 -427q22 -98 31 -193h4q27 110 64 196l185 424q24 7 68 7q41 0 62 -7l-69 -686q-11 -7 -43 -7q-31 0 -41 7z
" />
    <glyph glyph-name="N" unicode="N" horiz-adv-x="690" 
d="M237 623l-63 -620q-12 -6 -43 -6t-42 6l81 687q21 8 54 8q32 0 51 -8l204 -453q32 -70 46 -159h4l69 613q10 7 39 7q27 0 37 -7l-70 -689q-21 -7 -59 -7q-35 0 -54 7l-208 473q-31 70 -42 148h-4z" />
    <glyph glyph-name="O" unicode="O" horiz-adv-x="696" 
d="M91 298q0 83 19.5 156.5t57.5 133.5t102.5 95t146.5 35q124 0 195 -82t71 -240q0 -61 -10.5 -118t-35 -112.5t-61 -96.5t-94 -66.5t-128.5 -25.5q-127 0 -195 81.5t-68 239.5zM410 640q-61 0 -107.5 -30.5t-72 -81t-38 -107.5t-12.5 -118q0 -119 46 -182t134 -63
q63 0 110.5 31.5t73.5 83.5t38 108t12 114q0 118 -47.5 181.5t-136.5 63.5z" />
    <glyph glyph-name="P" unicode="P" horiz-adv-x="563" 
d="M331 240q-73 0 -126 10l-26 -246q-13 -7 -45 -7q-34 0 -45 7l79 680q78 21 163 21q263 0 263 -222q0 -112 -68.5 -177.5t-194.5 -65.5zM243 619l-31 -293q45 -9 113 -9q87 0 134.5 40t47.5 121q0 151 -173 151q-49 0 -91 -10z" />
    <glyph glyph-name="Q" unicode="Q" horiz-adv-x="696" 
d="M91 298q0 66 12 126t37.5 114t63 94t92.5 63t122 23q125 0 196 -82t71 -240q0 -121 -42.5 -225.5t-131.5 -154.5q13 -55 46 -78t88 -23q51 0 93 17q3 -17 -3.5 -40t-18.5 -35q-41 -19 -97 -19q-73 0 -120 38t-63 111q-36 -10 -81 -10q-128 0 -196 81.5t-68 239.5z
M411 640q-62 0 -108.5 -30.5t-72 -81t-38 -107.5t-12.5 -118q0 -119 46.5 -182t134.5 -63q63 0 111 31.5t74 83.5t38 108t12 114q0 118 -47.5 181.5t-137.5 63.5z" />
    <glyph glyph-name="R" unicode="R" horiz-adv-x="600" 
d="M336 261q-83 0 -130 9l-28 -266q-13 -7 -45 -7q-33 0 -44 7l79 682q73 19 163 19q124 0 191.5 -52.5t67.5 -159.5q0 -162 -144 -213l139 -275q-11 -8 -48 -8q-35 0 -51 8l-125 257q-4 -1 -25 -1zM242 619l-30 -273q41 -9 104 -9q188 0 188 150q0 142 -171 142
q-49 0 -91 -10z" />
    <glyph glyph-name="S" unicode="S" horiz-adv-x="525" 
d="M511 583q-76 58 -163 58q-64 0 -102 -27.5t-38 -83.5q0 -39 22 -66.5t55 -41.5t71.5 -32.5t71.5 -38t55 -59.5t22 -96q0 -105 -66 -162t-190 -57q-106 0 -179 39q-13 17 -18 45.5t0 53.5q87 -57 200 -57q75 0 120 31t45 98q0 48 -30.5 79t-73.5 49t-86 38.5t-73.5 62
t-30.5 105.5q0 92 57.5 144.5t162.5 52.5q93 0 152 -44q12 -16 16.5 -43t-0.5 -48z" />
    <glyph glyph-name="T" unicode="T" horiz-adv-x="530" 
d="M577 618h-200l-64 -614q-13 -7 -45 -7q-34 0 -45 7l71 614h-199q-6 12 -6 31q0 30 10 46h482q6 -12 6 -31q0 -30 -10 -46z" />
    <glyph glyph-name="U" unicode="U" horiz-adv-x="666" 
d="M241 691l-45 -438q-11 -104 25.5 -149.5t120.5 -45.5q88 0 133 47.5t56 145.5l48 440q11 7 39 7q30 0 40 -7l-42 -441q-26 -273 -281 -273q-229 0 -229 217q0 24 4 62l50 435q11 7 41 7t40 -7z" />
    <glyph glyph-name="V" unicode="V" horiz-adv-x="581" 
d="M301 60h5q25 100 53 164l201 466q16 8 47 8t42 -8l-298 -691q-17 -7 -58 -7q-37 0 -56 7l-149 691q14 8 42 8q29 0 45 -8l101 -464q20 -88 25 -166z" />
    <glyph glyph-name="W" unicode="W" horiz-adv-x="872" 
d="M642 51h4q21 99 36 143l162 496q13 8 40 8q28 0 39 -8l-225 -691q-21 -7 -62 -7q-38 0 -59 7l-56 481q-12 96 -12 166h-4q-18 -95 -42 -165l-162 -482q-21 -7 -61 -7q-35 0 -58 7l-79 691q14 8 40 8q28 0 42 -8l54 -489q10 -82 10 -150h4q17 92 36 145l171 501q22 6 55 6
t55 -6l59 -494q8 -66 13 -152z" />
    <glyph glyph-name="X" unicode="X" horiz-adv-x="572" 
d="M222 689l95 -191q18 -36 28 -74h4q20 45 42 75l136 190q13 9 47 9q32 0 44 -9l-235 -330l175 -354q-9 -8 -44 -8t-50 8l-110 227q-19 39 -27 72h-4q-20 -41 -44 -74l-162 -225q-13 -8 -51 -8q-37 0 -46 8l267 369l-152 315q12 9 43 9q29 0 44 -9z" />
    <glyph glyph-name="Y" unicode="Y" horiz-adv-x="533" 
d="M251 250l-167 440q14 8 44 8q29 0 45 -8l101 -260q21 -52 30 -117h5q18 70 46 117l156 260q16 8 47 8q33 0 44 -8l-264 -445l-25 -241q-13 -7 -46 -7t-44 7z" />
    <glyph glyph-name="Z" unicode="Z" horiz-adv-x="544" 
d="M565 626l-398 -542v-5h348q6 -12 6 -32q0 -29 -10 -47h-446q-12 25 -12 71l408 543v5h-325q-5 10 -5 32q0 28 9 44h415q10 -27 10 -69z" />
    <glyph glyph-name="bracketleft" unicode="[" horiz-adv-x="277" 
d="M57 -194l107 945h155q9 -22 9 -71h-96l-84 -799h95q6 -10 6 -30q0 -29 -10 -45h-182z" />
    <glyph glyph-name="backslash" unicode="\" horiz-adv-x="388" 
d="M144 755l251 -908q-27 -24 -72 -26l-240 890q22 34 61 44z" />
    <glyph glyph-name="bracketright" unicode="]" horiz-adv-x="277" 
d="M280 751l-98 -945h-176q-6 10 -6 30q0 29 10 45h96l91 799h-93q0 39 15 71h161z" />
    <glyph glyph-name="asciicircum" unicode="^" 
d="M359 678l198 -317q-22 -33 -69 -38l-126 202q-25 42 -39 88h-4q-15 -51 -38 -89l-130 -207q-38 23 -52 62l181 290q29 7 79 9z" />
    <glyph glyph-name="underscore" unicode="_" horiz-adv-x="500" 
d="M-1 -165h505q5 -10 5 -30q0 -28 -8 -44h-518q0 42 16 74z" />
    <glyph glyph-name="grave" unicode="`" horiz-adv-x="434" 
d="M273 742l89 -152q-18 -27 -50 -34l-111 156q28 30 72 30z" />
    <glyph glyph-name="a" unicode="a" horiz-adv-x="544" 
d="M501 456l-39 -342q-4 -35 4.5 -45.5t30.5 -10.5q21 0 43 13q3 -19 -2.5 -41.5t-15.5 -33.5q-22 -16 -61 -16q-80 0 -79 82h-4q-47 -82 -151 -82q-154 0 -154 198q0 135 66 225q73 99 211 99q88 0 151 -46zM382 133l35 281q-25 17 -71 17q-91 0 -139 -63q-49 -64 -49 -178
q0 -67 23.5 -98.5t75.5 -31.5q73 0 125 73z" />
    <glyph glyph-name="b" unicode="b" horiz-adv-x="526" 
d="M81 12l89 706q29 16 79 16l-20 -170q-8 -71 -27 -156h4q49 94 161 94q150 0 150 -195q0 -69 -19 -136t-53 -109q-67 -82 -208 -82q-94 0 -156 32zM200 329l-30 -262q32 -13 79 -13q75 0 120 45q63 63 63 190q0 71 -23 104t-73 33q-80 0 -136 -97z" />
    <glyph glyph-name="c" unicode="c" horiz-adv-x="452" 
d="M400 9q-53 -29 -123 -29q-99 0 -150.5 58t-51.5 169q0 110 46 186q68 109 208 109q67 0 106 -27q10 -14 13.5 -38t-0.5 -44q-49 33 -108 33q-100 0 -147 -76q-33 -55 -33 -131q0 -159 144 -159q60 0 120 30q2 -20 -4.5 -43.5t-19.5 -37.5z" />
    <glyph glyph-name="d" unicode="d" horiz-adv-x="547" 
d="M386 134l34 276q-30 19 -73 19q-92 0 -140 -63q-49 -64 -49 -176q0 -130 103 -130q73 0 125 74zM536 734l-70 -620q-4 -35 4.5 -45.5t30.5 -10.5q21 0 43 13q3 -19 -2.5 -41.5t-15.5 -33.5q-22 -16 -61 -16q-37 0 -59 20t-20 62h-4q-46 -82 -151 -82q-158 0 -158 200
q0 134 63 222q71 100 203 100q54 0 89 -19l29 235q29 16 79 16z" />
    <glyph glyph-name="e" unicode="e" horiz-adv-x="477" 
d="M482 382q0 -78 -74 -128.5t-249 -55.5q0 -79 27 -110t91 -31q91 0 169 61q1 -21 -6 -47t-19 -39q-67 -52 -166 -52q-180 0 -180 202q0 141 76 232q74 88 190 88q67 0 104 -31.5t37 -88.5zM165 268q238 4 238 109q0 55 -70 55q-79 0 -128 -66q-29 -40 -40 -98z" />
    <glyph glyph-name="f" unicode="f" horiz-adv-x="295" 
d="M88 482h62l11 92q12 96 55 135.5t110 39.5q56 0 89 -24q10 -14 12.5 -38t-2.5 -44q-40 31 -88 31t-70 -24t-27 -76l-10 -92h122q6 -10 6 -31q0 -28 -9 -44h-127l-62 -558q-11 -7 -43 -7t-43 7l67 558h-69q0 45 16 75z" />
    <glyph glyph-name="g" unicode="g" horiz-adv-x="523" 
d="M384 71h-4q-49 -78 -151 -78q-157 0 -157 193q0 137 66 221q73 95 214 95q85 0 151 -46l-53 -476q-13 -116 -65 -174.5t-165 -58.5q-89 0 -149 32q-10 20 -11 47t7 44q71 -45 152 -45q69 0 102.5 36.5t43.5 113.5q7 61 19 96zM386 142l33 272q-32 17 -76 17
q-86 0 -138 -64q-48 -59 -48 -167q0 -127 103 -127q74 0 126 69z" />
    <glyph glyph-name="h" unicode="h" horiz-adv-x="559" 
d="M81 4l90 714q29 16 79 16l-21 -178q-9 -84 -25 -152h4q21 42 62 70t103 28q135 0 135 -138q0 -30 -3 -54l-21 -196q-3 -34 5 -45t28 -11q22 0 45 13q3 -19 -2.5 -41.5t-15.5 -33.5q-24 -16 -61 -16q-48 0 -67.5 23.5t-19.5 67.5q0 19 3 40l24 187q3 22 3 41q0 86 -83 86
q-86 0 -140 -99l-37 -322q-11 -7 -43 -7q-31 0 -42 7z" />
    <glyph glyph-name="i" unicode="i" horiz-adv-x="257" 
d="M217 478l-41 -364q-4 -35 4.5 -45.5t30.5 -10.5q21 0 43 13q3 -19 -2.5 -41.5t-15.5 -33.5q-24 -16 -61 -16q-48 0 -67.5 23.5t-19.5 67.5q0 19 3 40l47 367q13 7 40 7q29 0 39 -7zM200 707q24 0 38 -13.5t14 -40.5q0 -26 -16 -42t-42 -16q-23 0 -37 14t-14 40
q0 27 15.5 42.5t41.5 15.5z" />
    <glyph glyph-name="j" unicode="j" horiz-adv-x="239" 
d="M223 478l-49 -429q-12 -105 -55.5 -170.5t-115.5 -119.5q-40 13 -47 61q55 41 88.5 91.5t43.5 130.5l56 436q13 7 40 7q29 0 39 -7zM201 707q24 0 38 -13.5t14 -40.5q0 -26 -16 -42t-42 -16q-23 0 -37 14t-14 40q0 27 15.5 42.5t41.5 15.5z" />
    <glyph glyph-name="k" unicode="k" horiz-adv-x="502" 
d="M80 4l90 714q29 16 79 16l-50 -438h62l157 184q14 6 37 6q38 0 54 -12l-182 -210q33 -104 65.5 -156.5t79.5 -52.5q23 0 41 13q3 -18 -2.5 -41.5t-15.5 -34.5q-18 -12 -50 -12q-124 0 -188 247h-66l-26 -223q-11 -7 -43 -7q-31 0 -42 7z" />
    <glyph glyph-name="l" unicode="l" horiz-adv-x="265" 
d="M247 734l-71 -620q-4 -34 5 -45t32 -11q29 0 54 16q3 -19 -2.5 -41.5t-15.5 -33.5q-29 -19 -70 -19q-91 0 -91 89q0 9 3 42l78 607q28 16 78 16z" />
    <glyph glyph-name="m" unicode="m" horiz-adv-x="842" 
d="M498 329l-35 -325q-11 -7 -43 -7q-30 0 -41 7l36 293q2 31 1.5 59t-20.5 48.5t-59 20.5q-86 0 -135 -99l-37 -322q-11 -7 -43 -7q-31 0 -42 7l59 474q24 11 67 11l-4 -87h4q49 100 163 100q110 0 126 -102h5q46 102 163 102q66 0 97 -35.5t31 -108.5q0 -26 -3 -48
l-21 -196q-3 -34 5 -45t28 -11q22 0 45 13q3 -19 -2.5 -41.5t-15.5 -33.5q-24 -16 -61 -16q-48 0 -67.5 23.5t-19.5 67.5q0 19 3 40l24 187q3 22 3 41q0 86 -79 86q-81 0 -132 -96z" />
    <glyph glyph-name="n" unicode="n" horiz-adv-x="554" 
d="M80 4l59 474q24 11 67 11l-4 -87h4q51 100 165 100q132 0 132 -138q0 -30 -3 -54l-21 -196q-3 -34 5 -45t28 -11q22 0 45 13q3 -19 -2.5 -41.5t-15.5 -33.5q-24 -16 -61 -16q-48 0 -67.5 23.5t-19.5 67.5q0 19 3 40l24 187q3 22 3 41q0 86 -80 86q-86 0 -139 -99
l-37 -322q-11 -7 -43 -7q-31 0 -42 7z" />
    <glyph glyph-name="o" unicode="o" horiz-adv-x="523" 
d="M319 502q89 0 140.5 -57t51.5 -164q0 -132 -58 -213q-63 -88 -183 -88q-94 0 -144 56.5t-50 160.5q0 108 44 188q30 54 81 85.5t118 31.5zM316 430q-86 0 -125 -80q-30 -60 -30 -148q0 -148 114 -148q72 0 112 62q39 59 39 161q0 73 -28.5 113t-81.5 40z" />
    <glyph glyph-name="p" unicode="p" horiz-adv-x="526" 
d="M52 -229l87 707q24 11 67 11l-4 -85h4q47 98 163 98q148 0 148 -201q0 -156 -71 -240q-68 -81 -189 -81q-62 0 -93 16l-26 -225q-11 -7 -43 -7t-43 7zM200 324l-29 -252q32 -16 81 -16q72 0 116 42q64 61 64 190q0 137 -96 137q-47 0 -78.5 -26.5t-57.5 -74.5z" />
    <glyph glyph-name="q" unicode="q" horiz-adv-x="524" 
d="M385 61h-4q-50 -81 -151 -81q-157 0 -157 200q0 134 66 223q73 99 211 99q91 0 155 -46l-78 -685q-11 -7 -43 -7t-43 7l22 179q7 64 22 111zM385 129l36 283q-29 19 -77 19q-90 0 -138 -65q-48 -66 -48 -175q0 -68 24.5 -99.5t77.5 -31.5q74 0 125 69z" />
    <glyph glyph-name="r" unicode="r" horiz-adv-x="354" 
d="M206 489l-5 -102h4q31 115 134 115q30 0 48 -10q10 -15 10 -43q0 -27 -8 -45q-22 15 -56 15q-94 0 -137 -143l-31 -272q-11 -7 -43 -7q-31 0 -42 7l59 474q24 11 67 11z" />
    <glyph glyph-name="s" unicode="s" horiz-adv-x="405" 
d="M54 96q26 -18 66.5 -30t78.5 -12q104 0 104 75q0 29 -21 49t-50.5 32.5t-59 27.5t-50.5 44.5t-21 73.5q0 67 42 106.5t119 39.5q72 0 117 -34q10 -14 14 -39t0 -45q-60 47 -123 47q-87 0 -87 -66q0 -28 21 -47t51 -31.5t60 -27.5t51 -44.5t21 -73.5q0 -76 -50.5 -118.5
t-139.5 -42.5q-90 0 -142 31q-9 18 -9 43t8 42z" />
    <glyph glyph-name="t" unicode="t" horiz-adv-x="344" 
d="M88 482h61l15 114q32 21 80 21l-16 -135h130q6 -10 6 -31q0 -28 -9 -44h-136l-30 -258q-6 -46 6.5 -68t53.5 -22q49 0 89 34q7 -48 -19 -83q-42 -30 -101 -30q-62 0 -89.5 28.5t-27.5 84.5q0 22 4 52l34 262h-67q0 45 16 75z" />
    <glyph glyph-name="u" unicode="u" horiz-adv-x="549" 
d="M214 487l-36 -311q-3 -22 -3 -39q0 -37 17.5 -57t61.5 -20q46 0 76 20.5t57 60.5l42 337q13 7 40 7q29 0 39 -7l-40 -364q-4 -35 4.5 -45.5t30.5 -10.5q21 0 43 13q3 -19 -2.5 -41.5t-15.5 -33.5q-22 -16 -60 -16q-84 0 -81 86h-4q-48 -86 -161 -86q-134 0 -134 132
q0 22 4 52l41 308q30 15 81 15z" />
    <glyph glyph-name="v" unicode="v" horiz-adv-x="442" 
d="M171 4l-116 471q15 11 49 11q22 0 32 -6l80 -324q11 -43 14 -98h4q150 242 150 341q0 33 -37 33q-27 0 -49 -16q-3 42 18 67q25 19 65 19q86 0 86 -89q0 -74 -58 -192t-139 -231q-58 0 -99 14z" />
    <glyph glyph-name="w" unicode="w" horiz-adv-x="714" 
d="M143 480l49 -321q8 -48 6 -108h4q93 224 143 422q41 15 114 15l57 -333q7 -38 5 -104h4q134 244 134 348q0 33 -37 33q-22 0 -45 -15q-3 41 18 66q23 19 61 19q81 0 81 -90q0 -78 -58 -209t-117 -213q-54 0 -92 13l-54 311q-9 54 -11 119h-4q-12 -75 -62 -218.5
t-92 -224.5q-64 0 -110 13l-70 472q15 11 45 11q20 0 31 -6z" />
    <glyph glyph-name="x" unicode="x" horiz-adv-x="464" 
d="M270 309q9 28 32 57l88 115q13 5 35 5q35 0 50 -11l-174 -227q46 -119 70 -155.5t62 -36.5q29 0 49 17q4 -19 -1.5 -43t-16.5 -35q-19 -15 -55 -15q-33 0 -57.5 13.5t-45 45.5t-34 64.5t-33.5 91.5h-4q-8 -28 -32 -58l-104 -134q-15 -7 -54 -7q-33 0 -43 7l209 264
l-86 208q15 11 48 11q23 0 34 -6l44 -115q10 -25 15 -56h4z" />
    <glyph glyph-name="y" unicode="y" horiz-adv-x="443" 
d="M239 41h4q59 103 103 204.5t44 152.5q0 34 -38 34q-28 0 -48 -16q-2 17 3.5 37t14.5 30q27 19 65 19q85 0 85 -89q0 -78 -63.5 -211.5t-126.5 -221.5t-125 -140.5t-146 -83.5q-29 23 -29 76q118 35 204 151l-129 492q15 11 50 11q21 0 32 -6l84 -327q16 -58 16 -112z" />
    <glyph glyph-name="z" unicode="z" horiz-adv-x="425" 
d="M429 416q-128 -190 -260 -337v-4h229q5 -7 5 -31t-8 -44h-336q-12 27 -12 63q172 185 285 343v4h-234q2 42 16 72h301q14 -26 14 -66z" />
    <glyph glyph-name="braceleft" unicode="{" horiz-adv-x="295" 
d="M149 296v-4q36 -14 46.5 -47t4.5 -99l-18 -182q-5 -54 11 -74.5t62 -22.5q5 -16 3.5 -39t-9.5 -37q-95 1 -126.5 41t-22.5 129l19 175q7 63 -4 89t-56 33q0 35 18 71q39 5 54.5 28.5t21.5 75.5l19 164q10 84 50 126.5t131 44.5q0 -42 -16 -72q-43 -2 -64 -23.5t-26 -75.5
l-16 -160q-6 -61 -25 -95.5t-57 -45.5z" />
    <glyph glyph-name="bar" unicode="|" horiz-adv-x="268" 
d="M206 751v-932q-10 -7 -39 -7t-39 7v920q31 12 78 12z" />
    <glyph glyph-name="braceright" unicode="}" horiz-adv-x="295" 
d="M129 767q82 -6 109.5 -50t19.5 -124l-16 -160q-5 -54 4.5 -75.5t46.5 -28.5q11 -27 11 -71q-46 -4 -66 -29t-26 -82l-20 -186q-9 -84 -47 -125t-127 -45q-8 12 -9.5 36.5t4.5 39.5q49 1 70 22t28 74l22 186q14 119 83 140v4q-37 11 -48 44t-4 90l19 161q7 56 -10 79.5
t-62 28.5q0 43 18 71z" />
    <glyph glyph-name="asciitilde" unicode="~" 
d="M126 209q-29 21 -36 61q15 35 48.5 55t79.5 20t105 -29t98 -29q49 0 69 44q45 -4 65 -28q-37 -96 -138 -96q-49 0 -107 29.5t-97 29.5q-59 0 -87 -57z" />
    <glyph glyph-name="uni00A0" unicode="&#xa0;" horiz-adv-x="170" 
 />
    <glyph glyph-name="exclamdown" unicode="&#xa1;" horiz-adv-x="271" 
d="M202 277l-42 -487q-14 -8 -47 -8q-32 0 -46 8l65 482q16 9 43 9q17 0 27 -4zM189 498q24 0 38.5 -14t14.5 -41t-17 -43.5t-43 -16.5q-23 0 -37.5 14.5t-14.5 40.5q0 28 16 44t43 16z" />
    <glyph glyph-name="cent" unicode="&#xa2;" horiz-adv-x="440" 
d="M424 130q2 -20 -4 -43.5t-19 -36.5q-39 -25 -98 -28l-8 -75q-11 -6 -38 -6q-25 0 -36 6l10 78q-76 13 -115.5 66.5t-39.5 141.5q0 104 56 178.5t160 86.5l9 75q29 10 69 10l-10 -84q43 -5 73 -25q24 -32 13 -83q-52 33 -111 33q-81 0 -126 -50t-45 -132q0 -143 139 -143
q66 0 121 31z" />
    <glyph glyph-name="sterling" unicode="&#xa3;" horiz-adv-x="451" 
d="M88 303h54q-10 36 -10 67q0 84 50.5 132.5t140.5 48.5q70 0 115 -31q11 -16 15.5 -43t-0.5 -48q-51 46 -124 46q-112 0 -112 -105q0 -34 12 -67h167q5 -7 5 -25q0 -26 -8 -38h-152q3 -13 3 -31q0 -83 -71 -131v-5h269q6 -14 6 -31q0 -28 -9 -42h-359q-11 31 -11 66
q88 53 88 138q0 23 -4 36h-79q0 37 14 63z" />
    <glyph glyph-name="currency" unicode="&#xa4;" horiz-adv-x="516" 
d="M310 478q64 0 107 -29l69 79q38 -14 52 -49l-74 -79q27 -43 27 -111q0 -101 -57 -165l54 -74q-19 -32 -62 -44l-50 72q-49 -26 -109 -26q-64 0 -105 28l-70 -77q-38 14 -54 50l76 79q-27 45 -27 113q0 101 57 163l-53 76q22 34 63 43l49 -74q49 25 107 25zM302 412
q-67 0 -103.5 -46.5t-36.5 -117.5q0 -62 28.5 -95.5t83.5 -33.5q68 0 105.5 50t37.5 117q0 59 -30 92.5t-85 33.5z" />
    <glyph glyph-name="yen" unicode="&#xa5;" horiz-adv-x="479" 
d="M72 157h146l3 30l-31 74h-110q0 31 14 59h72l-85 204q16 12 47 12q26 0 38 -7l79 -185q17 -41 25 -98h4q17 60 43 99l120 184q12 7 39 7q35 0 50 -11l-133 -205h68q4 -8 4 -24q0 -23 -6 -35h-105l-47 -73l-3 -31h141q4 -8 4 -24q0 -23 -6 -35h-145l-10 -94q-13 -7 -44 -7
q-33 0 -44 7l11 94h-153q0 31 14 59z" />
    <glyph glyph-name="brokenbar" unicode="&#xa6;" horiz-adv-x="268" 
d="M206 176v-357q-10 -7 -39 -7t-39 7v345q31 12 78 12zM206 751v-342q-10 -7 -39 -7t-39 7v330q31 12 78 12z" />
    <glyph glyph-name="section" unicode="&#xa7;" horiz-adv-x="439" 
d="M434 232q0 -89 -69 -149q5 -22 5 -41q0 -81 -53.5 -123t-149.5 -42q-80 0 -135 30q-24 31 -17 83q61 -45 156 -45q122 0 122 93q0 34 -23.5 59.5t-57 44t-67 39t-57 56t-23.5 84.5q0 91 80 146q-4 13 -4 32q0 69 46.5 107.5t126.5 38.5q67 0 112 -30q23 -32 16 -80
q-54 46 -129 46q-43 0 -71 -18.5t-28 -57.5q0 -26 16.5 -46.5t40.5 -33.5t53 -31t53 -36.5t40.5 -51t16.5 -74.5zM358 221q0 38 -22 66.5t-49.5 43t-61.5 36.5t-50 45q-37 -29 -37 -83q0 -35 23 -61.5t53 -41t65 -37.5t52 -49q27 32 27 81z" />
    <glyph glyph-name="dieresis" unicode="&#xa8;" horiz-adv-x="434" 
d="M189 674q46 0 46 -48q0 -23 -14 -37t-37 -14q-45 0 -45 48q0 24 13.5 37.5t36.5 13.5zM383 674q46 0 46 -48q0 -23 -14 -37t-37 -14q-45 0 -45 48q0 24 13.5 37.5t36.5 13.5z" />
    <glyph glyph-name="copyright" unicode="&#xa9;" horiz-adv-x="741" 
d="M742 368q0 -161 -101.5 -276t-263.5 -115q-139 0 -223.5 87.5t-84.5 230.5q0 163 103.5 280.5t264.5 117.5q138 0 221.5 -90t83.5 -235zM379 27q136 0 223.5 97.5t87.5 239.5q0 125 -70 203.5t-186 78.5q-133 0 -223 -100t-90 -243q0 -126 70.5 -201t187.5 -75zM533 446
q-41 23 -87 23q-62 0 -96.5 -40.5t-34.5 -105.5q0 -115 106 -115q50 0 95 21q2 -17 -4 -38.5t-16 -32.5q-38 -20 -94 -20q-77 0 -118.5 46.5t-41.5 130.5q0 92 52 156t147 64q50 0 80 -17q9 -11 12.5 -33t-0.5 -39z" />
    <glyph glyph-name="ordfeminine" unicode="&#xaa;" horiz-adv-x="357" 
d="M369 613l-23 -212q-4 -33 21 -33q18 0 30 10q3 -14 -1.5 -32.5t-12.5 -26.5q-16 -11 -42 -11q-53 0 -57 51h-4q-28 -51 -96 -51q-105 0 -105 130q0 97 52 152t134 55q61 0 104 -32zM283 415l21 163q-20 11 -46 11q-56 0 -84.5 -43t-28.5 -100q0 -39 14.5 -57t46.5 -18
q47 0 77 44zM78 254h271q5 -7 5 -25q0 -22 -8 -34h-281q0 35 13 59z" />
    <glyph glyph-name="guillemotleft" unicode="&#xab;" horiz-adv-x="489" 
d="M171 255q27 -96 68 -188q-25 -25 -70 -31q-52 104 -85 217q47 91 117 188q34 18 90 18q-72 -108 -120 -204zM358 255q27 -96 68 -188q-25 -25 -70 -31q-52 104 -85 217q47 91 117 188q34 18 90 18q-72 -108 -120 -204z" />
    <glyph glyph-name="logicalnot" unicode="&#xac;" 
d="M540 324v-209q-12 -7 -43 -7q-29 0 -41 7v131h-376q0 50 13 78h447z" />
    <glyph glyph-name="uni00AD" unicode="&#xad;" horiz-adv-x="312" 
d="M82 312h221q6 -10 6 -31q0 -31 -10 -47h-234q0 46 17 78z" />
    <glyph glyph-name="registered" unicode="&#xae;" horiz-adv-x="489" 
d="M527 573q0 -108 -66.5 -185.5t-177.5 -77.5q-93 0 -148 57.5t-55 154.5q0 109 67.5 186t176.5 77q93 0 148 -57.5t55 -154.5zM286 355q89 0 143 60.5t54 152.5q0 80 -42 127t-118 47q-87 0 -142.5 -61.5t-55.5 -154.5q0 -81 43 -126t118 -45zM339 441l-27 69
q-25 -3 -45 2l-8 -71q-7 -5 -26 -5q-18 0 -26 5l29 223q33 10 70 10q96 0 96 -77q0 -52 -43 -74l40 -82q-8 -5 -28 -5q-17 0 -32 5zM280 626l-9 -68q14 -2 33 -2q48 0 48 38q0 35 -46 35q-16 0 -26 -3z" />
    <glyph glyph-name="macron" unicode="&#xaf;" horiz-adv-x="434" 
d="M167 654h249q5 -8 5 -26q0 -27 -7 -39h-263q0 36 16 65z" />
    <glyph glyph-name="degree" unicode="&#xb0;" horiz-adv-x="363" 
d="M253 645q58 0 92 -33.5t34 -93.5q0 -66 -40 -112t-110 -46q-59 0 -92 34t-33 95q0 68 40 112t109 44zM249 585q-37 0 -59 -24.5t-22 -65.5q0 -35 16.5 -54.5t47.5 -19.5q38 0 60.5 27.5t22.5 66.5q0 33 -17 51.5t-49 18.5z" />
    <glyph glyph-name="plusminus" unicode="&#xb1;" 
d="M124 414h154v154q27 12 80 12v-166h160q6 -12 6 -38q0 -23 -6 -37h-160v-162q-12 -7 -40 -7t-40 7v162h-166q0 51 12 75zM122 75h400q6 -12 6 -38q0 -23 -6 -37h-412q0 51 12 75z" />
    <glyph glyph-name="twosuperior" unicode="&#xb2;" horiz-adv-x="385" 
d="M161 738q37 34 106 34q55 0 86 -26t31 -76q0 -116 -163 -219v-4h149q5 -10 5 -30q0 -25 -7 -37h-255q-8 19 -8 58q14 11 46.5 34.5l56 42t49 43t39.5 50t14 49.5q0 49 -66 49q-47 0 -96 -34q-5 37 13 66z" />
    <glyph glyph-name="threesuperior" unicode="&#xb3;" horiz-adv-x="385" 
d="M190 605h8q46 0 81 14.5t35 49.5q0 41 -60 41q-51 0 -96 -27q-3 12 2.5 33.5t15.5 32.5q33 23 97 23q115 0 115 -93q0 -38 -20.5 -64t-57.5 -34v-3q70 -16 70 -88q0 -59 -45.5 -89t-117.5 -30q-53 0 -93 15q-20 27 -14 72q48 -22 107 -22q89 0 89 55q0 29 -26 41.5
t-86 12.5h-8q-4 10 -3 29.5t7 30.5z" />
    <glyph glyph-name="acute" unicode="&#xb4;" horiz-adv-x="434" 
d="M405 710l-153 -156q-32 10 -42 42l122 144q50 0 73 -30z" />
    <glyph glyph-name="mu" unicode="&#xb5;" horiz-adv-x="561" 
d="M49 -229l90 701q30 15 81 15l-37 -311q-3 -22 -3 -39q0 -77 81 -77q47 0 78 20.5t59 60.5l43 337q13 7 40 7q29 0 39 -7l-40 -364q-4 -35 4.5 -45.5t30.5 -10.5q21 0 43 13q3 -19 -2.5 -41.5t-15.5 -33.5q-22 -16 -60 -16q-78 0 -75 76h-4q-44 -76 -142 -76
q-87 0 -100 52h-4q5 -43 -7 -147l-13 -114q-11 -7 -43 -7t-43 7z" />
    <glyph glyph-name="paragraph" unicode="&#xb6;" horiz-adv-x="513" 
d="M366 645l-85 -810q-9 -6 -33 -6q-23 0 -32 6l57 505q-15 -3 -36 -3q-74 0 -120 38.5t-46 125.5q0 205 268 205q92 0 163 -23l-84 -848q-9 -6 -34 -6q-22 0 -31 6l86 803q-31 7 -73 7z" />
    <glyph glyph-name="periodcentered" unicode="&#xb7;" horiz-adv-x="225" 
d="M144 309q24 0 39 -14.5t15 -41.5q0 -28 -17 -44.5t-44 -16.5q-24 0 -38.5 14.5t-14.5 41.5q0 28 16 44.5t44 16.5z" />
    <glyph glyph-name="cedilla" unicode="&#xb8;" horiz-adv-x="434" 
d="M256 16l-20 -70q49 -21 49 -72q0 -45 -33.5 -74t-87.5 -38q-32 17 -39 46q84 12 84 61q0 37 -48 49l36 86q26 12 59 12z" />
    <glyph glyph-name="onesuperior" unicode="&#xb9;" horiz-adv-x="385" 
d="M210 385l36 309l-97 -18q3 38 19 63q53 23 156 32l-39 -386q-14 -7 -39 -7t-36 7z" />
    <glyph glyph-name="ordmasculine" unicode="&#xba;" horiz-adv-x="355" 
d="M252 645q64 0 99.5 -37t35.5 -110q0 -78 -42 -134t-126 -56q-66 0 -100 37t-34 107q0 79 42.5 136t124.5 57zM248 587q-49 0 -72.5 -39.5t-23.5 -91.5q0 -88 70 -88q52 0 75.5 40.5t23.5 89.5q0 89 -73 89zM80 254h258q5 -7 5 -25q0 -22 -8 -34h-268q0 35 13 59z" />
    <glyph glyph-name="guillemotright" unicode="&#xbb;" horiz-adv-x="489" 
d="M140 36q-41 3 -61 37q70 103 111 182q-31 105 -66 185q28 20 69 20q52 -108 83 -209q-57 -105 -136 -215zM328 36q-41 3 -61 37q70 103 111 182q-31 105 -66 185q28 20 69 20q52 -108 83 -209q-57 -105 -136 -215z" />
    <glyph glyph-name="onequarter" unicode="&#xbc;" horiz-adv-x="905" 
d="M839 373l-23 -218h43q5 -8 5 -26q0 -22 -8 -36h-46l-10 -88q-12 -7 -36 -7q-26 0 -36 7l12 88h-171q-12 23 -12 61l197 234q54 0 85 -15zM749 154l14 113q4 34 11 55h-4l-130 -167v-4q10 3 36 3h73zM754 677l-525 -710q-43 8 -56 46l517 689q42 -1 64 -25zM155 292
l36 309l-97 -18q3 38 19 63q53 23 156 32l-39 -386q-14 -7 -39 -7t-36 7z" />
    <glyph glyph-name="onehalf" unicode="&#xbd;" horiz-adv-x="905" 
d="M746 677l-525 -710q-43 8 -56 46l517 689q42 -1 64 -25zM153 292l36 309l-97 -18q3 38 19 63q53 23 156 32l-39 -386q-14 -7 -39 -7t-36 7zM655 358q37 34 106 34q55 0 86 -26t31 -76q0 -116 -163 -219v-4h149q5 -10 5 -30q0 -25 -7 -37h-255q-8 19 -8 58
q14 11 46.5 34.5l56 42t49 43t39.5 50t14 49.5q0 49 -66 49q-47 0 -96 -34q-5 37 13 66z" />
    <glyph glyph-name="threequarters" unicode="&#xbe;" horiz-adv-x="905" 
d="M862 373l-23 -218h43q5 -8 5 -26q0 -22 -8 -36h-46l-10 -88q-12 -7 -36 -7q-25 0 -36 7l12 88h-171q-12 23 -12 61l197 234q53 0 85 -15zM772 154l14 113q4 34 11 55h-4l-130 -167v-4q11 3 36 3h73zM812 677l-525 -710q-43 8 -56 46l517 689q42 -1 64 -25zM173 512h8
q46 0 81 14.5t35 49.5q0 41 -60 41q-51 0 -96 -27q-3 12 2.5 33.5t15.5 32.5q33 23 97 23q115 0 115 -93q0 -38 -20.5 -64t-57.5 -34v-3q70 -16 70 -88q0 -59 -45.5 -89t-117.5 -30q-53 0 -93 15q-20 27 -14 72q48 -22 107 -22q89 0 89 55q0 29 -26 41.5t-86 12.5h-8
q-4 10 -3 29.5t7 30.5z" />
    <glyph glyph-name="questiondown" unicode="&#xbf;" horiz-adv-x="374" 
d="M247 498q24 0 38.5 -14t14.5 -41t-16.5 -43.5t-42.5 -16.5q-23 0 -38 14.5t-15 40.5q0 28 16 44t43 16zM250 292q42 -34 42 -94q0 -39 -21 -73t-51 -57.5l-60.5 -46t-51.5 -50t-21 -57.5q0 -73 95 -73q92 0 169 65q3 -18 -3.5 -47.5t-18.5 -46.5q-66 -54 -173 -54
q-161 0 -161 144q0 39 16 72.5t40 56t52 45t52 40t40 40t16 46.5q0 31 -23 54q21 29 62 36z" />
    <glyph glyph-name="Agrave" unicode="&#xc0;" horiz-adv-x="611" 
d="M511 5l-45 196h-269l-88 -196q-12 -8 -46 -8t-43 8l308 692q22 6 55 6q32 0 52 -6l163 -692q-11 -8 -43 -8q-33 0 -44 8zM228 276h223l-45 194q-21 88 -28 176h-5q-26 -97 -61 -178zM289 902l176 -100q-3 -36 -27 -58l-196 92q11 42 47 66z" />
    <glyph glyph-name="Aacute" unicode="&#xc1;" horiz-adv-x="611" 
d="M511 5l-45 196h-269l-88 -196q-12 -8 -46 -8t-43 8l308 692q22 6 55 6q32 0 52 -6l163 -692q-11 -8 -43 -8q-33 0 -44 8zM228 276h223l-45 194q-21 88 -28 176h-5q-26 -97 -61 -178zM318 808l209 99q26 -24 26 -72l-221 -91q-17 23 -14 64z" />
    <glyph glyph-name="Acircumflex" unicode="&#xc2;" horiz-adv-x="611" 
d="M511 5l-45 196h-269l-88 -196q-12 -8 -46 -8t-43 8l308 692q22 6 55 6q32 0 52 -6l163 -692q-11 -8 -43 -8q-33 0 -44 8zM228 276h223l-45 194q-21 88 -28 176h-5q-26 -97 -61 -178zM440 889l106 -88q-4 -37 -34 -56l-115 82l-143 -82q-18 23 -18 60l121 82q14 6 44 6
q23 0 39 -4z" />
    <glyph glyph-name="Atilde" unicode="&#xc3;" horiz-adv-x="611" 
d="M511 5l-45 196h-269l-88 -196q-12 -8 -46 -8t-43 8l308 692q22 6 55 6q32 0 52 -6l163 -692q-11 -8 -43 -8q-33 0 -44 8zM228 276h223l-45 194q-21 88 -28 176h-5q-26 -97 -61 -178zM213 789q10 40 39.5 66.5t71.5 26.5t82 -25.5t68 -25.5q35 0 51 44q35 -1 54 -20
q-10 -43 -38.5 -69.5t-71.5 -26.5q-42 0 -82 25.5t-67 25.5q-40 0 -57 -46q-37 5 -50 25z" />
    <glyph glyph-name="Adieresis" unicode="&#xc4;" horiz-adv-x="611" 
d="M511 5l-45 196h-269l-88 -196q-12 -8 -46 -8t-43 8l308 692q22 6 55 6q32 0 52 -6l163 -692q-11 -8 -43 -8q-33 0 -44 8zM228 276h223l-45 194q-21 88 -28 176h-5q-26 -97 -61 -178zM499 866q49 0 49 -51q0 -25 -15 -39.5t-39 -14.5q-22 0 -35.5 13t-13.5 38t14.5 39.5
t39.5 14.5zM295 866q49 0 49 -51q0 -25 -15 -39.5t-39 -14.5q-22 0 -35.5 13t-13.5 38t14.5 39.5t39.5 14.5z" />
    <glyph glyph-name="Aring" unicode="&#xc5;" horiz-adv-x="611" 
d="M399 862q47 0 74 -24.5t27 -71.5q0 -72 -58 -103l156 -658q-11 -8 -43 -8q-33 0 -44 8l-45 196h-269l-88 -196q-12 -8 -46 -8t-43 8l295 661q-38 26 -38 79q0 51 33 84t89 33zM228 276h223l-45 194q-21 88 -28 176h-5q-26 -97 -61 -178zM396 811q-27 0 -45 -16t-18 -44
q0 -24 14 -37t37 -13q27 0 44 17.5t17 43.5q0 23 -13 36t-36 13z" />
    <glyph glyph-name="AE" unicode="&#xc6;" horiz-adv-x="920" 
d="M600 620l-25 -228h297q6 -10 6 -30q0 -29 -10 -45h-300l-26 -238h331q6 -10 6 -32q0 -31 -9 -47h-423l25 216h-225l-144 -210q-13 -8 -55 -8q-37 0 -46 8l479 689h441q6 -10 6 -30q0 -29 -10 -45h-318zM444 508l-149 -217h185l39 338h-4q-34 -68 -71 -121z" />
    <glyph glyph-name="Ccedilla" unicode="&#xc7;" horiz-adv-x="583" 
d="M549 95q4 -55 -27 -84q-65 -32 -143 -34l-11 -39q56 -24 56 -78q0 -46 -37 -76.5t-94 -39.5q-32 15 -40 51q94 14 94 61q0 37 -56 50l29 74q-111 13 -171.5 96t-60.5 224q0 82 21 155.5t62.5 133t109.5 94.5t155 35t141 -33q11 -15 15 -40t-1 -45q-69 40 -141 40
q-136 0 -204.5 -94t-68.5 -235q0 -251 214 -251q81 0 158 35z" />
    <glyph glyph-name="Egrave" unicode="&#xc8;" horiz-adv-x="562" 
d="M242 620l-25 -228h297q6 -10 6 -30q0 -29 -10 -45h-300l-26 -238h331q6 -10 6 -32q0 -31 -9 -47h-423l80 695h395q6 -10 6 -30q0 -29 -10 -45h-318zM279 902l176 -100q-3 -36 -27 -58l-196 92q11 42 47 66z" />
    <glyph glyph-name="Eacute" unicode="&#xc9;" horiz-adv-x="562" 
d="M242 620l-25 -228h297q6 -10 6 -30q0 -29 -10 -45h-300l-26 -238h331q6 -10 6 -32q0 -31 -9 -47h-423l80 695h395q6 -10 6 -30q0 -29 -10 -45h-318zM315 808l209 99q26 -24 26 -72l-221 -91q-17 23 -14 64z" />
    <glyph glyph-name="Ecircumflex" unicode="&#xca;" horiz-adv-x="562" 
d="M242 620l-25 -228h297q6 -10 6 -30q0 -29 -10 -45h-300l-26 -238h331q6 -10 6 -32q0 -31 -9 -47h-423l80 695h395q6 -10 6 -30q0 -29 -10 -45h-318zM432 889l106 -88q-4 -37 -34 -56l-115 82l-143 -82q-18 23 -18 60l121 82q13 6 44 6q23 0 39 -4z" />
    <glyph glyph-name="Edieresis" unicode="&#xcb;" horiz-adv-x="562" 
d="M242 620l-25 -228h297q6 -10 6 -30q0 -29 -10 -45h-300l-26 -238h331q6 -10 6 -32q0 -31 -9 -47h-423l80 695h395q6 -10 6 -30q0 -29 -10 -45h-318zM488 866q49 0 49 -51q0 -25 -15 -39.5t-39 -14.5q-22 0 -35.5 13t-13.5 38t14.5 39.5t39.5 14.5zM284 866q49 0 49 -51
q0 -25 -15 -39.5t-39 -14.5q-22 0 -35.5 13t-13.5 38t14.5 39.5t39.5 14.5z" />
    <glyph glyph-name="Igrave" unicode="&#xcc;" horiz-adv-x="266" 
d="M90 4l79 687q11 7 42 7q29 0 40 -7l-71 -687q-13 -7 -45 -7q-34 0 -45 7zM119 902l176 -100q-3 -36 -27 -58l-196 92q11 42 47 66z" />
    <glyph glyph-name="Iacute" unicode="&#xcd;" horiz-adv-x="266" 
d="M90 4l79 687q11 7 42 7q29 0 40 -7l-71 -687q-13 -7 -45 -7q-34 0 -45 7zM153 808l209 99q26 -24 26 -72l-221 -91q-17 23 -14 64z" />
    <glyph glyph-name="Icircumflex" unicode="&#xce;" horiz-adv-x="266" 
d="M90 4l79 687q11 7 42 7q29 0 40 -7l-71 -687q-13 -7 -45 -7q-34 0 -45 7zM271 889l106 -88q-4 -37 -34 -56l-115 82l-143 -82q-18 23 -18 60l121 82q13 6 44 6q23 0 39 -4z" />
    <glyph glyph-name="Idieresis" unicode="&#xcf;" horiz-adv-x="266" 
d="M320 866q49 0 49 -51q0 -25 -15 -39.5t-39 -14.5q-22 0 -35.5 13t-13.5 38t14.5 39.5t39.5 14.5zM131 866q49 0 49 -51q0 -25 -15 -39.5t-39 -14.5q-22 0 -35.5 13t-13.5 38t14.5 39.5t39.5 14.5zM90 4l79 687q11 7 42 7q29 0 40 -7l-71 -687q-13 -7 -45 -7q-34 0 -45 7z
" />
    <glyph glyph-name="Eth" unicode="&#xd0;" horiz-adv-x="657" 
d="M96 5l36 310h-78q-6 12 -6 30q0 30 10 44h83l35 296q73 17 153 17q154 0 240.5 -82t86.5 -247q0 -174 -96 -276t-279 -102q-92 0 -185 10zM406 315h-188l-24 -236q36 -5 97 -5q136 0 206 81t70 215q0 129 -62.5 192.5t-176.5 63.5q-47 0 -78 -8l-24 -229h184q6 -12 6 -30
q0 -30 -10 -44z" />
    <glyph glyph-name="Ntilde" unicode="&#xd1;" horiz-adv-x="690" 
d="M237 623l-63 -620q-12 -6 -43 -6t-42 6l81 687q21 8 54 8q32 0 51 -8l204 -453q32 -70 46 -159h4l69 613q10 7 39 7q27 0 37 -7l-70 -689q-21 -7 -59 -7q-35 0 -54 7l-208 473q-31 70 -42 148h-4zM256 789q10 40 39.5 66.5t71.5 26.5q43 0 83 -25.5t67 -25.5q35 0 51 44
q35 -1 54 -20q-10 -43 -38.5 -69.5t-71.5 -26.5q-42 0 -82 25.5t-67 25.5q-40 0 -57 -46q-37 5 -50 25z" />
    <glyph glyph-name="Ograve" unicode="&#xd2;" horiz-adv-x="696" 
d="M91 298q0 83 19.5 156.5t57.5 133.5t102.5 95t146.5 35q124 0 195 -82t71 -240q0 -61 -10.5 -118t-35 -112.5t-61 -96.5t-94 -66.5t-128.5 -25.5q-127 0 -195 81.5t-68 239.5zM410 640q-61 0 -107.5 -30.5t-72 -81t-38 -107.5t-12.5 -118q0 -119 46 -182t134 -63
q63 0 110.5 31.5t73.5 83.5t38 108t12 114q0 118 -47.5 181.5t-136.5 63.5zM329 902l176 -100q-3 -36 -27 -58l-196 92q11 42 47 66z" />
    <glyph glyph-name="Oacute" unicode="&#xd3;" horiz-adv-x="696" 
d="M91 298q0 83 19.5 156.5t57.5 133.5t102.5 95t146.5 35q124 0 195 -82t71 -240q0 -61 -10.5 -118t-35 -112.5t-61 -96.5t-94 -66.5t-128.5 -25.5q-127 0 -195 81.5t-68 239.5zM410 640q-61 0 -107.5 -30.5t-72 -81t-38 -107.5t-12.5 -118q0 -119 46 -182t134 -63
q63 0 110.5 31.5t73.5 83.5t38 108t12 114q0 118 -47.5 181.5t-136.5 63.5zM365 808l209 99q26 -24 26 -72l-221 -91q-17 23 -14 64z" />
    <glyph glyph-name="Ocircumflex" unicode="&#xd4;" horiz-adv-x="696" 
d="M91 298q0 83 19.5 156.5t57.5 133.5t102.5 95t146.5 35q124 0 195 -82t71 -240q0 -61 -10.5 -118t-35 -112.5t-61 -96.5t-94 -66.5t-128.5 -25.5q-127 0 -195 81.5t-68 239.5zM410 640q-61 0 -107.5 -30.5t-72 -81t-38 -107.5t-12.5 -118q0 -119 46 -182t134 -63
q63 0 110.5 31.5t73.5 83.5t38 108t12 114q0 118 -47.5 181.5t-136.5 63.5zM484 889l106 -88q-4 -37 -34 -56l-115 82l-143 -82q-18 23 -18 60l121 82q13 6 44 6q23 0 39 -4z" />
    <glyph glyph-name="Otilde" unicode="&#xd5;" horiz-adv-x="696" 
d="M91 298q0 83 19.5 156.5t57.5 133.5t102.5 95t146.5 35q124 0 195 -82t71 -240q0 -61 -10.5 -118t-35 -112.5t-61 -96.5t-94 -66.5t-128.5 -25.5q-127 0 -195 81.5t-68 239.5zM410 640q-61 0 -107.5 -30.5t-72 -81t-38 -107.5t-12.5 -118q0 -119 46 -182t134 -63
q63 0 110.5 31.5t73.5 83.5t38 108t12 114q0 118 -47.5 181.5t-136.5 63.5zM255 789q10 40 39.5 66.5t71.5 26.5t82 -25.5t68 -25.5q35 0 51 44q35 -1 54 -20q-10 -43 -38.5 -69.5t-71.5 -26.5q-42 0 -82 25.5t-67 25.5q-40 0 -57 -46q-37 5 -50 25z" />
    <glyph glyph-name="Odieresis" unicode="&#xd6;" horiz-adv-x="696" 
d="M568 866q49 0 49 -51q0 -25 -15 -39.5t-39 -14.5q-22 0 -35.5 13t-13.5 38t14.5 39.5t39.5 14.5zM312 866q49 0 49 -51q0 -25 -15 -39.5t-39 -14.5q-22 0 -35.5 13t-13.5 38t14.5 39.5t39.5 14.5zM91 298q0 83 19.5 156.5t57.5 133.5t102.5 95t146.5 35q124 0 195 -82
t71 -240q0 -61 -10.5 -118t-35 -112.5t-61 -96.5t-94 -66.5t-128.5 -25.5q-127 0 -195 81.5t-68 239.5zM410 640q-61 0 -107.5 -30.5t-72 -81t-38 -107.5t-12.5 -118q0 -119 46 -182t134 -63q63 0 110.5 31.5t73.5 83.5t38 108t12 114q0 118 -47.5 181.5t-136.5 63.5z" />
    <glyph glyph-name="multiply" unicode="&#xd7;" 
d="M163 482l153 -153l149 152q40 -10 70 -42l-164 -165l166 -164q-15 -41 -56 -58l-166 165l-164 -164q-41 19 -55 57l165 161l-168 166q29 32 70 45z" />
    <glyph glyph-name="Oslash" unicode="&#xd8;" horiz-adv-x="704" 
d="M93 298q0 83 19.5 156.5t58 133.5t103 95t147.5 35q115 0 180 -66l87 100q44 -13 57 -53l-96 -110q40 -77 40 -193q0 -61 -10.5 -118t-35.5 -112.5t-61.5 -96.5t-94.5 -66.5t-129 -25.5q-114 0 -181 65l-93 -106q-44 17 -54 56l100 115q-37 77 -37 191zM414 640
q-62 0 -108.5 -30.5t-72.5 -81t-38.5 -107.5t-12.5 -118q0 -71 18 -124l346 405q-48 56 -132 56zM600 395q0 75 -18 124l-346 -407q46 -54 128 -54q52 0 93.5 21.5t67.5 55.5t43.5 79.5t24.5 90t7 90.5z" />
    <glyph glyph-name="Ugrave" unicode="&#xd9;" horiz-adv-x="666" 
d="M241 691l-45 -438q-11 -104 25.5 -149.5t120.5 -45.5q88 0 133 47.5t56 145.5l48 440q11 7 39 7q30 0 40 -7l-42 -441q-26 -273 -281 -273q-229 0 -229 217q0 24 4 62l50 435q11 7 41 7t40 -7zM318 902l176 -100q-3 -36 -27 -58l-196 92q11 42 47 66z" />
    <glyph glyph-name="Uacute" unicode="&#xda;" horiz-adv-x="666" 
d="M241 691l-45 -438q-11 -104 25.5 -149.5t120.5 -45.5q88 0 133 47.5t56 145.5l48 440q11 7 39 7q30 0 40 -7l-42 -441q-26 -273 -281 -273q-229 0 -229 217q0 24 4 62l50 435q11 7 41 7t40 -7zM351 808l209 99q26 -24 26 -72l-221 -91q-17 23 -14 64z" />
    <glyph glyph-name="Ucircumflex" unicode="&#xdb;" horiz-adv-x="666" 
d="M241 691l-45 -438q-11 -104 25.5 -149.5t120.5 -45.5q88 0 133 47.5t56 145.5l48 440q11 7 39 7q30 0 40 -7l-42 -441q-26 -273 -281 -273q-229 0 -229 217q0 24 4 62l50 435q11 7 41 7t40 -7zM468 889l106 -88q-4 -37 -34 -56l-115 82l-143 -82q-18 23 -18 60l121 82
q13 6 44 6q23 0 39 -4z" />
    <glyph glyph-name="Udieresis" unicode="&#xdc;" horiz-adv-x="666" 
d="M241 691l-45 -438q-11 -104 25.5 -149.5t120.5 -45.5q88 0 133 47.5t56 145.5l48 440q11 7 39 7q30 0 40 -7l-42 -441q-26 -273 -281 -273q-229 0 -229 217q0 24 4 62l50 435q11 7 41 7t40 -7zM527 866q49 0 49 -51q0 -25 -15 -39.5t-39 -14.5q-22 0 -35.5 13t-13.5 38
t14.5 39.5t39.5 14.5zM323 866q49 0 49 -51q0 -25 -15 -39.5t-39 -14.5q-22 0 -35.5 13t-13.5 38t14.5 39.5t39.5 14.5z" />
    <glyph glyph-name="Yacute" unicode="&#xdd;" horiz-adv-x="533" 
d="M251 250l-167 440q14 8 44 8q29 0 45 -8l101 -260q21 -52 30 -117h5q18 70 46 117l156 260q16 8 47 8q33 0 44 -8l-264 -445l-25 -241q-13 -7 -46 -7t-44 7zM289 808l209 99q26 -24 26 -72l-221 -91q-17 23 -14 64z" />
    <glyph glyph-name="Thorn" unicode="&#xde;" horiz-adv-x="542" 
d="M90 4l79 687q11 7 42 7q29 0 40 -7l-13 -127q35 8 90 8q111 0 175.5 -49.5t64.5 -154.5q0 -109 -69 -173t-189 -64q-76 0 -116 11l-14 -138q-13 -7 -45 -7q-34 0 -45 7zM315 497q-52 0 -86 -10l-28 -270q44 -11 109 -11q78 0 124.5 39t46.5 115q0 137 -166 137z" />
    <glyph glyph-name="germandbls" unicode="&#xdf;" horiz-adv-x="590" 
d="M247 93q24 -19 63.5 -30.5t78.5 -11.5q50 0 81.5 22.5t31.5 67.5q0 31 -19.5 53.5t-47 36.5t-54.5 30.5t-46.5 46t-19.5 71.5q0 40 15.5 70.5t37.5 48t43.5 32.5t37 34t15.5 43q0 71 -84 71q-142 0 -166 -224l-67 -605q-11 -7 -43 -7t-43 7l74 604q36 296 251 296
q65 0 111 -29.5t46 -100.5q0 -48 -23 -81.5t-50 -48.5t-50 -40.5t-23 -59.5q0 -30 19.5 -51t47 -34.5t55 -30t47 -48t19.5 -77.5q0 -80 -52.5 -124t-143.5 -44q-87 0 -140 30q-9 16 -9.5 42t7.5 41z" />
    <glyph glyph-name="agrave" unicode="&#xe0;" horiz-adv-x="544" 
d="M501 456l-39 -342q-4 -35 4.5 -45.5t30.5 -10.5q21 0 43 13q3 -19 -2.5 -41.5t-15.5 -33.5q-22 -16 -61 -16q-80 0 -79 82h-4q-47 -82 -151 -82q-154 0 -154 198q0 135 66 225q73 99 211 99q88 0 151 -46zM382 133l35 281q-25 17 -71 17q-91 0 -139 -63q-49 -64 -49 -178
q0 -67 23.5 -98.5t75.5 -31.5q73 0 125 73zM314 742l89 -152q-18 -27 -50 -34l-111 156q28 30 72 30z" />
    <glyph glyph-name="aacute" unicode="&#xe1;" horiz-adv-x="544" 
d="M501 456l-39 -342q-4 -35 4.5 -45.5t30.5 -10.5q21 0 43 13q3 -19 -2.5 -41.5t-15.5 -33.5q-22 -16 -61 -16q-80 0 -79 82h-4q-47 -82 -151 -82q-154 0 -154 198q0 135 66 225q73 99 211 99q88 0 151 -46zM382 133l35 281q-25 17 -71 17q-91 0 -139 -63q-49 -64 -49 -178
q0 -67 23.5 -98.5t75.5 -31.5q73 0 125 73zM480 710l-153 -156q-32 10 -42 42l122 144q51 0 73 -30z" />
    <glyph glyph-name="acircumflex" unicode="&#xe2;" horiz-adv-x="544" 
d="M501 456l-39 -342q-4 -35 4.5 -45.5t30.5 -10.5q21 0 43 13q3 -19 -2.5 -41.5t-15.5 -33.5q-22 -16 -61 -16q-80 0 -79 82h-4q-47 -82 -151 -82q-154 0 -154 198q0 135 66 225q73 99 211 99q88 0 151 -46zM382 133l35 281q-25 17 -71 17q-91 0 -139 -63q-49 -64 -49 -178
q0 -67 23.5 -98.5t75.5 -31.5q73 0 125 73zM208 606l115 120q22 10 70 10l95 -144q-14 -32 -48 -41l-85 115l-119 -119q-24 24 -28 59z" />
    <glyph glyph-name="atilde" unicode="&#xe3;" horiz-adv-x="544" 
d="M501 456l-39 -342q-4 -35 4.5 -45.5t30.5 -10.5q21 0 43 13q3 -19 -2.5 -41.5t-15.5 -33.5q-22 -16 -61 -16q-80 0 -79 82h-4q-47 -82 -151 -82q-154 0 -154 198q0 135 66 225q73 99 211 99q88 0 151 -46zM382 133l35 281q-25 17 -71 17q-91 0 -139 -63q-49 -64 -49 -178
q0 -67 23.5 -98.5t75.5 -31.5q73 0 125 73zM284 617q-34 0 -48 -48q-31 5 -45 36q10 37 35.5 58.5t60.5 21.5q29 0 50.5 -13t38.5 -26t35 -13q36 0 42 42q34 0 54 -15q-8 -44 -33 -69.5t-64 -25.5q-35 0 -69 26t-57 26z" />
    <glyph glyph-name="adieresis" unicode="&#xe4;" horiz-adv-x="544" 
d="M501 456l-39 -342q-4 -35 4.5 -45.5t30.5 -10.5q21 0 43 13q3 -19 -2.5 -41.5t-15.5 -33.5q-22 -16 -61 -16q-80 0 -79 82h-4q-47 -82 -151 -82q-154 0 -154 198q0 135 66 225q73 99 211 99q88 0 151 -46zM382 133l35 281q-25 17 -71 17q-91 0 -139 -63q-49 -64 -49 -178
q0 -67 23.5 -98.5t75.5 -31.5q73 0 125 73zM256 674q46 0 46 -48q0 -23 -14 -37t-37 -14q-45 0 -45 48q0 24 13.5 37.5t36.5 13.5zM450 674q46 0 46 -48q0 -23 -14 -37t-37 -14q-45 0 -45 48q0 24 13.5 37.5t36.5 13.5z" />
    <glyph glyph-name="aring" unicode="&#xe5;" horiz-adv-x="544" 
d="M501 456l-39 -342q-4 -35 4.5 -45.5t30.5 -10.5q21 0 43 13q3 -19 -2.5 -41.5t-15.5 -33.5q-22 -16 -61 -16q-80 0 -79 82h-4q-47 -82 -151 -82q-154 0 -154 198q0 135 66 225q73 99 211 99q88 0 151 -46zM382 133l35 281q-25 17 -71 17q-91 0 -139 -63q-49 -64 -49 -178
q0 -67 23.5 -98.5t75.5 -31.5q73 0 125 73zM362 751q43 0 67 -23.5t24 -67.5q0 -48 -29 -79.5t-81 -31.5q-43 0 -67 23.5t-24 67.5q0 48 29.5 79.5t80.5 31.5zM358 702q-25 0 -40 -15.5t-15 -41.5q0 -47 44 -47q26 0 41 16t15 43q0 45 -45 45z" />
    <glyph glyph-name="ae" unicode="&#xe6;" horiz-adv-x="756" 
d="M761 382q0 -78 -74 -128.5t-249 -55.5q0 -79 27 -110t91 -31q91 0 169 61q1 -21 -6 -47t-19 -39q-67 -52 -166 -52q-110 0 -157 81h-4q-56 -81 -164 -81q-65 0 -106 32.5t-41 102.5q0 81 56 129t149 48q56 0 97 -15l5 32q9 59 -11 88.5t-85 29.5q-70 0 -140 -44
q-5 17 1.5 42t18.5 41q55 36 141 36q112 0 137 -86q73 86 189 86q67 0 104 -31.5t37 -88.5zM232 56q74 0 127 64q-5 24 -5 62v26q-38 15 -83 15q-57 0 -91.5 -24t-34.5 -70q0 -73 87 -73zM444 268q238 4 238 109q0 55 -70 55q-79 0 -128 -66q-29 -40 -40 -98z" />
    <glyph glyph-name="ccedilla" unicode="&#xe7;" horiz-adv-x="452" 
d="M400 9q-50 -27 -108 -28l-10 -35q49 -21 49 -72q0 -45 -33.5 -74t-87.5 -38q-32 17 -39 46q84 12 84 61q0 37 -48 49l27 65q-78 12 -118.5 69t-40.5 155q0 110 46 186q68 109 208 109q67 0 106 -27q10 -14 13.5 -38t-0.5 -44q-49 33 -108 33q-100 0 -147 -76
q-33 -55 -33 -131q0 -159 144 -159q60 0 120 30q2 -20 -4.5 -43.5t-19.5 -37.5z" />
    <glyph glyph-name="egrave" unicode="&#xe8;" horiz-adv-x="477" 
d="M482 382q0 -78 -74 -128.5t-249 -55.5q0 -79 27 -110t91 -31q91 0 169 61q1 -21 -6 -47t-19 -39q-67 -52 -166 -52q-180 0 -180 202q0 141 76 232q74 88 190 88q67 0 104 -31.5t37 -88.5zM165 268q238 4 238 109q0 55 -70 55q-79 0 -128 -66q-29 -40 -40 -98zM300 742
l89 -152q-18 -27 -50 -34l-111 156q28 30 72 30z" />
    <glyph glyph-name="eacute" unicode="&#xe9;" horiz-adv-x="477" 
d="M482 382q0 -78 -74 -128.5t-249 -55.5q0 -79 27 -110t91 -31q91 0 169 61q1 -21 -6 -47t-19 -39q-67 -52 -166 -52q-180 0 -180 202q0 141 76 232q74 88 190 88q67 0 104 -31.5t37 -88.5zM165 268q238 4 238 109q0 55 -70 55q-79 0 -128 -66q-29 -40 -40 -98zM466 710
l-153 -156q-32 10 -42 42l122 144q51 0 73 -30z" />
    <glyph glyph-name="ecircumflex" unicode="&#xea;" horiz-adv-x="477" 
d="M482 382q0 -78 -74 -128.5t-249 -55.5q0 -79 27 -110t91 -31q91 0 169 61q1 -21 -6 -47t-19 -39q-67 -52 -166 -52q-180 0 -180 202q0 141 76 232q74 88 190 88q67 0 104 -31.5t37 -88.5zM165 268q238 4 238 109q0 55 -70 55q-79 0 -128 -66q-29 -40 -40 -98zM196 606
l115 120q22 10 70 10l95 -144q-14 -32 -48 -41l-85 115l-119 -119q-24 24 -28 59z" />
    <glyph glyph-name="edieresis" unicode="&#xeb;" horiz-adv-x="477" 
d="M482 382q0 -78 -74 -128.5t-249 -55.5q0 -79 27 -110t91 -31q91 0 169 61q1 -21 -6 -47t-19 -39q-67 -52 -166 -52q-180 0 -180 202q0 141 76 232q74 88 190 88q67 0 104 -31.5t37 -88.5zM165 268q238 4 238 109q0 55 -70 55q-79 0 -128 -66q-29 -40 -40 -98zM240 674
q46 0 46 -48q0 -23 -14 -37t-37 -14q-45 0 -45 48q0 24 13.5 37.5t36.5 13.5zM434 674q46 0 46 -48q0 -23 -14 -37t-37 -14q-45 0 -45 48q0 24 13.5 37.5t36.5 13.5z" />
    <glyph glyph-name="igrave" unicode="&#xec;" horiz-adv-x="257" 
d="M217 478l-41 -364q-4 -35 4.5 -45.5t30.5 -10.5q21 0 43 13q3 -19 -2.5 -41.5t-15.5 -33.5q-24 -16 -61 -16q-48 0 -67.5 23.5t-19.5 67.5q0 19 3 40l47 367q13 7 40 7q29 0 39 -7zM161 742l89 -152q-18 -27 -50 -34l-111 156q28 30 72 30z" />
    <glyph glyph-name="iacute" unicode="&#xed;" horiz-adv-x="257" 
d="M217 478l-41 -364q-4 -35 4.5 -45.5t30.5 -10.5q21 0 43 13q3 -19 -2.5 -41.5t-15.5 -33.5q-24 -16 -61 -16q-48 0 -67.5 23.5t-19.5 67.5q0 19 3 40l47 367q13 7 40 7q29 0 39 -7zM329 710l-153 -156q-32 10 -42 42l122 144q50 0 73 -30z" />
    <glyph glyph-name="icircumflex" unicode="&#xee;" horiz-adv-x="257" 
d="M56 606l115 120q22 10 70 10l95 -144q-14 -32 -48 -41l-85 115l-119 -119q-24 24 -28 59zM217 478l-41 -364q-4 -35 4.5 -45.5t30.5 -10.5q21 0 43 13q3 -19 -2.5 -41.5t-15.5 -33.5q-24 -16 -61 -16q-48 0 -67.5 23.5t-19.5 67.5q0 19 3 40l47 367q13 7 40 7q29 0 39 -7
z" />
    <glyph glyph-name="idieresis" unicode="&#xef;" horiz-adv-x="257" 
d="M113 674q46 0 46 -48q0 -23 -14 -37t-37 -14q-45 0 -45 48q0 24 13.5 37.5t36.5 13.5zM284 674q46 0 46 -48q0 -23 -14 -37t-37 -14q-45 0 -45 48q0 24 13.5 37.5t36.5 13.5zM217 478l-41 -364q-4 -35 4.5 -45.5t30.5 -10.5q21 0 43 13q3 -19 -2.5 -41.5t-15.5 -33.5
q-24 -16 -61 -16q-48 0 -67.5 23.5t-19.5 67.5q0 19 3 40l47 367q13 7 40 7q29 0 39 -7z" />
    <glyph glyph-name="eth" unicode="&#xf0;" horiz-adv-x="524" 
d="M437 401q-6 116 -67 189l-140 -70q-13 33 -4 66l96 47q-52 38 -135 59q4 17 14 33t22 24q112 -28 176 -82l96 48q23 -16 28 -53l-80 -40q74 -96 74 -255q0 -41 -5 -81.5t-15.5 -85.5t-30.5 -83.5t-47.5 -69.5t-69 -49t-91.5 -18q-89 0 -139.5 54.5t-50.5 155.5
q0 112 60.5 191.5t166.5 79.5q93 0 138 -60h4zM433 328q-54 59 -122 59q-77 0 -118 -55t-41 -134q0 -67 30 -103.5t85 -36.5q47 0 81 27t51 71.5t24.5 85.5t9.5 86z" />
    <glyph glyph-name="ntilde" unicode="&#xf1;" horiz-adv-x="554" 
d="M80 4l59 474q24 11 67 11l-4 -87h4q51 100 165 100q132 0 132 -138q0 -30 -3 -54l-21 -196q-3 -34 5 -45t28 -11q22 0 45 13q3 -19 -2.5 -41.5t-15.5 -33.5q-24 -16 -61 -16q-48 0 -67.5 23.5t-19.5 67.5q0 19 3 40l24 187q3 22 3 41q0 86 -80 86q-86 0 -139 -99
l-37 -322q-11 -7 -43 -7q-31 0 -42 7zM282 617q-34 0 -48 -48q-31 5 -45 36q10 37 35.5 58.5t60.5 21.5q29 0 50.5 -13t38.5 -26t35 -13q36 0 42 42q34 0 54 -15q-8 -44 -33 -69.5t-64 -25.5q-35 0 -69 26t-57 26z" />
    <glyph glyph-name="ograve" unicode="&#xf2;" horiz-adv-x="523" 
d="M319 502q89 0 140.5 -57t51.5 -164q0 -132 -58 -213q-63 -88 -183 -88q-94 0 -144 56.5t-50 160.5q0 108 44 188q30 54 81 85.5t118 31.5zM316 430q-86 0 -125 -80q-30 -60 -30 -148q0 -148 114 -148q72 0 112 62q39 59 39 161q0 73 -28.5 113t-81.5 40zM299 742l89 -152
q-18 -27 -50 -34l-111 156q28 30 72 30z" />
    <glyph glyph-name="oacute" unicode="&#xf3;" horiz-adv-x="523" 
d="M319 502q89 0 140.5 -57t51.5 -164q0 -132 -58 -213q-63 -88 -183 -88q-94 0 -144 56.5t-50 160.5q0 108 44 188q30 54 81 85.5t118 31.5zM316 430q-86 0 -125 -80q-30 -60 -30 -148q0 -148 114 -148q72 0 112 62q39 59 39 161q0 73 -28.5 113t-81.5 40zM467 710
l-153 -156q-32 10 -42 42l122 144q50 0 73 -30z" />
    <glyph glyph-name="ocircumflex" unicode="&#xf4;" horiz-adv-x="523" 
d="M319 502q89 0 140.5 -57t51.5 -164q0 -132 -58 -213q-63 -88 -183 -88q-94 0 -144 56.5t-50 160.5q0 108 44 188q30 54 81 85.5t118 31.5zM316 430q-86 0 -125 -80q-30 -60 -30 -148q0 -148 114 -148q72 0 112 62q39 59 39 161q0 73 -28.5 113t-81.5 40zM197 606l115 120
q22 10 70 10l95 -144q-14 -32 -48 -41l-85 115l-119 -119q-24 24 -28 59z" />
    <glyph glyph-name="otilde" unicode="&#xf5;" horiz-adv-x="523" 
d="M319 502q89 0 140.5 -57t51.5 -164q0 -132 -58 -213q-63 -88 -183 -88q-94 0 -144 56.5t-50 160.5q0 108 44 188q30 54 81 85.5t118 31.5zM316 430q-86 0 -125 -80q-30 -60 -30 -148q0 -148 114 -148q72 0 112 62q39 59 39 161q0 73 -28.5 113t-81.5 40zM274 617
q-34 0 -48 -48q-31 5 -45 36q10 37 35.5 58.5t60.5 21.5q29 0 50.5 -13t38.5 -26t35 -13q36 0 42 42q34 0 54 -15q-8 -44 -33 -69.5t-64 -25.5q-35 0 -69 26t-57 26z" />
    <glyph glyph-name="odieresis" unicode="&#xf6;" horiz-adv-x="523" 
d="M235 674q46 0 46 -48q0 -23 -14 -37t-37 -14q-45 0 -45 48q0 24 13.5 37.5t36.5 13.5zM447 674q46 0 46 -48q0 -23 -14 -37t-37 -14q-45 0 -45 48q0 24 13.5 37.5t36.5 13.5zM319 502q89 0 140.5 -57t51.5 -164q0 -132 -58 -213q-63 -88 -183 -88q-94 0 -144 56.5
t-50 160.5q0 108 44 188q30 54 81 85.5t118 31.5zM316 430q-86 0 -125 -80q-30 -60 -30 -148q0 -148 114 -148q72 0 112 62q39 59 39 161q0 73 -28.5 113t-81.5 40z" />
    <glyph glyph-name="divide" unicode="&#xf7;" 
d="M92 311h451q7 -11 7 -39t-7 -39h-464q0 50 13 78zM315 140q51 0 51 -50q0 -53 -51 -53q-52 0 -52 52q0 24 14 37.5t38 13.5zM315 506q51 0 51 -50q0 -53 -51 -53q-52 0 -52 52q0 24 14 37.5t38 13.5z" />
    <glyph glyph-name="oslash" unicode="&#xf8;" horiz-adv-x="529" 
d="M322 502q76 0 122 -39l56 65q37 -10 50 -42l-64 -74q29 -50 29 -131q0 -132 -58 -213q-63 -88 -184 -88q-77 0 -127 39l-69 -80q-28 23 -33 63l60 70q-26 49 -26 125q0 108 44 188q30 54 81.5 85.5t118.5 31.5zM430 277q0 37 -8 67l-223 -262q30 -28 79 -28q73 0 113 62
q39 59 39 161zM319 430q-87 0 -126 -80q-30 -60 -30 -148q0 -34 6 -60l223 260q-28 28 -73 28z" />
    <glyph glyph-name="ugrave" unicode="&#xf9;" horiz-adv-x="549" 
d="M214 487l-36 -311q-3 -22 -3 -39q0 -37 17.5 -57t61.5 -20q46 0 76 20.5t57 60.5l42 337q13 7 40 7q29 0 39 -7l-40 -364q-4 -35 4.5 -45.5t30.5 -10.5q21 0 43 13q3 -19 -2.5 -41.5t-15.5 -33.5q-22 -16 -60 -16q-84 0 -81 86h-4q-48 -86 -161 -86q-134 0 -134 132
q0 22 4 52l41 308q30 15 81 15zM304 742l89 -152q-18 -27 -50 -34l-111 156q28 30 72 30z" />
    <glyph glyph-name="uacute" unicode="&#xfa;" horiz-adv-x="549" 
d="M214 487l-36 -311q-3 -22 -3 -39q0 -37 17.5 -57t61.5 -20q46 0 76 20.5t57 60.5l42 337q13 7 40 7q29 0 39 -7l-40 -364q-4 -35 4.5 -45.5t30.5 -10.5q21 0 43 13q3 -19 -2.5 -41.5t-15.5 -33.5q-22 -16 -60 -16q-84 0 -81 86h-4q-48 -86 -161 -86q-134 0 -134 132
q0 22 4 52l41 308q30 15 81 15zM471 710l-153 -156q-32 10 -42 42l122 144q50 0 73 -30z" />
    <glyph glyph-name="ucircumflex" unicode="&#xfb;" horiz-adv-x="549" 
d="M214 487l-36 -311q-3 -22 -3 -39q0 -37 17.5 -57t61.5 -20q46 0 76 20.5t57 60.5l42 337q13 7 40 7q29 0 39 -7l-40 -364q-4 -35 4.5 -45.5t30.5 -10.5q21 0 43 13q3 -19 -2.5 -41.5t-15.5 -33.5q-22 -16 -60 -16q-84 0 -81 86h-4q-48 -86 -161 -86q-134 0 -134 132
q0 22 4 52l41 308q30 15 81 15zM199 606l115 120q22 10 70 10l95 -144q-14 -32 -48 -41l-85 115l-119 -119q-24 24 -28 59z" />
    <glyph glyph-name="udieresis" unicode="&#xfc;" horiz-adv-x="549" 
d="M214 487l-36 -311q-3 -22 -3 -39q0 -37 17.5 -57t61.5 -20q46 0 76 20.5t57 60.5l42 337q13 7 40 7q29 0 39 -7l-40 -364q-4 -35 4.5 -45.5t30.5 -10.5q21 0 43 13q3 -19 -2.5 -41.5t-15.5 -33.5q-22 -16 -60 -16q-84 0 -81 86h-4q-48 -86 -161 -86q-134 0 -134 132
q0 22 4 52l41 308q30 15 81 15zM244 674q46 0 46 -48q0 -23 -14 -37t-37 -14q-45 0 -45 48q0 24 13.5 37.5t36.5 13.5zM438 674q46 0 46 -48q0 -23 -14 -37t-37 -14q-45 0 -45 48q0 24 13.5 37.5t36.5 13.5z" />
    <glyph glyph-name="yacute" unicode="&#xfd;" horiz-adv-x="443" 
d="M239 41h4q59 103 103 204.5t44 152.5q0 34 -38 34q-28 0 -48 -16q-2 17 3.5 37t14.5 30q27 19 65 19q85 0 85 -89q0 -78 -63.5 -211.5t-126.5 -221.5t-125 -140.5t-146 -83.5q-29 23 -29 76q118 35 204 151l-129 492q15 11 50 11q21 0 32 -6l84 -327q16 -58 16 -112z
M435 710l-153 -156q-32 10 -42 42l122 144q50 0 73 -30z" />
    <glyph glyph-name="thorn" unicode="&#xfe;" horiz-adv-x="526" 
d="M200 329l-29 -257q32 -16 81 -16q72 0 116 42q64 61 64 192q0 70 -23 103t-73 33q-80 0 -136 -97zM52 -229l118 947q29 16 79 16l-20 -170q-8 -71 -27 -156h4q49 94 161 94q150 0 150 -203q0 -150 -72 -239q-66 -80 -191 -80q-59 0 -90 16l-26 -225q-11 -7 -43 -7t-43 7z
" />
    <glyph glyph-name="ydieresis" unicode="&#xff;" horiz-adv-x="443" 
d="M239 41h4q59 103 103 204.5t44 152.5q0 34 -38 34q-28 0 -48 -16q-2 17 3.5 37t14.5 30q27 19 65 19q85 0 85 -89q0 -78 -63.5 -211.5t-126.5 -221.5t-125 -140.5t-146 -83.5q-29 23 -29 76q118 35 204 151l-129 492q15 11 50 11q21 0 32 -6l84 -327q16 -58 16 -112z
M212 674q46 0 46 -48q0 -23 -14 -37t-37 -14q-45 0 -45 48q0 24 13.5 37.5t36.5 13.5zM406 674q46 0 46 -48q0 -23 -14 -37t-37 -14q-45 0 -45 48q0 24 13.5 37.5t36.5 13.5z" />
    <glyph glyph-name="Amacron" unicode="&#x100;" horiz-adv-x="611" 
d="M511 5l-45 196h-269l-88 -196q-12 -8 -46 -8t-43 8l308 692q22 6 55 6q32 0 52 -6l163 -692q-11 -8 -43 -8q-33 0 -44 8zM228 276h223l-45 194q-21 88 -28 176h-5q-26 -97 -61 -178zM538 786h-286q-5 8 -5 27q0 29 7 41h286q5 -8 5 -27q0 -29 -7 -41z" />
    <glyph glyph-name="amacron" unicode="&#x101;" horiz-adv-x="544" 
d="M501 456l-39 -342q-4 -35 4.5 -45.5t30.5 -10.5q21 0 43 13q3 -19 -2.5 -41.5t-15.5 -33.5q-22 -16 -61 -16q-80 0 -79 82h-4q-47 -82 -151 -82q-154 0 -154 198q0 135 66 225q73 99 211 99q88 0 151 -46zM382 133l35 281q-25 17 -71 17q-91 0 -139 -63q-49 -64 -49 -178
q0 -67 23.5 -98.5t75.5 -31.5q73 0 125 73zM231 654h249q5 -8 5 -26q0 -27 -7 -39h-263q0 36 16 65z" />
    <glyph glyph-name="Abreve" unicode="&#x102;" horiz-adv-x="611" 
d="M511 5l-45 196h-269l-88 -196q-12 -8 -46 -8t-43 8l308 692q22 6 55 6q32 0 52 -6l163 -692q-11 -8 -43 -8q-33 0 -44 8zM228 276h223l-45 194q-21 88 -28 176h-5q-26 -97 -61 -178zM507 898q36 0 56 -19q-38 -123 -173 -123q-67 0 -104 31t-40 87q22 22 61 25
q7 -77 91 -77q78 0 109 76z" />
    <glyph glyph-name="abreve" unicode="&#x103;" horiz-adv-x="544" 
d="M501 456l-39 -342q-4 -35 4.5 -45.5t30.5 -10.5q21 0 43 13q3 -19 -2.5 -41.5t-15.5 -33.5q-22 -16 -61 -16q-80 0 -79 82h-4q-47 -82 -151 -82q-154 0 -154 198q0 135 66 225q73 99 211 99q88 0 151 -46zM382 133l35 281q-25 17 -71 17q-91 0 -139 -63q-49 -64 -49 -178
q0 -67 23.5 -98.5t75.5 -31.5q73 0 125 73zM275 724q-4 -100 74 -100q72 0 99 96q37 0 55 -19q-34 -142 -161 -142q-62 0 -95 36.5t-34 99.5q21 26 62 29z" />
    <glyph glyph-name="Aogonek" unicode="&#x104;" horiz-adv-x="611" 
d="M560 -164q18 -21 12 -61q-26 -12 -59 -12q-45 0 -73.5 25t-28.5 76q0 94 100 139l-45 198h-269l-88 -196q-12 -8 -46 -8t-43 8l308 692q22 6 55 6q32 0 52 -6l163 -691q-108 -48 -108 -125q0 -49 47 -49q12 0 23 4zM228 276h223l-45 194q-21 88 -28 176h-5
q-26 -97 -61 -178z" />
    <glyph glyph-name="aogonek" unicode="&#x105;" horiz-adv-x="544" 
d="M506 -152q18 -21 12 -58q-26 -12 -58 -12q-44 0 -72 24t-28 73q0 67 62 107v4q-41 18 -40 76h-4q-47 -82 -151 -82q-154 0 -154 198q0 135 66 225q73 99 211 99q88 0 151 -46l-39 -342q-4 -35 4.5 -45.5t30.5 -10.5q21 0 43 13q3 -19 -2.5 -41.5t-15.5 -33.5
q-85 -44 -85 -103q0 -49 47 -49q10 0 22 4zM382 133l35 281q-25 17 -71 17q-91 0 -139 -63q-49 -64 -49 -178q0 -67 23.5 -98.5t75.5 -31.5q73 0 125 73z" />
    <glyph glyph-name="Cacute" unicode="&#x106;" horiz-adv-x="583" 
d="M549 95q4 -55 -27 -84q-68 -34 -158 -34q-132 0 -204 84t-72 239q0 82 21 155.5t62.5 133t109.5 94.5t155 35t141 -33q11 -15 15 -40t-1 -45q-69 40 -141 40q-136 0 -204.5 -94t-68.5 -235q0 -251 214 -251q81 0 158 35zM360 808l209 99q26 -24 26 -72l-221 -91
q-17 23 -14 64z" />
    <glyph glyph-name="cacute" unicode="&#x107;" horiz-adv-x="452" 
d="M400 9q-53 -29 -123 -29q-99 0 -150.5 58t-51.5 169q0 110 46 186q68 109 208 109q67 0 106 -27q10 -14 13.5 -38t-0.5 -44q-49 33 -108 33q-100 0 -147 -76q-33 -55 -33 -131q0 -159 144 -159q60 0 120 30q2 -20 -4.5 -43.5t-19.5 -37.5zM459 710l-153 -156
q-32 10 -42 42l122 144q50 0 73 -30z" />
    <glyph glyph-name="Ccircumflex" unicode="&#x108;" horiz-adv-x="583" 
d="M549 95q4 -55 -27 -84q-68 -34 -158 -34q-132 0 -204 84t-72 239q0 82 21 155.5t62.5 133t109.5 94.5t155 35t141 -33q11 -15 15 -40t-1 -45q-69 40 -141 40q-136 0 -204.5 -94t-68.5 -235q0 -251 214 -251q81 0 158 35zM477 889l106 -88q-4 -37 -34 -56l-115 82
l-143 -82q-18 23 -18 60l121 82q13 6 44 6q23 0 39 -4z" />
    <glyph glyph-name="ccircumflex" unicode="&#x109;" horiz-adv-x="452" 
d="M400 9q-53 -29 -123 -29q-99 0 -150.5 58t-51.5 169q0 110 46 186q68 109 208 109q67 0 106 -27q10 -14 13.5 -38t-0.5 -44q-49 33 -108 33q-100 0 -147 -76q-33 -55 -33 -131q0 -159 144 -159q60 0 120 30q2 -20 -4.5 -43.5t-19.5 -37.5zM187 606l115 120q22 10 70 10
l95 -144q-14 -32 -48 -41l-85 115l-119 -119q-24 24 -28 59z" />
    <glyph glyph-name="Cdotaccent" unicode="&#x10a;" horiz-adv-x="583" 
d="M549 95q4 -55 -27 -84q-68 -34 -158 -34q-132 0 -204 84t-72 239q0 82 21 155.5t62.5 133t109.5 94.5t155 35t141 -33q11 -15 15 -40t-1 -45q-69 40 -141 40q-136 0 -204.5 -94t-68.5 -235q0 -251 214 -251q81 0 158 35zM435 877q22 0 36 -13t14 -39q0 -27 -16 -42.5
t-42 -15.5q-49 0 -49 52q0 28 15 43t42 15z" />
    <glyph glyph-name="cdotaccent" unicode="&#x10b;" horiz-adv-x="452" 
d="M400 9q-53 -29 -123 -29q-99 0 -150.5 58t-51.5 169q0 110 46 186q68 109 208 109q67 0 106 -27q10 -14 13.5 -38t-0.5 -44q-49 33 -108 33q-100 0 -147 -76q-33 -55 -33 -131q0 -159 144 -159q60 0 120 30q2 -20 -4.5 -43.5t-19.5 -37.5zM333 682q22 0 35.5 -13
t13.5 -38t-15.5 -40t-39.5 -15q-48 0 -48 51q0 26 14 40.5t40 14.5z" />
    <glyph glyph-name="Ccaron" unicode="&#x10c;" horiz-adv-x="583" 
d="M549 95q4 -55 -27 -84q-68 -34 -158 -34q-132 0 -204 84t-72 239q0 82 21 155.5t62.5 133t109.5 94.5t155 35t141 -33q11 -15 15 -40t-1 -45q-69 40 -141 40q-136 0 -204.5 -94t-68.5 -235q0 -251 214 -251q81 0 158 35zM323 903l107 -81l138 81q29 -18 31 -54l-132 -88
q-13 -5 -41 -5q-25 0 -37 5l-108 92q10 33 42 50z" />
    <glyph glyph-name="ccaron" unicode="&#x10d;" horiz-adv-x="452" 
d="M400 9q-53 -29 -123 -29q-99 0 -150.5 58t-51.5 169q0 110 46 186q68 109 208 109q67 0 106 -27q10 -14 13.5 -38t-0.5 -44q-49 33 -108 33q-100 0 -147 -76q-33 -55 -33 -131q0 -159 144 -159q60 0 120 30q2 -20 -4.5 -43.5t-19.5 -37.5zM290 557l-92 147q18 28 52 33
l78 -109l112 112q32 -8 41 -40l-121 -134q-27 -9 -70 -9z" />
    <glyph glyph-name="Dcaron" unicode="&#x10e;" horiz-adv-x="650" 
d="M89 5l80 680q73 17 153 17q154 0 240.5 -82t86.5 -247q0 -174 -96 -276t-279 -102q-92 0 -185 10zM243 618l-56 -539q36 -5 97 -5q136 0 206 81t70 215q0 129 -62.5 192.5t-176.5 63.5q-47 0 -78 -8zM306 903l107 -81l138 81q29 -18 31 -54l-132 -88q-13 -5 -41 -5
q-25 0 -37 5l-108 92q10 33 42 50z" />
    <glyph glyph-name="dcaron" unicode="&#x10f;" horiz-adv-x="552" 
d="M689 747q-7 -57 -28.5 -114.5t-46.5 -94.5q-36 4 -52 31q38 71 50 162q28 16 77 16zM386 134l34 276q-30 19 -73 19q-92 0 -140 -63q-49 -64 -49 -176q0 -130 103 -130q73 0 125 74zM536 734l-70 -620q-4 -35 4.5 -45.5t30.5 -10.5q21 0 43 13q3 -19 -2.5 -41.5
t-15.5 -33.5q-22 -16 -61 -16q-37 0 -59 20t-20 62h-4q-46 -82 -151 -82q-158 0 -158 200q0 134 63 222q71 100 203 100q54 0 89 -19l29 235q29 16 79 16z" />
    <glyph glyph-name="Dcroat" unicode="&#x110;" horiz-adv-x="657" 
d="M96 5l36 310h-78q-6 12 -6 30q0 30 10 44h83l35 296q73 17 153 17q154 0 240.5 -82t86.5 -247q0 -174 -96 -276t-279 -102q-92 0 -185 10zM406 315h-188l-24 -236q36 -5 97 -5q136 0 206 81t70 215q0 129 -62.5 192.5t-176.5 63.5q-47 0 -78 -8l-24 -229h184q6 -12 6 -30
q0 -30 -10 -44z" />
    <glyph glyph-name="dcroat" unicode="&#x111;" horiz-adv-x="549" 
d="M285 628h161l11 90q29 16 79 16l-12 -106h69q5 -8 5 -25q0 -27 -8 -39h-73l-51 -450q-4 -35 4.5 -45.5t30.5 -10.5q21 0 43 13q3 -19 -2.5 -41.5t-15.5 -33.5q-22 -16 -61 -16q-37 0 -59 20t-20 62h-4q-46 -82 -151 -82q-158 0 -158 197q0 131 63 219q72 98 202 98
q54 0 89 -19l11 89h-167q0 38 14 64zM386 134l33 268q-30 19 -73 19q-92 0 -139 -62q-49 -63 -49 -172q0 -127 103 -127q73 0 125 74z" />
    <glyph glyph-name="Emacron" unicode="&#x112;" horiz-adv-x="562" 
d="M242 620l-25 -228h297q6 -10 6 -30q0 -29 -10 -45h-300l-26 -238h331q6 -10 6 -32q0 -31 -9 -47h-423l80 695h395q6 -10 6 -30q0 -29 -10 -45h-318zM527 786h-286q-5 8 -5 27q0 29 7 41h286q5 -8 5 -27q0 -29 -7 -41z" />
    <glyph glyph-name="emacron" unicode="&#x113;" horiz-adv-x="477" 
d="M482 382q0 -78 -74 -128.5t-249 -55.5q0 -79 27 -110t91 -31q91 0 169 61q1 -21 -6 -47t-19 -39q-67 -52 -166 -52q-180 0 -180 202q0 141 76 232q74 88 190 88q67 0 104 -31.5t37 -88.5zM165 268q238 4 238 109q0 55 -70 55q-79 0 -128 -66q-29 -40 -40 -98zM217 654
h249q5 -8 5 -26q0 -27 -7 -39h-263q0 36 16 65z" />
    <glyph glyph-name="Ebreve" unicode="&#x114;" horiz-adv-x="562" 
d="M242 620l-25 -228h297q6 -10 6 -30q0 -29 -10 -45h-300l-26 -238h331q6 -10 6 -32q0 -31 -9 -47h-423l80 695h395q6 -10 6 -30q0 -29 -10 -45h-318zM493 898q36 0 56 -19q-38 -123 -173 -123q-67 0 -104 31t-40 87q22 22 61 25q7 -77 91 -77q78 0 109 76z" />
    <glyph glyph-name="ebreve" unicode="&#x115;" horiz-adv-x="477" 
d="M482 382q0 -78 -74 -128.5t-249 -55.5q0 -79 27 -110t91 -31q91 0 169 61q1 -21 -6 -47t-19 -39q-67 -52 -166 -52q-180 0 -180 202q0 141 76 232q74 88 190 88q67 0 104 -31.5t37 -88.5zM165 268q238 4 238 109q0 55 -70 55q-79 0 -128 -66q-29 -40 -40 -98zM262 724
q-4 -100 74 -100q72 0 99 96q37 0 55 -19q-34 -142 -161 -142q-62 0 -95 36.5t-34 99.5q21 26 62 29z" />
    <glyph glyph-name="Edotaccent" unicode="&#x116;" horiz-adv-x="562" 
d="M242 620l-25 -228h297q6 -10 6 -30q0 -29 -10 -45h-300l-26 -238h331q6 -10 6 -32q0 -31 -9 -47h-423l80 695h395q6 -10 6 -30q0 -29 -10 -45h-318zM390 877q22 0 36 -13t14 -39q0 -27 -16 -42.5t-42 -15.5q-49 0 -49 52q0 28 15 43t42 15z" />
    <glyph glyph-name="edotaccent" unicode="&#x117;" horiz-adv-x="477" 
d="M482 382q0 -78 -74 -128.5t-249 -55.5q0 -79 27 -110t91 -31q91 0 169 61q1 -21 -6 -47t-19 -39q-67 -52 -166 -52q-180 0 -180 202q0 141 76 232q74 88 190 88q67 0 104 -31.5t37 -88.5zM165 268q238 4 238 109q0 55 -70 55q-79 0 -128 -66q-29 -40 -40 -98zM339 682
q22 0 35.5 -13t13.5 -38t-15.5 -40t-39.5 -15q-48 0 -48 51q0 26 14 40.5t40 14.5z" />
    <glyph glyph-name="Eogonek" unicode="&#x118;" horiz-adv-x="562" 
d="M487 -164q18 -21 12 -61q-26 -12 -59 -12q-45 0 -73.5 25t-28.5 76q0 85 86 132v4h-335l80 695h395q6 -10 6 -30q0 -29 -10 -45h-318l-25 -228h297q6 -10 6 -30q0 -29 -10 -45h-300l-26 -238h331q6 -10 6 -32q0 -31 -9 -47q-95 -51 -95 -119q0 -49 47 -49q12 0 23 4z" />
    <glyph glyph-name="eogonek" unicode="&#x119;" horiz-adv-x="477" 
d="M482 382q0 -78 -74 -128.5t-249 -55.5q0 -79 27 -110t91 -31q91 0 169 61q1 -21 -7 -48.5t-21 -41.5q-145 -63 -145 -135q0 -49 47 -49q10 0 22 4q18 -21 12 -58q-26 -12 -58 -12q-44 0 -72 24t-28 73q0 67 56 101v4q-177 1 -177 202q0 141 76 232q74 88 190 88
q67 0 104 -31.5t37 -88.5zM165 268q238 4 238 109q0 55 -70 55q-79 0 -128 -66q-29 -40 -40 -98z" />
    <glyph glyph-name="Ecaron" unicode="&#x11a;" horiz-adv-x="562" 
d="M242 620l-25 -228h297q6 -10 6 -30q0 -29 -10 -45h-300l-26 -238h331q6 -10 6 -32q0 -31 -9 -47h-423l80 695h395q6 -10 6 -30q0 -29 -10 -45h-318zM277 903l107 -81l138 81q29 -18 31 -54l-132 -88q-13 -5 -41 -5q-25 0 -37 5l-108 92q10 33 42 50z" />
    <glyph glyph-name="ecaron" unicode="&#x11b;" horiz-adv-x="477" 
d="M482 382q0 -78 -74 -128.5t-249 -55.5q0 -79 27 -110t91 -31q91 0 169 61q1 -21 -6 -47t-19 -39q-67 -52 -166 -52q-180 0 -180 202q0 141 76 232q74 88 190 88q67 0 104 -31.5t37 -88.5zM165 268q238 4 238 109q0 55 -70 55q-79 0 -128 -66q-29 -40 -40 -98zM298 557
l-92 147q18 28 52 33l78 -109l112 112q32 -8 41 -40l-121 -134q-27 -9 -70 -9z" />
    <glyph glyph-name="Gcircumflex" unicode="&#x11c;" horiz-adv-x="653" 
d="M595 29q-98 -52 -218 -52q-140 0 -215 82.5t-75 237.5q0 85 23 159.5t67 133.5t116.5 93.5t163.5 34.5q92 0 152 -34q11 -15 15.5 -40t-0.5 -45q-74 41 -162 41q-140 0 -213 -95t-73 -240q0 -246 214 -246q67 0 124 25l26 218h-162q-6 10 -6 31q0 28 10 44h248zM496 889
l106 -88q-4 -37 -34 -56l-115 82l-143 -82q-18 23 -18 60l121 82q13 6 44 6q23 0 39 -4z" />
    <glyph glyph-name="gcircumflex" unicode="&#x11d;" horiz-adv-x="523" 
d="M384 71h-4q-49 -78 -151 -78q-157 0 -157 193q0 137 66 221q73 95 214 95q85 0 151 -46l-53 -476q-13 -116 -65 -174.5t-165 -58.5q-89 0 -149 32q-10 20 -11 47t7 44q71 -45 152 -45q69 0 102.5 36.5t43.5 113.5q7 61 19 96zM386 142l33 272q-32 17 -76 17
q-86 0 -138 -64q-48 -59 -48 -167q0 -127 103 -127q74 0 126 69zM205 606l115 120q22 10 70 10l95 -144q-14 -32 -48 -41l-85 115l-119 -119q-24 24 -28 59z" />
    <glyph glyph-name="Gbreve" unicode="&#x11e;" horiz-adv-x="653" 
d="M595 29q-98 -52 -218 -52q-140 0 -215 82.5t-75 237.5q0 85 23 159.5t67 133.5t116.5 93.5t163.5 34.5q92 0 152 -34q11 -15 15.5 -40t-0.5 -45q-74 41 -162 41q-140 0 -213 -95t-73 -240q0 -246 214 -246q67 0 124 25l26 218h-162q-6 10 -6 31q0 28 10 44h248zM560 898
q36 0 56 -19q-38 -123 -173 -123q-67 0 -104 31t-40 87q22 22 61 25q7 -77 91 -77q78 0 109 76z" />
    <glyph glyph-name="gbreve" unicode="&#x11f;" horiz-adv-x="523" 
d="M384 71h-4q-49 -78 -151 -78q-157 0 -157 193q0 137 66 221q73 95 214 95q85 0 151 -46l-53 -476q-13 -116 -65 -174.5t-165 -58.5q-89 0 -149 32q-10 20 -11 47t7 44q71 -45 152 -45q69 0 102.5 36.5t43.5 113.5q7 61 19 96zM386 142l33 272q-32 17 -76 17
q-86 0 -138 -64q-48 -59 -48 -167q0 -127 103 -127q74 0 126 69zM270 724q-4 -100 74 -100q72 0 99 96q37 0 55 -19q-34 -142 -161 -142q-62 0 -95 36.5t-34 99.5q21 26 62 29z" />
    <glyph glyph-name="Gdotaccent" unicode="&#x120;" horiz-adv-x="653" 
d="M595 29q-98 -52 -218 -52q-140 0 -215 82.5t-75 237.5q0 85 23 159.5t67 133.5t116.5 93.5t163.5 34.5q92 0 152 -34q11 -15 15.5 -40t-0.5 -45q-74 41 -162 41q-140 0 -213 -95t-73 -240q0 -246 214 -246q67 0 124 25l26 218h-162q-6 10 -6 31q0 28 10 44h248zM453 877
q22 0 36 -13t14 -39q0 -27 -16 -42.5t-42 -15.5q-49 0 -49 52q0 28 15 43t42 15z" />
    <glyph glyph-name="gdotaccent" unicode="&#x121;" horiz-adv-x="523" 
d="M384 71h-4q-49 -78 -151 -78q-157 0 -157 193q0 137 66 221q73 95 214 95q85 0 151 -46l-53 -476q-13 -116 -65 -174.5t-165 -58.5q-89 0 -149 32q-10 20 -11 47t7 44q71 -45 152 -45q69 0 102.5 36.5t43.5 113.5q7 61 19 96zM386 142l33 272q-32 17 -76 17
q-86 0 -138 -64q-48 -59 -48 -167q0 -127 103 -127q74 0 126 69zM350 682q22 0 35.5 -13t13.5 -38t-15.5 -40t-39.5 -15q-48 0 -48 51q0 26 14 40.5t40 14.5z" />
    <glyph glyph-name="Gcommaaccent" unicode="&#x122;" horiz-adv-x="653" 
d="M595 29q-98 -52 -218 -52q-140 0 -215 82.5t-75 237.5q0 85 23 159.5t67 133.5t116.5 93.5t163.5 34.5q92 0 152 -34q11 -15 15.5 -40t-0.5 -45q-74 41 -162 41q-140 0 -213 -95t-73 -240q0 -246 214 -246q67 0 124 25l26 218h-162q-6 10 -6 31q0 28 10 44h248zM401 -48
q-7 -55 -26.5 -111t-43.5 -91q-39 4 -55 32q36 74 46 154q28 16 79 16z" />
    <glyph glyph-name="gcommaaccent" unicode="&#x123;" horiz-adv-x="523" 
d="M384 71h-4q-49 -78 -151 -78q-157 0 -157 193q0 137 66 221q73 95 214 95q85 0 151 -46l-53 -476q-13 -116 -65 -174.5t-165 -58.5q-89 0 -149 32q-10 20 -11 47t7 44q71 -45 152 -45q69 0 102.5 36.5t43.5 113.5q7 61 19 96zM386 142l33 272q-32 17 -76 17
q-86 0 -138 -64q-48 -59 -48 -167q0 -127 103 -127q74 0 126 69zM303 572q10 78 58 163q26 18 69 18q-38 -77 -53 -178q-12 -9 -45 -9q-22 0 -29 6z" />
    <glyph glyph-name="Hcircumflex" unicode="&#x124;" horiz-adv-x="690" 
d="M515 4l37 317h-340l-33 -317q-13 -7 -45 -7q-33 0 -44 7l79 687q11 7 42 7q29 0 39 -7l-31 -293h341l33 293q13 7 42 7t40 -7l-71 -687q-13 -7 -45 -7q-33 0 -44 7zM485 889l106 -88q-4 -37 -34 -56l-115 82l-143 -82q-18 23 -18 60l121 82q14 6 44 6q23 0 39 -4z" />
    <glyph glyph-name="hcircumflex" unicode="&#x125;" horiz-adv-x="559" 
d="M74 824l108 71q30 13 78 13l114 -93q-6 -35 -32 -52l-116 82l-141 -80q-14 26 -11 59zM81 4l90 714q29 16 79 16l-21 -178q-9 -84 -25 -152h4q21 42 62 70t103 28q135 0 135 -138q0 -30 -3 -54l-21 -196q-3 -34 5 -45t28 -11q22 0 45 13q3 -19 -2.5 -41.5t-15.5 -33.5
q-24 -16 -61 -16q-48 0 -67.5 23.5t-19.5 67.5q0 19 3 40l24 187q3 22 3 41q0 86 -83 86q-86 0 -140 -99l-37 -322q-11 -7 -43 -7q-31 0 -42 7z" />
    <glyph glyph-name="Hbar" unicode="&#x126;" horiz-adv-x="696" 
d="M725 491h-68l-50 -487q-13 -7 -45 -7q-33 0 -44 7l35 297h-340l-31 -297q-13 -7 -45 -7q-33 0 -44 7l56 487h-65q-5 12 -5 28q0 27 9 41h69l15 131q11 7 42 7q29 0 39 -7l-14 -131h343l14 131q13 7 42 7t40 -7l-14 -131h65q5 -12 5 -28q0 -28 -9 -41zM220 378h341l13 113
h-342z" />
    <glyph glyph-name="hbar" unicode="&#x127;" horiz-adv-x="561" 
d="M100 628h62l11 90q29 16 79 16l-12 -106h164q5 -8 5 -25q0 -27 -8 -39h-169l-2 -21q-7 -72 -25 -152h4q21 42 62 70t103 28q135 0 135 -138q0 -30 -3 -54l-20 -183q-3 -34 5 -45t28 -11q22 0 45 13q3 -19 -2.5 -41.5t-15.5 -33.5q-24 -16 -61 -16q-48 0 -67.5 23.5
t-19.5 67.5q0 19 3 40l23 174q3 22 3 41q0 86 -83 86q-86 0 -140 -99l-36 -309q-11 -7 -43 -7q-31 0 -42 7l70 560h-67q0 38 14 64z" />
    <glyph glyph-name="Itilde" unicode="&#x128;" horiz-adv-x="266" 
d="M90 4l79 687q11 7 42 7q29 0 40 -7l-71 -687q-13 -7 -45 -7q-34 0 -45 7zM41 789q10 40 39.5 66.5t71.5 26.5t82 -25.5t68 -25.5q35 0 51 44q35 -1 54 -20q-10 -43 -38.5 -69.5t-71.5 -26.5q-42 0 -82 25.5t-67 25.5q-40 0 -57 -46q-37 5 -50 25z" />
    <glyph glyph-name="itilde" unicode="&#x129;" horiz-adv-x="257" 
d="M217 478l-41 -364q-4 -35 4.5 -45.5t30.5 -10.5q21 0 43 13q3 -19 -2.5 -41.5t-15.5 -33.5q-24 -16 -61 -16q-48 0 -67.5 23.5t-19.5 67.5q0 19 3 40l47 367q13 7 40 7q29 0 39 -7zM130 617q-34 0 -48 -48q-31 5 -45 36q10 37 35.5 58.5t60.5 21.5q37 0 70.5 -26
t53.5 -26q36 0 42 42q34 0 54 -15q-8 -44 -33 -69.5t-64 -25.5q-35 0 -69 26t-57 26z" />
    <glyph glyph-name="Imacron" unicode="&#x12a;" horiz-adv-x="266" 
d="M338 786h-231q-5 8 -5 27q0 29 7 41h231q5 -8 5 -27q0 -29 -7 -41zM90 4l79 687q11 7 42 7q29 0 40 -7l-71 -687q-13 -7 -45 -7q-34 0 -45 7z" />
    <glyph glyph-name="imacron" unicode="&#x12b;" horiz-adv-x="257" 
d="M101 654h197q5 -8 5 -26q0 -27 -7 -39h-211q0 36 16 65zM217 478l-41 -364q-4 -35 4.5 -45.5t30.5 -10.5q21 0 43 13q3 -19 -2.5 -41.5t-15.5 -33.5q-24 -16 -61 -16q-48 0 -67.5 23.5t-19.5 67.5q0 19 3 40l47 367q13 7 40 7q29 0 39 -7z" />
    <glyph glyph-name="Ibreve" unicode="&#x12c;" horiz-adv-x="266" 
d="M90 4l79 687q11 7 42 7q29 0 40 -7l-71 -687q-13 -7 -45 -7q-34 0 -45 7zM331 898q36 0 56 -19q-38 -123 -173 -123q-67 0 -104 31t-40 87q22 22 61 25q7 -77 91 -77q78 0 109 76z" />
    <glyph glyph-name="ibreve" unicode="&#x12d;" horiz-adv-x="257" 
d="M121 724q-4 -100 74 -100q72 0 99 96q37 0 55 -19q-34 -142 -161 -142q-62 0 -95 36.5t-34 99.5q21 26 62 29zM217 478l-41 -364q-4 -35 4.5 -45.5t30.5 -10.5q21 0 43 13q3 -19 -2.5 -41.5t-15.5 -33.5q-24 -16 -61 -16q-48 0 -67.5 23.5t-19.5 67.5q0 19 3 40l47 367
q13 7 40 7q29 0 39 -7z" />
    <glyph glyph-name="Iogonek" unicode="&#x12e;" horiz-adv-x="266" 
d="M144 -164q18 -21 12 -61q-26 -12 -59 -12q-45 0 -73.5 25t-28.5 76q0 92 94 136l80 691q11 7 42 7q29 0 40 -7l-71 -687q-106 -49 -106 -123q0 -49 47 -49q12 0 23 4z" />
    <glyph glyph-name="iogonek" unicode="&#x12f;" horiz-adv-x="257" 
d="M217 -152q18 -21 12 -58q-26 -12 -58 -12q-44 0 -72 24t-28 73q0 68 63 107v4q-46 19 -46 85q0 19 3 40l47 367q13 7 40 7q29 0 39 -7l-41 -364q-4 -35 4.5 -45.5t30.5 -10.5q21 0 43 13q3 -19 -2 -40.5t-15 -32.5q-89 -44 -89 -105q0 -49 47 -49q10 0 22 4zM200 707
q24 0 38 -13.5t14 -40.5q0 -26 -16 -42t-42 -16q-23 0 -37 14t-14 40q0 27 15.5 42.5t41.5 15.5z" />
    <glyph glyph-name="Idotaccent" unicode="&#x130;" horiz-adv-x="266" 
d="M90 4l79 687q11 7 42 7q29 0 40 -7l-71 -687q-13 -7 -45 -7q-34 0 -45 7zM227 877q22 0 36 -13t14 -39q0 -27 -16 -42.5t-42 -15.5q-49 0 -49 52q0 28 15 43t42 15z" />
    <glyph glyph-name="dotlessi" unicode="&#x131;" horiz-adv-x="257" 
d="M217 478l-41 -364q-4 -35 4.5 -45.5t30.5 -10.5q21 0 43 13q3 -19 -2.5 -41.5t-15.5 -33.5q-24 -16 -61 -16q-48 0 -67.5 23.5t-19.5 67.5q0 19 3 40l47 367q13 7 40 7q29 0 39 -7z" />
    <glyph glyph-name="IJ" unicode="&#x132;" horiz-adv-x="564" 
d="M90 4l79 687q11 7 42 7q29 0 40 -7l-71 -687q-13 -7 -45 -7q-34 0 -45 7zM551 691l-58 -562q-13 -129 -66 -207.5t-153 -124.5q-32 23 -35 73q79 39 117 98t49 159l64 564q11 7 42 7q29 0 40 -7z" />
    <glyph glyph-name="ij" unicode="&#x133;" horiz-adv-x="496" 
d="M217 478l-41 -364q-4 -35 4.5 -45.5t30.5 -10.5q21 0 43 13q3 -19 -2.5 -41.5t-15.5 -33.5q-24 -16 -61 -16q-48 0 -67.5 23.5t-19.5 67.5q0 19 3 40l47 367q13 7 40 7q29 0 39 -7zM200 707q24 0 38 -13.5t14 -40.5q0 -26 -16 -42t-42 -16q-23 0 -37 14t-14 40
q0 27 15.5 42.5t41.5 15.5zM480 478l-49 -429q-12 -105 -55.5 -170.5t-115.5 -119.5q-40 13 -47 61q55 41 88.5 91.5t43.5 130.5l56 436q13 7 40 7q29 0 39 -7zM458 707q24 0 38 -13.5t14 -40.5q0 -26 -16 -42t-42 -16q-23 0 -37 14t-14 40q0 27 15.5 42.5t41.5 15.5z" />
    <glyph glyph-name="Jcircumflex" unicode="&#x134;" horiz-adv-x="298" 
d="M285 691l-58 -562q-13 -129 -66 -207.5t-153 -124.5q-32 23 -35 73q79 39 117 98t49 159l64 564q11 7 42 7q29 0 40 -7zM302 889l106 -88q-4 -37 -34 -56l-115 82l-143 -82q-18 23 -18 60l121 82q13 6 44 6q23 0 39 -4z" />
    <glyph glyph-name="jcircumflex" unicode="&#x135;" horiz-adv-x="239" 
d="M56 606l115 120q22 10 70 10l95 -144q-14 -32 -48 -41l-85 115l-119 -119q-24 24 -28 59zM223 478l-49 -429q-12 -105 -55.5 -170.5t-115.5 -119.5q-40 13 -47 61q55 41 88.5 91.5t43.5 130.5l56 436q13 7 40 7q29 0 39 -7z" />
    <glyph glyph-name="Kcommaaccent" unicode="&#x136;" horiz-adv-x="595" 
d="M90 4l79 687q11 7 42 7q29 0 40 -7l-31 -296h75l234 295q19 8 53 8q31 0 44 -8l-264 -335l219 -350q-11 -8 -50 -8q-37 0 -55 8l-191 313h-73l-32 -314q-13 -7 -45 -7q-34 0 -45 7zM364 -48q-7 -55 -26.5 -111t-43.5 -91q-39 4 -55 32q36 74 46 154q28 16 79 16z" />
    <glyph glyph-name="kcommaaccent" unicode="&#x137;" horiz-adv-x="502" 
d="M80 4l90 714q29 16 79 16l-50 -438h62l157 184q14 6 37 6q38 0 54 -12l-182 -210q33 -104 65.5 -156.5t79.5 -52.5q23 0 41 13q3 -18 -2.5 -41.5t-15.5 -34.5q-18 -12 -50 -12q-124 0 -188 247h-66l-26 -223q-11 -7 -43 -7q-31 0 -42 7zM320 -46q-16 -119 -69 -199
q-38 4 -53 31q35 69 45 151q30 17 77 17z" />
    <glyph glyph-name="kgreenlandic" unicode="&#x138;" horiz-adv-x="499" 
d="M78 4l61 474q13 7 40 7q29 0 39 -7l-23 -198h61l161 200q14 6 37 6q38 0 54 -12l-188 -227q33 -95 65.5 -143.5t80.5 -48.5q24 0 43 13q3 -18 -2.5 -41.5t-15.5 -34.5q-18 -12 -52 -12q-126 0 -190 231h-62l-24 -207q-11 -7 -43 -7q-31 0 -42 7z" />
    <glyph glyph-name="Lacute" unicode="&#x139;" horiz-adv-x="529" 
d="M495 0h-406l79 691q11 7 42 7q29 0 40 -7l-63 -611h313q5 -10 5 -30q0 -30 -10 -50zM153 808l209 99q26 -24 26 -72l-221 -91q-17 23 -14 64z" />
    <glyph glyph-name="lacute" unicode="&#x13a;" horiz-adv-x="265" 
d="M146 812l189 91q27 -27 27 -64l-204 -84q-15 24 -12 57zM247 734l-71 -620q-4 -34 5 -45t32 -11q29 0 54 16q3 -19 -2.5 -41.5t-15.5 -33.5q-29 -19 -70 -19q-91 0 -91 89q0 9 3 42l78 607q28 16 78 16z" />
    <glyph glyph-name="Lcommaaccent" unicode="&#x13b;" horiz-adv-x="529" 
d="M495 0h-406l79 691q11 7 42 7q29 0 40 -7l-63 -611h313q5 -10 5 -30q0 -30 -10 -50zM345 -48q-7 -55 -26.5 -111t-43.5 -91q-39 4 -55 32q36 74 46 154q28 16 79 16z" />
    <glyph glyph-name="lcommaaccent" unicode="&#x13c;" horiz-adv-x="265" 
d="M247 734l-71 -620q-4 -34 5 -45t32 -11q29 0 54 16q3 -19 -2.5 -41.5t-15.5 -33.5q-29 -19 -70 -19q-91 0 -91 89q0 9 3 42l78 607q28 16 78 16zM209 -46q-16 -119 -69 -199q-38 4 -53 31q35 69 45 151q30 17 77 17z" />
    <glyph glyph-name="Lcaron" unicode="&#x13d;" horiz-adv-x="532" 
d="M511 699q-15 -122 -75 -212q-38 4 -54 31q38 71 50 165q28 16 79 16zM495 0h-406l79 691q11 7 42 7q29 0 40 -7l-63 -611h313q5 -10 5 -30q0 -30 -10 -50z" />
    <glyph glyph-name="lcaron" unicode="&#x13e;" horiz-adv-x="271" 
d="M404 747q-7 -57 -28.5 -114.5t-46.5 -94.5q-36 4 -52 31q38 71 50 162q28 16 77 16zM247 734l-71 -620q-4 -34 5 -45t32 -11q29 0 54 16q3 -19 -2.5 -41.5t-15.5 -33.5q-29 -19 -70 -19q-91 0 -91 89q0 9 3 42l78 607q28 16 78 16z" />
    <glyph glyph-name="Ldot" unicode="&#x13f;" horiz-adv-x="540" 
d="M495 0h-406l79 691q11 7 42 7q29 0 40 -7l-63 -611h313q5 -10 5 -30q0 -30 -10 -50zM444 432q22 0 36 -13t14 -39q0 -27 -16 -42.5t-42 -15.5q-49 0 -49 52q0 28 15 43t42 15z" />
    <glyph glyph-name="ldot" unicode="&#x140;" horiz-adv-x="358" 
d="M247 734l-71 -620q-4 -34 5 -45t32 -11q29 0 54 16q3 -19 -2.5 -41.5t-15.5 -33.5q-29 -19 -70 -19q-91 0 -91 89q0 9 3 42l78 607q28 16 78 16zM332 340q22 0 35.5 -13t13.5 -38t-15.5 -40t-39.5 -15q-48 0 -48 51q0 26 14 40.5t40 14.5z" />
    <glyph glyph-name="Lslash" unicode="&#x141;" horiz-adv-x="536" 
d="M499 0h-406l32 281l-64 -37q-25 22 -27 68l101 57l37 322q11 7 42 7q29 0 40 -7l-30 -292l153 87q28 -23 30 -65l-192 -109l-24 -232h313q5 -10 5 -30q0 -30 -10 -50z" />
    <glyph glyph-name="lslash" unicode="&#x142;" horiz-adv-x="271" 
d="M250 734l-39 -337l63 38q29 -22 29 -61l-101 -58l-23 -202q-4 -34 5 -45t32 -11q29 0 54 16q3 -19 -2.5 -41.5t-15.5 -33.5q-28 -19 -70 -19q-91 0 -91 89q0 9 3 42l23 175l-62 -37q-16 33 -10 72l82 47l45 350q28 16 78 16z" />
    <glyph glyph-name="Nacute" unicode="&#x143;" horiz-adv-x="690" 
d="M237 623l-63 -620q-12 -6 -43 -6t-42 6l81 687q21 8 54 8q32 0 51 -8l204 -453q32 -70 46 -159h4l69 613q10 7 39 7q27 0 37 -7l-70 -689q-21 -7 -59 -7q-35 0 -54 7l-208 473q-31 70 -42 148h-4zM368 808l209 99q26 -24 26 -72l-221 -91q-17 23 -14 64z" />
    <glyph glyph-name="nacute" unicode="&#x144;" horiz-adv-x="554" 
d="M80 4l59 474q24 11 67 11l-4 -87h4q51 100 165 100q132 0 132 -138q0 -30 -3 -54l-21 -196q-3 -34 5 -45t28 -11q22 0 45 13q3 -19 -2.5 -41.5t-15.5 -33.5q-24 -16 -61 -16q-48 0 -67.5 23.5t-19.5 67.5q0 19 3 40l24 187q3 22 3 41q0 86 -80 86q-86 0 -139 -99
l-37 -322q-11 -7 -43 -7q-31 0 -42 7zM475 710l-153 -156q-32 10 -42 42l122 144q51 0 73 -30z" />
    <glyph glyph-name="Ncommaaccent" unicode="&#x145;" horiz-adv-x="690" 
d="M237 623l-63 -620q-12 -6 -43 -6t-42 6l81 687q21 8 54 8q32 0 51 -8l204 -453q32 -70 46 -159h4l69 613q10 7 39 7q27 0 37 -7l-70 -689q-21 -7 -59 -7q-35 0 -54 7l-208 473q-31 70 -42 148h-4zM387 -48q-7 -55 -26.5 -111t-43.5 -91q-39 4 -55 32q36 74 46 154
q28 16 79 16z" />
    <glyph glyph-name="ncommaaccent" unicode="&#x146;" horiz-adv-x="554" 
d="M80 4l59 474q24 11 67 11l-4 -87h4q51 100 165 100q132 0 132 -138q0 -30 -3 -54l-21 -196q-3 -34 5 -45t28 -11q22 0 45 13q3 -19 -2.5 -41.5t-15.5 -33.5q-24 -16 -61 -16q-48 0 -67.5 23.5t-19.5 67.5q0 19 3 40l24 187q3 22 3 41q0 86 -80 86q-86 0 -139 -99
l-37 -322q-11 -7 -43 -7q-31 0 -42 7zM325 -46q-16 -119 -69 -199q-38 4 -53 31q35 69 45 151q30 17 77 17z" />
    <glyph glyph-name="Ncaron" unicode="&#x147;" horiz-adv-x="690" 
d="M237 623l-63 -620q-12 -6 -43 -6t-42 6l81 687q21 8 54 8q32 0 51 -8l204 -453q32 -70 46 -159h4l69 613q10 7 39 7q27 0 37 -7l-70 -689q-21 -7 -59 -7q-35 0 -54 7l-208 473q-31 70 -42 148h-4zM329 903l107 -81l138 81q29 -18 31 -54l-132 -88q-13 -5 -41 -5
q-25 0 -37 5l-108 92q10 33 42 50z" />
    <glyph glyph-name="ncaron" unicode="&#x148;" horiz-adv-x="554" 
d="M80 4l59 474q24 11 67 11l-4 -87h4q51 100 165 100q132 0 132 -138q0 -30 -3 -54l-21 -196q-3 -34 5 -45t28 -11q22 0 45 13q3 -19 -2.5 -41.5t-15.5 -33.5q-24 -16 -61 -16q-48 0 -67.5 23.5t-19.5 67.5q0 19 3 40l24 187q3 22 3 41q0 86 -80 86q-86 0 -139 -99
l-37 -322q-11 -7 -43 -7q-31 0 -42 7zM309 557l-92 147q18 28 52 33l78 -109l112 112q32 -8 41 -40l-121 -134q-27 -9 -70 -9z" />
    <glyph glyph-name="napostrophe" unicode="&#x149;" horiz-adv-x="580" 
d="M166 731q-7 -58 -29.5 -117t-48.5 -97q-36 4 -52 31q42 76 53 167q28 16 77 16zM106 4l59 474q24 11 67 11l-4 -87h4q51 100 165 100q132 0 132 -138q0 -30 -3 -54l-21 -196q-3 -34 5 -45t28 -11q22 0 45 13q3 -19 -2.5 -41.5t-15.5 -33.5q-24 -16 -61 -16
q-48 0 -67.5 23.5t-19.5 67.5q0 19 3 40l24 187q3 22 3 41q0 86 -80 86q-86 0 -139 -99l-37 -322q-11 -7 -43 -7q-31 0 -42 7z" />
    <glyph glyph-name="Eng" unicode="&#x14a;" horiz-adv-x="692" 
d="M236 608l-61 -605q-12 -6 -43 -6q-32 0 -42 6l80 688q19 7 46 7q30 0 48 -7l219 -426q34 -67 49 -148h4l64 574q10 7 39 7q27 0 37 -7l-67 -654q-12 -115 -57.5 -185.5t-128.5 -113.5q-29 21 -32 65q108 61 132 202l-240 469q-31 58 -43 134h-4z" />
    <glyph glyph-name="eng" unicode="&#x14b;" horiz-adv-x="537" 
d="M80 4l59 474q24 11 67 11l-4 -87h4q51 100 167 100q133 0 133 -138q0 -30 -3 -54l-24 -226q-12 -104 -55.5 -170t-116.5 -120q-40 13 -47 61q55 41 88.5 91.5t43.5 130.5l29 221q3 22 3 41q0 86 -81 86q-88 0 -141 -99l-37 -322q-11 -7 -43 -7q-31 0 -42 7z" />
    <glyph glyph-name="Omacron" unicode="&#x14c;" horiz-adv-x="696" 
d="M602 786h-332q-5 8 -5 27q0 29 7 41h332q5 -8 5 -27q0 -29 -7 -41zM91 298q0 83 19.5 156.5t57.5 133.5t102.5 95t146.5 35q124 0 195 -82t71 -240q0 -61 -10.5 -118t-35 -112.5t-61 -96.5t-94 -66.5t-128.5 -25.5q-127 0 -195 81.5t-68 239.5zM410 640
q-61 0 -107.5 -30.5t-72 -81t-38 -107.5t-12.5 -118q0 -119 46 -182t134 -63q63 0 110.5 31.5t73.5 83.5t38 108t12 114q0 118 -47.5 181.5t-136.5 63.5z" />
    <glyph glyph-name="omacron" unicode="&#x14d;" horiz-adv-x="523" 
d="M200 654h288q5 -8 5 -26q0 -27 -7 -39h-302q0 36 16 65zM319 502q89 0 140.5 -57t51.5 -164q0 -132 -58 -213q-63 -88 -183 -88q-94 0 -144 56.5t-50 160.5q0 108 44 188q30 54 81 85.5t118 31.5zM316 430q-86 0 -125 -80q-30 -60 -30 -148q0 -148 114 -148q72 0 112 62
q39 59 39 161q0 73 -28.5 113t-81.5 40z" />
    <glyph glyph-name="Obreve" unicode="&#x14e;" horiz-adv-x="696" 
d="M91 298q0 83 19.5 156.5t57.5 133.5t102.5 95t146.5 35q124 0 195 -82t71 -240q0 -61 -10.5 -118t-35 -112.5t-61 -96.5t-94 -66.5t-128.5 -25.5q-127 0 -195 81.5t-68 239.5zM410 640q-61 0 -107.5 -30.5t-72 -81t-38 -107.5t-12.5 -118q0 -119 46 -182t134 -63
q63 0 110.5 31.5t73.5 83.5t38 108t12 114q0 118 -47.5 181.5t-136.5 63.5zM549 898q36 0 56 -19q-38 -123 -173 -123q-67 0 -104 31t-40 87q22 22 61 25q7 -77 91 -77q78 0 109 76z" />
    <glyph glyph-name="obreve" unicode="&#x14f;" horiz-adv-x="523" 
d="M319 502q89 0 140.5 -57t51.5 -164q0 -132 -58 -213q-63 -88 -183 -88q-94 0 -144 56.5t-50 160.5q0 108 44 188q30 54 81 85.5t118 31.5zM316 430q-86 0 -125 -80q-30 -60 -30 -148q0 -148 114 -148q72 0 112 62q39 59 39 161q0 73 -28.5 113t-81.5 40zM263 724
q-4 -100 74 -100q72 0 99 96q37 0 55 -19q-34 -142 -161 -142q-62 0 -95 36.5t-34 99.5q21 26 62 29z" />
    <glyph glyph-name="Ohungarumlaut" unicode="&#x150;" horiz-adv-x="696" 
d="M91 298q0 83 19.5 156.5t57.5 133.5t102.5 95t146.5 35q124 0 195 -82t71 -240q0 -61 -10.5 -118t-35 -112.5t-61 -96.5t-94 -66.5t-128.5 -25.5q-127 0 -195 81.5t-68 239.5zM410 640q-61 0 -107.5 -30.5t-72 -81t-38 -107.5t-12.5 -118q0 -119 46 -182t134 -63
q63 0 110.5 31.5t73.5 83.5t38 108t12 114q0 118 -47.5 181.5t-136.5 63.5zM497 874l-158 -134q-29 13 -37 48l143 134q35 -10 52 -48zM694 874l-158 -134q-29 13 -37 48l143 134q35 -10 52 -48z" />
    <glyph glyph-name="ohungarumlaut" unicode="&#x151;" horiz-adv-x="523" 
d="M319 502q89 0 140.5 -57t51.5 -164q0 -132 -58 -213q-63 -88 -183 -88q-94 0 -144 56.5t-50 160.5q0 108 44 188q30 54 81 85.5t118 31.5zM316 430q-86 0 -125 -80q-30 -60 -30 -148q0 -148 114 -148q72 0 112 62q39 59 39 161q0 73 -28.5 113t-81.5 40zM383 716
l-124 -161q-36 7 -46 34l101 154q44 0 69 -27zM550 716l-124 -161q-36 7 -46 34l101 154q43 0 69 -27z" />
    <glyph glyph-name="OE" unicode="&#x152;" horiz-adv-x="942" 
d="M622 620l-25 -228h297q6 -10 6 -30q0 -29 -10 -45h-300l-26 -238h331q6 -10 6 -32q0 -31 -9 -47h-417q-55 -19 -115 -19q-130 0 -201.5 82.5t-71.5 232.5q0 77 20.5 149t60.5 133t109 98t157 37q64 0 118 -18h392q6 -10 6 -30q0 -29 -10 -45h-318zM378 62q59 0 100 16
l62 540q-44 19 -104 19q-55 0 -99.5 -19t-74 -51t-49 -75.5t-28 -90.5t-8.5 -97q0 -242 201 -242z" />
    <glyph glyph-name="oe" unicode="&#x153;" horiz-adv-x="822" 
d="M319 502q61 0 105 -27.5t61 -79.5h4q27 52 81.5 79.5t115.5 27.5q67 0 104 -31.5t37 -88.5q0 -78 -74 -128.5t-249 -55.5q0 -79 27 -110t91 -31q91 0 169 61q1 -21 -6 -47t-19 -39q-67 -52 -166 -52q-126 0 -152 87h-4q-48 -87 -174 -87q-94 0 -144 56.5t-50 160.5
q0 108 44 188q30 54 81 85.5t118 31.5zM316 430q-86 0 -125 -80q-30 -60 -30 -148q0 -148 114 -148q72 0 112 62q39 59 39 161q0 73 -28.5 113t-81.5 40zM510 268q238 4 238 109q0 55 -70 55q-79 0 -128 -66q-29 -40 -40 -98z" />
    <glyph glyph-name="Racute" unicode="&#x154;" horiz-adv-x="600" 
d="M336 261q-83 0 -130 9l-28 -266q-13 -7 -45 -7q-33 0 -44 7l79 682q73 19 163 19q124 0 191.5 -52.5t67.5 -159.5q0 -162 -144 -213l139 -275q-11 -8 -48 -8q-35 0 -51 8l-125 257q-4 -1 -25 -1zM242 619l-30 -273q41 -9 104 -9q188 0 188 150q0 142 -171 142
q-49 0 -91 -10zM312 808l209 99q26 -24 26 -72l-221 -91q-17 23 -14 64z" />
    <glyph glyph-name="racute" unicode="&#x155;" horiz-adv-x="354" 
d="M206 489l-5 -102h4q31 115 134 115q30 0 48 -10q10 -15 10 -43q0 -27 -8 -45q-22 15 -56 15q-94 0 -137 -143l-31 -272q-11 -7 -43 -7q-31 0 -42 7l59 474q24 11 67 11zM429 710l-153 -156q-32 10 -42 42l122 144q50 0 73 -30z" />
    <glyph glyph-name="Rcommaaccent" unicode="&#x156;" horiz-adv-x="600" 
d="M336 261q-83 0 -130 9l-28 -266q-13 -7 -45 -7q-33 0 -44 7l79 682q73 19 163 19q124 0 191.5 -52.5t67.5 -159.5q0 -162 -144 -213l139 -275q-11 -8 -48 -8q-35 0 -51 8l-125 257q-4 -1 -25 -1zM242 619l-30 -273q41 -9 104 -9q188 0 188 150q0 142 -171 142
q-49 0 -91 -10zM364 -48q-7 -55 -26.5 -111t-43.5 -91q-39 4 -55 32q36 74 46 154q28 16 79 16z" />
    <glyph glyph-name="rcommaaccent" unicode="&#x157;" horiz-adv-x="354" 
d="M206 489l-5 -102h4q31 115 134 115q30 0 48 -10q10 -15 10 -43q0 -27 -8 -45q-22 15 -56 15q-94 0 -137 -143l-31 -272q-11 -7 -43 -7q-31 0 -42 7l59 474q24 11 67 11zM154 -46q-16 -119 -69 -199q-38 4 -53 31q35 69 45 151q30 17 77 17z" />
    <glyph glyph-name="Rcaron" unicode="&#x158;" horiz-adv-x="600" 
d="M336 261q-83 0 -130 9l-28 -266q-13 -7 -45 -7q-33 0 -44 7l79 682q73 19 163 19q124 0 191.5 -52.5t67.5 -159.5q0 -162 -144 -213l139 -275q-11 -8 -48 -8q-35 0 -51 8l-125 257q-4 -1 -25 -1zM242 619l-30 -273q41 -9 104 -9q188 0 188 150q0 142 -171 142
q-49 0 -91 -10zM278 903l107 -81l138 81q29 -18 31 -54l-132 -88q-13 -5 -41 -5q-25 0 -37 5l-108 92q10 33 42 50z" />
    <glyph glyph-name="rcaron" unicode="&#x159;" horiz-adv-x="354" 
d="M206 489l-5 -102h4q31 115 134 115q30 0 48 -10q10 -15 10 -43q0 -27 -8 -45q-22 15 -56 15q-94 0 -137 -143l-31 -272q-11 -7 -43 -7q-31 0 -42 7l59 474q24 11 67 11zM257 557l-92 147q18 28 52 33l78 -109l112 112q32 -8 41 -40l-121 -134q-27 -9 -70 -9z" />
    <glyph glyph-name="Sacute" unicode="&#x15a;" horiz-adv-x="525" 
d="M511 583q-76 58 -163 58q-64 0 -102 -27.5t-38 -83.5q0 -39 22 -66.5t55 -41.5t71.5 -32.5t71.5 -38t55 -59.5t22 -96q0 -105 -66 -162t-190 -57q-106 0 -179 39q-13 17 -18 45.5t0 53.5q87 -57 200 -57q75 0 120 31t45 98q0 48 -30.5 79t-73.5 49t-86 38.5t-73.5 62
t-30.5 105.5q0 92 57.5 144.5t162.5 52.5q93 0 152 -44q12 -16 16.5 -43t-0.5 -48zM284 808l209 99q26 -24 26 -72l-221 -91q-17 23 -14 64z" />
    <glyph glyph-name="sacute" unicode="&#x15b;" horiz-adv-x="405" 
d="M54 96q26 -18 66.5 -30t78.5 -12q104 0 104 75q0 29 -21 49t-50.5 32.5t-59 27.5t-50.5 44.5t-21 73.5q0 67 42 106.5t119 39.5q72 0 117 -34q10 -14 14 -39t0 -45q-60 47 -123 47q-87 0 -87 -66q0 -28 21 -47t51 -31.5t60 -27.5t51 -44.5t21 -73.5q0 -76 -50.5 -118.5
t-139.5 -42.5q-90 0 -142 31q-9 18 -9 43t8 42zM407 710l-153 -156q-32 10 -42 42l122 144q50 0 73 -30z" />
    <glyph glyph-name="Scircumflex" unicode="&#x15c;" horiz-adv-x="525" 
d="M511 583q-76 58 -163 58q-64 0 -102 -27.5t-38 -83.5q0 -39 22 -66.5t55 -41.5t71.5 -32.5t71.5 -38t55 -59.5t22 -96q0 -105 -66 -162t-190 -57q-106 0 -179 39q-13 17 -18 45.5t0 53.5q87 -57 200 -57q75 0 120 31t45 98q0 48 -30.5 79t-73.5 49t-86 38.5t-73.5 62
t-30.5 105.5q0 92 57.5 144.5t162.5 52.5q93 0 152 -44q12 -16 16.5 -43t-0.5 -48zM402 889l106 -88q-4 -37 -34 -56l-115 82l-143 -82q-18 23 -18 60l121 82q13 6 44 6q23 0 39 -4z" />
    <glyph glyph-name="scircumflex" unicode="&#x15d;" horiz-adv-x="405" 
d="M54 96q26 -18 66.5 -30t78.5 -12q104 0 104 75q0 29 -21 49t-50.5 32.5t-59 27.5t-50.5 44.5t-21 73.5q0 67 42 106.5t119 39.5q72 0 117 -34q10 -14 14 -39t0 -45q-60 47 -123 47q-87 0 -87 -66q0 -28 21 -47t51 -31.5t60 -27.5t51 -44.5t21 -73.5q0 -76 -50.5 -118.5
t-139.5 -42.5q-90 0 -142 31q-9 18 -9 43t8 42zM137 606l115 120q22 10 70 10l95 -144q-14 -32 -48 -41l-85 115l-119 -119q-24 24 -28 59z" />
    <glyph glyph-name="Scedilla" unicode="&#x15e;" horiz-adv-x="525" 
d="M511 583q-76 58 -163 58q-64 0 -102 -27.5t-38 -83.5q0 -39 22 -66.5t55 -41.5t71.5 -32.5t71.5 -38t55 -59.5t22 -96q0 -98 -57.5 -154.5t-166.5 -63.5l-11 -40q56 -24 56 -78q0 -46 -37 -76.5t-94 -39.5q-32 15 -40 51q94 14 94 61q0 37 -56 50l28 72q-89 5 -151 38
q-13 17 -18 45.5t0 53.5q87 -57 200 -57q75 0 120 31t45 98q0 48 -30.5 79t-73.5 49t-86 38.5t-73.5 62t-30.5 105.5q0 92 57.5 144.5t162.5 52.5q93 0 152 -44q12 -16 16.5 -43t-0.5 -48z" />
    <glyph glyph-name="scedilla" unicode="&#x15f;" horiz-adv-x="405" 
d="M54 96q26 -18 66.5 -30t78.5 -12q104 0 104 75q0 29 -21 49t-50.5 32.5t-59 27.5t-50.5 44.5t-21 73.5q0 67 42 106.5t119 39.5q72 0 117 -34q10 -14 14 -39t0 -45q-60 47 -123 47q-87 0 -87 -66q0 -28 21 -47t51 -31.5t60 -27.5t51 -44.5t21 -73.5q0 -70 -43 -111.5
t-120 -48.5l-10 -35q49 -21 49 -72q0 -45 -33.5 -74t-87.5 -38q-32 17 -39 46q84 12 84 61q0 37 -48 49l27 64q-71 5 -111 29q-9 18 -9 43t8 42z" />
    <glyph glyph-name="Scaron" unicode="&#x160;" horiz-adv-x="525" 
d="M511 583q-76 58 -163 58q-64 0 -102 -27.5t-38 -83.5q0 -39 22 -66.5t55 -41.5t71.5 -32.5t71.5 -38t55 -59.5t22 -96q0 -105 -66 -162t-190 -57q-106 0 -179 39q-13 17 -18 45.5t0 53.5q87 -57 200 -57q75 0 120 31t45 98q0 48 -30.5 79t-73.5 49t-86 38.5t-73.5 62
t-30.5 105.5q0 92 57.5 144.5t162.5 52.5q93 0 152 -44q12 -16 16.5 -43t-0.5 -48zM249 903l107 -81l138 81q29 -18 31 -54l-132 -88q-13 -5 -41 -5q-25 0 -37 5l-108 92q10 33 42 50z" />
    <glyph glyph-name="scaron" unicode="&#x161;" horiz-adv-x="405" 
d="M54 96q26 -18 66.5 -30t78.5 -12q104 0 104 75q0 29 -21 49t-50.5 32.5t-59 27.5t-50.5 44.5t-21 73.5q0 67 42 106.5t119 39.5q72 0 117 -34q10 -14 14 -39t0 -45q-60 47 -123 47q-87 0 -87 -66q0 -28 21 -47t51 -31.5t60 -27.5t51 -44.5t21 -73.5q0 -76 -50.5 -118.5
t-139.5 -42.5q-90 0 -142 31q-9 18 -9 43t8 42zM241 557l-92 147q18 28 52 33l78 -109l112 112q32 -8 41 -40l-121 -134q-27 -9 -70 -9z" />
    <glyph glyph-name="Tcommaaccent" unicode="&#x162;" horiz-adv-x="530" 
d="M577 618h-200l-64 -614q-6 -3 -17 -5l-17 -61q56 -24 56 -78q0 -46 -37 -76.5t-94 -39.5q-32 15 -40 51q94 14 94 61q0 37 -56 50l36 93q-9 1 -15 5l71 614h-199q-6 12 -6 31q0 30 10 46h482q6 -12 6 -31q0 -30 -10 -46z" />
    <glyph glyph-name="tcommaaccent" unicode="&#x163;" horiz-adv-x="344" 
d="M88 482h61l15 114q32 21 80 21l-16 -135h130q6 -10 6 -31q0 -28 -9 -44h-136l-30 -258q-6 -46 6.5 -68t53.5 -22q49 0 89 34q7 -48 -19 -83q-36 -25 -80 -29l-10 -35q49 -21 49 -72q0 -45 -33.5 -74t-87.5 -38q-32 17 -39 46q84 12 84 61q0 37 -48 49l27 65
q-80 16 -80 110q0 22 4 52l34 262h-67q0 45 16 75z" />
    <glyph glyph-name="Tcaron" unicode="&#x164;" horiz-adv-x="530" 
d="M577 618h-200l-64 -614q-13 -7 -45 -7q-34 0 -45 7l71 614h-199q-6 12 -6 31q0 30 10 46h482q6 -12 6 -31q0 -30 -10 -46zM251 903l107 -81l138 81q29 -18 31 -54l-132 -88q-13 -5 -41 -5q-25 0 -37 5l-108 92q10 33 42 50z" />
    <glyph glyph-name="tcaron" unicode="&#x165;" horiz-adv-x="347" 
d="M88 482h61l15 114q32 21 80 21l-16 -135h130q6 -10 6 -31q0 -28 -9 -44h-136l-30 -258q-6 -46 6.5 -68t53.5 -22q49 0 89 34q7 -48 -19 -83q-42 -30 -101 -30q-62 0 -89.5 28.5t-27.5 84.5q0 22 4 52l34 262h-67q0 45 16 75zM455 725q-7 -53 -25.5 -106t-41.5 -87
q-37 4 -53 31q33 65 43 146q28 16 77 16z" />
    <glyph glyph-name="Tbar" unicode="&#x166;" horiz-adv-x="535" 
d="M477 310h-129l-32 -306q-13 -7 -45 -7q-34 0 -45 7l35 306h-126q-5 12 -5 29q0 29 9 43h130l28 236h-199q-6 12 -6 31q0 30 10 46h482q6 -12 6 -31q0 -30 -10 -46h-200l-25 -236h126q5 -12 5 -29q0 -29 -9 -43z" />
    <glyph glyph-name="tbar" unicode="&#x167;" horiz-adv-x="348" 
d="M230 482h130q6 -10 6 -31q0 -28 -9 -44h-136l-14 -123h116q5 -7 5 -24q0 -27 -8 -39h-121l-8 -72q-6 -46 6.5 -68t53.5 -22q49 0 89 34q7 -48 -19 -83q-42 -30 -101 -30q-62 0 -89.5 28.5t-27.5 84.5q0 22 4 52l10 76h-59q0 39 14 63h53l16 123h-67q0 45 16 75h61l15 114
q32 21 80 21z" />
    <glyph glyph-name="Utilde" unicode="&#x168;" horiz-adv-x="666" 
d="M241 691l-45 -438q-11 -104 25.5 -149.5t120.5 -45.5q88 0 133 47.5t56 145.5l48 440q11 7 39 7q30 0 40 -7l-42 -441q-26 -273 -281 -273q-229 0 -229 217q0 24 4 62l50 435q11 7 41 7t40 -7zM241 789q10 40 39.5 66.5t71.5 26.5t82 -25.5t68 -25.5q35 0 51 44
q35 -1 54 -20q-10 -43 -38.5 -69.5t-71.5 -26.5q-42 0 -82 25.5t-67 25.5q-40 0 -57 -46q-37 5 -50 25z" />
    <glyph glyph-name="utilde" unicode="&#x169;" horiz-adv-x="549" 
d="M214 487l-36 -311q-3 -22 -3 -39q0 -37 17.5 -57t61.5 -20q46 0 76 20.5t57 60.5l42 337q13 7 40 7q29 0 39 -7l-40 -364q-4 -35 4.5 -45.5t30.5 -10.5q21 0 43 13q3 -19 -2.5 -41.5t-15.5 -33.5q-22 -16 -60 -16q-84 0 -81 86h-4q-48 -86 -161 -86q-134 0 -134 132
q0 22 4 52l41 308q30 15 81 15zM274 617q-34 0 -48 -48q-31 5 -45 36q10 37 35.5 58.5t60.5 21.5q29 0 50.5 -13t38.5 -26t35 -13q36 0 42 42q34 0 54 -15q-8 -44 -33 -69.5t-64 -25.5q-35 0 -69 26t-57 26z" />
    <glyph glyph-name="Umacron" unicode="&#x16a;" horiz-adv-x="666" 
d="M241 691l-45 -438q-11 -104 25.5 -149.5t120.5 -45.5q88 0 133 47.5t56 145.5l48 440q11 7 39 7q30 0 40 -7l-42 -441q-26 -273 -281 -273q-229 0 -229 217q0 24 4 62l50 435q11 7 41 7t40 -7zM566 786h-286q-5 8 -5 27q0 29 7 41h286q5 -8 5 -27q0 -29 -7 -41z" />
    <glyph glyph-name="umacron" unicode="&#x16b;" horiz-adv-x="549" 
d="M214 487l-36 -311q-3 -22 -3 -39q0 -37 17.5 -57t61.5 -20q46 0 76 20.5t57 60.5l42 337q13 7 40 7q29 0 39 -7l-40 -364q-4 -35 4.5 -45.5t30.5 -10.5q21 0 43 13q3 -19 -2.5 -41.5t-15.5 -33.5q-22 -16 -60 -16q-84 0 -81 86h-4q-48 -86 -161 -86q-134 0 -134 132
q0 22 4 52l41 308q30 15 81 15zM220 654h249q5 -8 5 -26q0 -27 -7 -39h-263q0 36 16 65z" />
    <glyph glyph-name="Ubreve" unicode="&#x16c;" horiz-adv-x="666" 
d="M241 691l-45 -438q-11 -104 25.5 -149.5t120.5 -45.5q88 0 133 47.5t56 145.5l48 440q11 7 39 7q30 0 40 -7l-42 -441q-26 -273 -281 -273q-229 0 -229 217q0 24 4 62l50 435q11 7 41 7t40 -7zM533 898q36 0 56 -19q-38 -123 -173 -123q-67 0 -104 31t-40 87q22 22 61 25
q7 -77 91 -77q78 0 109 76z" />
    <glyph glyph-name="ubreve" unicode="&#x16d;" horiz-adv-x="549" 
d="M214 487l-36 -311q-3 -22 -3 -39q0 -37 17.5 -57t61.5 -20q46 0 76 20.5t57 60.5l42 337q13 7 40 7q29 0 39 -7l-40 -364q-4 -35 4.5 -45.5t30.5 -10.5q21 0 43 13q3 -19 -2.5 -41.5t-15.5 -33.5q-22 -16 -60 -16q-84 0 -81 86h-4q-48 -86 -161 -86q-134 0 -134 132
q0 22 4 52l41 308q30 15 81 15zM265 724q-4 -100 74 -100q72 0 99 96q37 0 55 -19q-34 -142 -161 -142q-62 0 -95 36.5t-34 99.5q21 26 62 29z" />
    <glyph glyph-name="Uring" unicode="&#x16e;" horiz-adv-x="666" 
d="M241 691l-45 -438q-11 -104 25.5 -149.5t120.5 -45.5q88 0 133 47.5t56 145.5l48 440q11 7 39 7q30 0 40 -7l-42 -441q-26 -273 -281 -273q-229 0 -229 217q0 24 4 62l50 435q11 7 41 7t40 -7zM436 948q48 0 74.5 -24.5t26.5 -71.5q0 -51 -32 -84t-89 -33q-48 0 -75 25.5
t-27 70.5q0 51 33 84t89 33zM433 897q-27 0 -45 -16t-18 -44q0 -24 14 -37t37 -13q27 0 44 17.5t17 43.5q0 23 -13 36t-36 13z" />
    <glyph glyph-name="uring" unicode="&#x16f;" horiz-adv-x="549" 
d="M214 487l-36 -311q-3 -22 -3 -39q0 -37 17.5 -57t61.5 -20q46 0 76 20.5t57 60.5l42 337q13 7 40 7q29 0 39 -7l-40 -364q-4 -35 4.5 -45.5t30.5 -10.5q21 0 43 13q3 -19 -2.5 -41.5t-15.5 -33.5q-22 -16 -60 -16q-84 0 -81 86h-4q-48 -86 -161 -86q-134 0 -134 132
q0 22 4 52l41 308q30 15 81 15zM352 751q43 0 67 -23.5t24 -67.5q0 -48 -29 -79.5t-81 -31.5q-43 0 -67 23.5t-24 67.5q0 48 29.5 79.5t80.5 31.5zM348 702q-25 0 -40 -15.5t-15 -41.5q0 -47 44 -47q26 0 41 16t15 43q0 45 -45 45z" />
    <glyph glyph-name="Uhungarumlaut" unicode="&#x170;" horiz-adv-x="666" 
d="M241 691l-45 -438q-11 -104 25.5 -149.5t120.5 -45.5q88 0 133 47.5t56 145.5l48 440q11 7 39 7q30 0 40 -7l-42 -441q-26 -273 -281 -273q-229 0 -229 217q0 24 4 62l50 435q11 7 41 7t40 -7zM481 874l-158 -134q-29 13 -37 48l143 134q35 -10 52 -48zM678 874
l-158 -134q-29 13 -37 48l143 134q35 -10 52 -48z" />
    <glyph glyph-name="uhungarumlaut" unicode="&#x171;" horiz-adv-x="549" 
d="M214 487l-36 -311q-3 -22 -3 -39q0 -37 17.5 -57t61.5 -20q46 0 76 20.5t57 60.5l42 337q13 7 40 7q29 0 39 -7l-40 -364q-4 -35 4.5 -45.5t30.5 -10.5q21 0 43 13q3 -19 -2.5 -41.5t-15.5 -33.5q-22 -16 -60 -16q-84 0 -81 86h-4q-48 -86 -161 -86q-134 0 -134 132
q0 22 4 52l41 308q30 15 81 15zM388 716l-124 -161q-36 7 -46 34l101 154q43 0 69 -27zM555 716l-124 -161q-36 7 -46 34l101 154q44 0 69 -27z" />
    <glyph glyph-name="Uogonek" unicode="&#x172;" horiz-adv-x="666" 
d="M426 -164q18 -21 12 -61q-26 -12 -59 -12q-45 0 -73.5 25t-28.5 76q0 66 60 109v4q-231 0 -231 217q0 24 4 62l50 435q11 7 41 7t40 -7l-45 -438q-11 -104 25.5 -149.5t120.5 -45.5q88 0 133 47.5t56 145.5l48 440q11 7 39 7q30 0 40 -7l-42 -441q-18 -193 -155 -252
q-105 -45 -105 -117q0 -49 47 -49q12 0 23 4z" />
    <glyph glyph-name="uogonek" unicode="&#x173;" horiz-adv-x="549" 
d="M214 487l-36 -311q-3 -22 -3 -39q0 -37 17.5 -57t61.5 -20q46 0 76 20.5t57 60.5l42 337q13 7 40 7q29 0 39 -7l-40 -364q-4 -35 4.5 -45.5t30.5 -10.5q21 0 43 13q3 -19 -2.5 -41.5t-15.5 -33.5q-85 -43 -85 -103q0 -49 47 -49q10 0 22 4q18 -21 12 -58q-26 -12 -58 -12
q-44 0 -72 24t-28 73q0 67 63 108v4q-45 17 -42 79h-4q-48 -86 -161 -86q-134 0 -134 132q0 22 4 52l41 308q30 15 81 15z" />
    <glyph glyph-name="Wcircumflex" unicode="&#x174;" horiz-adv-x="872" 
d="M642 51h4q21 99 36 143l162 496q13 8 40 8q28 0 39 -8l-225 -691q-21 -7 -62 -7q-38 0 -59 7l-56 481q-12 96 -12 166h-4q-18 -95 -42 -165l-162 -482q-21 -7 -61 -7q-35 0 -58 7l-79 691q14 8 40 8q28 0 42 -8l54 -489q10 -82 10 -150h4q17 92 36 145l171 501q22 6 55 6
t55 -6l59 -494q8 -66 13 -152zM572 889l106 -88q-4 -37 -34 -56l-115 82l-143 -82q-18 23 -18 60l121 82q13 6 44 6q23 0 39 -4z" />
    <glyph glyph-name="wcircumflex" unicode="&#x175;" horiz-adv-x="714" 
d="M143 480l49 -321q8 -48 6 -108h4q93 224 143 422q41 15 114 15l57 -333q7 -38 5 -104h4q134 244 134 348q0 33 -37 33q-22 0 -45 -15q-3 41 18 66q23 19 61 19q81 0 81 -90q0 -78 -58 -209t-117 -213q-54 0 -92 13l-54 311q-9 54 -11 119h-4q-12 -75 -62 -218.5
t-92 -224.5q-64 0 -110 13l-70 472q15 11 45 11q20 0 31 -6zM285 606l115 120q22 10 70 10l95 -144q-14 -32 -48 -41l-85 115l-119 -119q-24 24 -28 59z" />
    <glyph glyph-name="Ycircumflex" unicode="&#x176;" horiz-adv-x="533" 
d="M251 250l-167 440q14 8 44 8q29 0 45 -8l101 -260q21 -52 30 -117h5q18 70 46 117l156 260q16 8 47 8q33 0 44 -8l-264 -445l-25 -241q-13 -7 -46 -7t-44 7zM411 889l106 -88q-4 -37 -34 -56l-115 82l-143 -82q-18 23 -18 60l121 82q13 6 44 6q23 0 39 -4z" />
    <glyph glyph-name="ycircumflex" unicode="&#x177;" horiz-adv-x="443" 
d="M239 41h4q59 103 103 204.5t44 152.5q0 34 -38 34q-28 0 -48 -16q-2 17 3.5 37t14.5 30q27 19 65 19q85 0 85 -89q0 -78 -63.5 -211.5t-126.5 -221.5t-125 -140.5t-146 -83.5q-29 23 -29 76q118 35 204 151l-129 492q15 11 50 11q21 0 32 -6l84 -327q16 -58 16 -112z
M164 606l115 120q22 10 70 10l95 -144q-14 -32 -48 -41l-85 115l-119 -119q-24 24 -28 59z" />
    <glyph glyph-name="Ydieresis" unicode="&#x178;" horiz-adv-x="533" 
d="M251 250l-167 440q14 8 44 8q29 0 45 -8l101 -260q21 -52 30 -117h5q18 70 46 117l156 260q16 8 47 8q33 0 44 -8l-264 -445l-25 -241q-13 -7 -46 -7t-44 7zM470 866q49 0 49 -51q0 -25 -15 -39.5t-39 -14.5q-22 0 -35.5 13t-13.5 38t14.5 39.5t39.5 14.5zM266 866
q49 0 49 -51q0 -25 -15 -39.5t-39 -14.5q-22 0 -35.5 13t-13.5 38t14.5 39.5t39.5 14.5z" />
    <glyph glyph-name="Zacute" unicode="&#x179;" horiz-adv-x="544" 
d="M565 626l-398 -542v-5h348q6 -12 6 -32q0 -29 -10 -47h-446q-12 25 -12 71l408 543v5h-325q-5 10 -5 32q0 28 9 44h415q10 -27 10 -69zM296 808l209 99q26 -24 26 -72l-221 -91q-17 23 -14 64z" />
    <glyph glyph-name="zacute" unicode="&#x17a;" horiz-adv-x="425" 
d="M429 416q-128 -190 -260 -337v-4h229q5 -7 5 -31t-8 -44h-336q-12 27 -12 63q172 185 285 343v4h-234q2 42 16 72h301q14 -26 14 -66zM419 710l-153 -156q-32 10 -42 42l122 144q50 0 73 -30z" />
    <glyph glyph-name="Zdotaccent" unicode="&#x17b;" horiz-adv-x="544" 
d="M565 626l-398 -542v-5h348q6 -12 6 -32q0 -29 -10 -47h-446q-12 25 -12 71l408 543v5h-325q-5 10 -5 32q0 28 9 44h415q10 -27 10 -69zM368 877q22 0 36 -13t14 -39q0 -27 -16 -42.5t-42 -15.5q-49 0 -49 52q0 28 15 43t42 15z" />
    <glyph glyph-name="zdotaccent" unicode="&#x17c;" horiz-adv-x="425" 
d="M429 416q-128 -190 -260 -337v-4h229q5 -7 5 -31t-8 -44h-336q-12 27 -12 63q172 185 285 343v4h-234q2 42 16 72h301q14 -26 14 -66zM291 682q22 0 35.5 -13t13.5 -38t-15.5 -40t-39.5 -15q-48 0 -48 51q0 26 14 40.5t40 14.5z" />
    <glyph glyph-name="Zcaron" unicode="&#x17d;" horiz-adv-x="544" 
d="M565 626l-398 -542v-5h348q6 -12 6 -32q0 -29 -10 -47h-446q-12 25 -12 71l408 543v5h-325q-5 10 -5 32q0 28 9 44h415q10 -27 10 -69zM258 903l107 -81l138 81q29 -18 31 -54l-132 -88q-13 -5 -41 -5q-25 0 -37 5l-108 92q10 33 42 50z" />
    <glyph glyph-name="zcaron" unicode="&#x17e;" horiz-adv-x="425" 
d="M429 416q-128 -190 -260 -337v-4h229q5 -7 5 -31t-8 -44h-336q-12 27 -12 63q172 185 285 343v4h-234q2 42 16 72h301q14 -26 14 -66zM250 557l-92 147q18 28 52 33l78 -109l112 112q32 -8 41 -40l-121 -134q-27 -9 -70 -9z" />
    <glyph glyph-name="longs" unicode="&#x17f;" horiz-adv-x="253" 
d="M62 -151l87 725q12 98 51.5 136.5t104.5 38.5q49 0 79 -21q10 -14 12.5 -38t-2.5 -44q-35 28 -79 28q-42 0 -62 -24.5t-25 -75.5l-80 -725q-11 -7 -43 -7t-43 7z" />
    <glyph glyph-name="uni018F" unicode="&#x18f;" horiz-adv-x="649" 
d="M84 215q0 92 34 161h433q-2 264 -213 264q-99 0 -167 -43q-2 47 23 80q62 41 169 41q136 0 206.5 -89.5t70.5 -243.5q0 -78 -19 -148.5t-57 -130t-102.5 -94.5t-147.5 -35q-115 0 -172.5 64.5t-57.5 173.5zM322 56q95 0 151 68t72 177h-359q-13 -33 -13 -83
q0 -71 35.5 -116.5t113.5 -45.5z" />
    <glyph glyph-name="florin" unicode="&#x192;" horiz-adv-x="402" 
d="M89 290h114l15 73q22 106 61.5 147t107.5 41q49 0 80 -20q23 -38 12 -83q-36 29 -80 29q-48 0 -69 -27t-32 -84l-14 -76h112q4 -10 4 -23q0 -28 -10 -44h-119l-36 -189q-12 -63 -30 -104t-42.5 -60t-47 -25.5t-54.5 -6.5q-48 0 -82 17q-12 16 -15.5 42.5t1.5 48.5
q41 -29 85 -29q47 0 66 27t32 85l40 194h-116q2 36 17 67z" />
    <glyph glyph-name="uni01B5" unicode="&#x1b5;" horiz-adv-x="550" 
d="M497 316h-156l-170 -232v-5h348q6 -12 6 -32q0 -29 -10 -47h-446q-12 25 -12 71l184 245h-107q-5 10 -5 29q0 29 10 43h156l170 226v5h-325q-5 10 -5 32q0 28 9 44h415q10 -27 10 -69l-175 -238h108q5 -10 5 -29q0 -29 -10 -43z" />
    <glyph glyph-name="uni01B6" unicode="&#x1b6;" horiz-adv-x="431" 
d="M114 277h122q42 51 99 129v4h-234q2 42 16 72h301q14 -26 14 -66q-53 -79 -99 -139h64q5 -7 5 -24q0 -27 -8 -39h-109q-42 -55 -113 -135v-4h229q5 -7 5 -31t-8 -44h-336q-12 27 -12 63q90 98 134 151h-84q0 38 14 63z" />
    <glyph glyph-name="Aringacute" unicode="&#x1fa;" horiz-adv-x="611" 
d="M302 927l199 93q23 -21 23 -63l-210 -85q-15 20 -12 55zM399 862q47 0 74 -24.5t27 -71.5q0 -72 -58 -103l156 -658q-11 -8 -43 -8q-33 0 -44 8l-45 196h-269l-88 -196q-12 -8 -46 -8t-43 8l295 661q-38 26 -38 79q0 51 33 84t89 33zM228 276h223l-45 194q-21 88 -28 176
h-5q-26 -97 -61 -178zM396 811q-27 0 -45 -16t-18 -44q0 -24 14 -37t37 -13q27 0 44 17.5t17 43.5q0 23 -13 36t-36 13z" />
    <glyph glyph-name="aringacute" unicode="&#x1fb;" horiz-adv-x="544" 
d="M467 811l-184 -75q-13 23 -9 52l163 79q25 -20 30 -56zM501 456l-39 -342q-4 -35 4.5 -45.5t30.5 -10.5q21 0 43 13q3 -19 -2.5 -41.5t-15.5 -33.5q-22 -16 -61 -16q-80 0 -79 82h-4q-47 -82 -151 -82q-154 0 -154 198q0 135 66 225q73 99 211 99q88 0 151 -46zM382 133
l35 281q-25 17 -71 17q-91 0 -139 -63q-49 -64 -49 -178q0 -67 23.5 -98.5t75.5 -31.5q73 0 125 73zM360 729q43 0 67 -23.5t24 -67.5q0 -48 -29 -79.5t-81 -31.5q-43 0 -67 23.5t-24 67.5q0 48 29.5 79.5t80.5 31.5zM356 680q-25 0 -40 -15.5t-15 -41.5q0 -47 44 -47
q26 0 41 16t15 43q0 45 -45 45z" />
    <glyph glyph-name="AEacute" unicode="&#x1fc;" horiz-adv-x="920" 
d="M600 620l-25 -228h297q6 -10 6 -30q0 -29 -10 -45h-300l-26 -238h331q6 -10 6 -32q0 -31 -9 -47h-423l25 216h-225l-144 -210q-13 -8 -55 -8q-37 0 -46 8l479 689h441q6 -10 6 -30q0 -29 -10 -45h-318zM444 508l-149 -217h185l39 338h-4q-34 -68 -71 -121zM488 808
l209 99q26 -24 26 -72l-221 -91q-17 23 -14 64z" />
    <glyph glyph-name="aeacute" unicode="&#x1fd;" horiz-adv-x="756" 
d="M761 382q0 -78 -74 -128.5t-249 -55.5q0 -79 27 -110t91 -31q91 0 169 61q1 -21 -6 -47t-19 -39q-67 -52 -166 -52q-110 0 -157 81h-4q-56 -81 -164 -81q-65 0 -106 32.5t-41 102.5q0 81 56 129t149 48q56 0 97 -15l5 32q9 59 -11 88.5t-85 29.5q-70 0 -140 -44
q-5 17 1.5 42t18.5 41q55 36 141 36q112 0 137 -86q73 86 189 86q67 0 104 -31.5t37 -88.5zM232 56q74 0 127 64q-5 24 -5 62v26q-38 15 -83 15q-57 0 -91.5 -24t-34.5 -70q0 -73 87 -73zM444 268q238 4 238 109q0 55 -70 55q-79 0 -128 -66q-29 -40 -40 -98zM580 710
l-153 -156q-32 10 -42 42l122 144q51 0 73 -30z" />
    <glyph glyph-name="Oslashacute" unicode="&#x1fe;" horiz-adv-x="704" 
d="M93 298q0 83 19.5 156.5t58 133.5t103 95t147.5 35q115 0 180 -66l87 100q44 -13 57 -53l-96 -110q40 -77 40 -193q0 -61 -10.5 -118t-35.5 -112.5t-61.5 -96.5t-94.5 -66.5t-129 -25.5q-114 0 -181 65l-93 -106q-44 17 -54 56l100 115q-37 77 -37 191zM414 640
q-62 0 -108.5 -30.5t-72.5 -81t-38.5 -107.5t-12.5 -118q0 -71 18 -124l346 405q-48 56 -132 56zM600 395q0 75 -18 124l-346 -407q46 -54 128 -54q52 0 93.5 21.5t67.5 55.5t43.5 79.5t24.5 90t7 90.5zM364 808l209 99q26 -24 26 -72l-221 -91q-17 23 -14 64z" />
    <glyph glyph-name="oslashacute" unicode="&#x1ff;" horiz-adv-x="529" 
d="M322 502q76 0 122 -39l56 65q37 -10 50 -42l-64 -74q29 -50 29 -131q0 -132 -58 -213q-63 -88 -184 -88q-77 0 -127 39l-69 -80q-28 23 -33 63l60 70q-26 49 -26 125q0 108 44 188q30 54 81.5 85.5t118.5 31.5zM430 277q0 37 -8 67l-223 -262q30 -28 79 -28q73 0 113 62
q39 59 39 161zM319 430q-87 0 -126 -80q-30 -60 -30 -148q0 -34 6 -60l223 260q-28 28 -73 28zM467 710l-153 -156q-32 10 -42 42l122 144q50 0 73 -30z" />
    <glyph glyph-name="Scommaaccent" unicode="&#x218;" horiz-adv-x="525" 
d="M511 583q-76 58 -163 58q-64 0 -102 -27.5t-38 -83.5q0 -39 22 -66.5t55 -41.5t71.5 -32.5t71.5 -38t55 -59.5t22 -96q0 -105 -66 -162t-190 -57q-106 0 -179 39q-13 17 -18 45.5t0 53.5q87 -57 200 -57q75 0 120 31t45 98q0 48 -30.5 79t-73.5 49t-86 38.5t-73.5 62
t-30.5 105.5q0 92 57.5 144.5t162.5 52.5q93 0 152 -44q12 -16 16.5 -43t-0.5 -48zM301 -48q-7 -55 -26.5 -111t-43.5 -91q-39 4 -55 32q36 74 46 154q28 16 79 16z" />
    <glyph glyph-name="scommaaccent" unicode="&#x219;" horiz-adv-x="405" 
d="M54 96q26 -18 66.5 -30t78.5 -12q104 0 104 75q0 29 -21 49t-50.5 32.5t-59 27.5t-50.5 44.5t-21 73.5q0 67 42 106.5t119 39.5q72 0 117 -34q10 -14 14 -39t0 -45q-60 47 -123 47q-87 0 -87 -66q0 -28 21 -47t51 -31.5t60 -27.5t51 -44.5t21 -73.5q0 -76 -50.5 -118.5
t-139.5 -42.5q-90 0 -142 31q-9 18 -9 43t8 42zM243 -46q-16 -119 -69 -199q-38 4 -53 31q35 69 45 151q30 17 77 17z" />
    <glyph glyph-name="uni021A" unicode="&#x21a;" horiz-adv-x="530" 
d="M577 618h-200l-64 -614q-13 -7 -45 -7q-34 0 -45 7l71 614h-199q-6 12 -6 31q0 30 10 46h482q6 -12 6 -31q0 -30 -10 -46zM299 -48q-7 -55 -26.5 -111t-43.5 -91q-39 4 -55 32q36 74 46 154q28 16 79 16z" />
    <glyph glyph-name="uni021B" unicode="&#x21b;" horiz-adv-x="344" 
d="M88 482h61l15 114q32 21 80 21l-16 -135h130q6 -10 6 -31q0 -28 -9 -44h-136l-30 -258q-6 -46 6.5 -68t53.5 -22q49 0 89 34q7 -48 -19 -83q-42 -30 -101 -30q-62 0 -89.5 28.5t-27.5 84.5q0 22 4 52l34 262h-67q0 45 16 75zM250 -46q-16 -119 -69 -199q-38 4 -53 31
q35 69 45 151q30 17 77 17z" />
    <glyph glyph-name="uni0237" unicode="&#x237;" horiz-adv-x="239" 
d="M223 478l-49 -429q-12 -105 -55.5 -170.5t-115.5 -119.5q-40 13 -47 61q55 41 88.5 91.5t43.5 130.5l56 436q13 7 40 7q29 0 39 -7z" />
    <glyph glyph-name="uni0259" unicode="&#x259;" horiz-adv-x="479" 
d="M63 105q0 180 328 187q-1 74 -26 105.5t-86 31.5q-93 0 -170 -58q-1 20 6.5 44t17.5 37q65 50 162 50q179 0 179 -209q0 -146 -78 -233q-33 -37 -83 -58.5t-106 -21.5q-70 0 -107 32.5t-37 92.5zM346 115q31 42 40 109q-124 -1 -183.5 -31t-59.5 -83q0 -58 72 -58
q38 0 73.5 17t57.5 46z" />
    <glyph glyph-name="uni02BB" unicode="&#x2bb;" horiz-adv-x="199" 
d="M110 501q19 112 81 214q29 19 79 19q-63 -116 -79 -230q-15 -9 -47 -9q-25 0 -34 6z" />
    <glyph glyph-name="afii57929" unicode="&#x2bc;" horiz-adv-x="199" 
d="M161 717q31 16 84 16q-8 -66 -34 -136t-57 -111q-41 6 -57 34q50 85 64 197z" />
    <glyph glyph-name="circumflex" unicode="&#x2c6;" horiz-adv-x="434" 
d="M147 606l115 120q22 10 70 10l95 -144q-14 -32 -48 -41l-85 115l-119 -119q-24 24 -28 59z" />
    <glyph glyph-name="caron" unicode="&#x2c7;" horiz-adv-x="434" 
d="M247 557l-92 147q18 28 52 33l78 -109l112 112q32 -8 41 -40l-121 -134q-27 -9 -70 -9z" />
    <glyph glyph-name="breve" unicode="&#x2d8;" horiz-adv-x="434" 
d="M212 724q-4 -100 74 -100q72 0 99 96q37 0 55 -19q-34 -142 -161 -142q-62 0 -95 36.5t-34 99.5q21 26 62 29z" />
    <glyph glyph-name="dotaccent" unicode="&#x2d9;" horiz-adv-x="434" 
d="M291 682q22 0 35.5 -13t13.5 -38t-15.5 -40t-39.5 -15q-48 0 -48 51q0 26 14 40.5t40 14.5z" />
    <glyph glyph-name="ring" unicode="&#x2da;" horiz-adv-x="434" 
d="M301 751q43 0 67 -23.5t24 -67.5q0 -48 -29 -79.5t-81 -31.5q-44 0 -67.5 23.5t-23.5 67.5q0 48 29.5 79.5t80.5 31.5zM297 702q-25 0 -40 -15.5t-15 -41.5q0 -47 44 -47q26 0 41 16t15 43q0 45 -45 45z" />
    <glyph glyph-name="ogonek" unicode="&#x2db;" horiz-adv-x="434" 
d="M274 -152q18 -21 12 -58q-26 -12 -58 -12q-44 0 -72 24t-28 73q0 91 98 133q38 10 94 10q-46 -18 -80.5 -50t-34.5 -75q0 -49 47 -49q10 0 22 4z" />
    <glyph glyph-name="tilde" unicode="&#x2dc;" horiz-adv-x="434" 
d="M225 617q-34 0 -48 -48q-31 5 -45 36q10 37 35.5 58.5t60.5 21.5q38 0 71 -26t53 -26q36 0 42 42q34 0 54 -15q-8 -44 -33 -69.5t-64 -25.5q-35 0 -69 26t-57 26z" />
    <glyph glyph-name="hungarumlaut" unicode="&#x2dd;" horiz-adv-x="434" 
d="M300 716l-124 -161q-36 7 -46 34l101 154q43 0 69 -27zM467 716l-124 -161q-36 7 -46 34l101 154q44 0 69 -27z" />
    <glyph glyph-name="gravecomb" unicode="&#x300;" horiz-adv-x="1" 
d="M-88 742l89 -152q-18 -27 -50 -34l-111 156q28 30 72 30z" />
    <glyph glyph-name="acutecomb" unicode="&#x301;" horiz-adv-x="1" 
d="M1 710l-153 -156q-32 10 -42 42l122 144q51 0 73 -30z" />
    <glyph glyph-name="uni0302" unicode="&#x302;" horiz-adv-x="1" 
d="M-279 606l115 120q22 10 70 10l95 -144q-14 -32 -48 -41l-85 115l-119 -119q-24 24 -28 59z" />
    <glyph glyph-name="tildecomb" unicode="&#x303;" horiz-adv-x="1" 
d="M-222 617q-34 0 -48 -48q-31 5 -45 36q10 37 35.5 58.5t60.5 21.5q29 0 50.5 -13t38.5 -26t35 -13q36 0 42 42q34 0 54 -15q-8 -44 -33 -69.5t-64 -25.5q-35 0 -69 26t-57 26z" />
    <glyph glyph-name="uni0304" unicode="&#x304;" horiz-adv-x="1" 
d="M-253 654h249q5 -8 5 -26q0 -27 -7 -39h-263q0 36 16 65z" />
    <glyph glyph-name="uni0306" unicode="&#x306;" horiz-adv-x="1" 
d="M-227 724q-4 -100 74 -100q72 0 99 96q37 0 55 -19q-34 -142 -161 -142q-62 0 -95 36.5t-34 99.5q21 26 62 29z" />
    <glyph glyph-name="uni0307" unicode="&#x307;" horiz-adv-x="1" 
d="M-48 682q22 0 35.5 -13t13.5 -38t-15.5 -40t-39.5 -15q-48 0 -48 51q0 26 14 40.5t40 14.5z" />
    <glyph glyph-name="uni0308" unicode="&#x308;" horiz-adv-x="1" 
d="M-239 674q46 0 46 -48q0 -23 -14 -37t-37 -14q-45 0 -45 48q0 24 13.5 37.5t36.5 13.5zM-45 674q46 0 46 -48q0 -23 -14 -37t-37 -14q-45 0 -45 48q0 24 13.5 37.5t36.5 13.5z" />
    <glyph glyph-name="uni030A" unicode="&#x30a;" horiz-adv-x="1" 
d="M-90 751q43 0 67 -23.5t24 -67.5q0 -48 -29 -79.5t-81 -31.5q-43 0 -67 23.5t-24 67.5q0 48 29.5 79.5t80.5 31.5zM-94 702q-25 0 -40 -15.5t-15 -41.5q0 -47 44 -47q26 0 41 16t15 43q0 45 -45 45z" />
    <glyph glyph-name="uni030B" unicode="&#x30b;" horiz-adv-x="1" 
d="M-166 716l-124 -161q-36 7 -46 34l101 154q43 0 69 -27zM1 716l-124 -161q-36 7 -46 34l101 154q44 0 69 -27z" />
    <glyph glyph-name="uni030C" unicode="&#x30c;" horiz-adv-x="1" 
d="M-190 557l-92 147q18 28 52 33l78 -109l112 112q32 -8 41 -40l-121 -134q-27 -9 -70 -9z" />
    <glyph glyph-name="uni0312" unicode="&#x312;" horiz-adv-x="1" 
d="M-126 564q10 78 58 163q26 18 69 18q-38 -77 -53 -178q-12 -9 -45 -9q-21 0 -29 6z" />
    <glyph glyph-name="uni0313" unicode="&#x313;" horiz-adv-x="1" 
d="M1 726q-7 -53 -25.5 -106t-41.5 -87q-37 4 -53 31q33 65 43 146q28 16 77 16z" />
    <glyph glyph-name="uni0326" unicode="&#x326;" horiz-adv-x="1" 
d="M1 -46q-16 -119 -69 -199q-38 4 -53 31q35 69 45 151q30 17 77 17z" />
    <glyph glyph-name="uni0394" unicode="&#x394;" horiz-adv-x="594" 
d="M560 0h-513q-11 28 -11 73l285 624q20 6 56 6q31 0 53 -6l150 -624q0 -37 -20 -73zM489 82l-93 398q-17 76 -24 163h-5q-23 -87 -59 -166l-177 -395h358z" />
    <glyph glyph-name="uni03A9" unicode="&#x3a9;" horiz-adv-x="732" 
d="M49 81h171v5q-50 30 -80.5 98.5t-30.5 157.5q0 71 22 137t62.5 120t105 86.5t143.5 32.5q127 0 197.5 -80t70.5 -217q0 -108 -42 -199.5t-130 -135.5v-5h162q6 -12 6 -33q0 -33 -10 -48h-260q-14 36 -6 79q93 49 142 134t49 195q0 65 -16.5 115t-59.5 83.5t-109 33.5
q-78 0 -134 -47t-80.5 -114.5t-24.5 -144.5q0 -88 33.5 -154t92.5 -101q0 -41 -20 -79h-258q-6 12 -6 33q0 33 10 48z" />
    <glyph glyph-name="uni03BC" unicode="&#x3bc;" horiz-adv-x="561" 
d="M49 -229l90 701q30 15 81 15l-37 -311q-3 -22 -3 -39q0 -77 81 -77q47 0 78 20.5t59 60.5l43 337q13 7 40 7q29 0 39 -7l-40 -364q-4 -35 4.5 -45.5t30.5 -10.5q21 0 43 13q3 -19 -2.5 -41.5t-15.5 -33.5q-22 -16 -60 -16q-78 0 -75 76h-4q-44 -76 -142 -76
q-87 0 -100 52h-4q5 -43 -7 -147l-13 -114q-11 -7 -43 -7t-43 7z" />
    <glyph glyph-name="pi" unicode="&#x3c0;" horiz-adv-x="519" 
d="M71 482h479q6 -10 6 -31q0 -28 -9 -44h-89l-34 -293q-4 -35 4.5 -45.5t30.5 -10.5q21 0 43 13q3 -19 -2.5 -41.5t-15.5 -33.5q-24 -16 -60 -16q-48 0 -67.5 23.5t-19.5 67.5q0 19 3 40l39 296h-159l-46 -403q-11 -7 -43 -7q-31 0 -42 7l51 403h-85q0 45 16 75z" />
    <glyph glyph-name="Wgrave" unicode="&#x1e80;" horiz-adv-x="872" 
d="M642 51h4q21 99 36 143l162 496q13 8 40 8q28 0 39 -8l-225 -691q-21 -7 -62 -7q-38 0 -59 7l-56 481q-12 96 -12 166h-4q-18 -95 -42 -165l-162 -482q-21 -7 -61 -7q-35 0 -58 7l-79 691q14 8 40 8q28 0 42 -8l54 -489q10 -82 10 -150h4q17 92 36 145l171 501q22 6 55 6
t55 -6l59 -494q8 -66 13 -152zM418 902l176 -100q-3 -36 -27 -58l-196 92q11 42 47 66z" />
    <glyph glyph-name="wgrave" unicode="&#x1e81;" horiz-adv-x="714" 
d="M143 480l49 -321q8 -48 6 -108h4q93 224 143 422q41 15 114 15l57 -333q7 -38 5 -104h4q134 244 134 348q0 33 -37 33q-22 0 -45 -15q-3 41 18 66q23 19 61 19q81 0 81 -90q0 -78 -58 -209t-117 -213q-54 0 -92 13l-54 311q-9 54 -11 119h-4q-12 -75 -62 -218.5
t-92 -224.5q-64 0 -110 13l-70 472q15 11 45 11q20 0 31 -6zM388 742l89 -152q-18 -27 -50 -34l-111 156q28 30 72 30z" />
    <glyph glyph-name="Wacute" unicode="&#x1e82;" horiz-adv-x="872" 
d="M642 51h4q21 99 36 143l162 496q13 8 40 8q28 0 39 -8l-225 -691q-21 -7 -62 -7q-38 0 -59 7l-56 481q-12 96 -12 166h-4q-18 -95 -42 -165l-162 -482q-21 -7 -61 -7q-35 0 -58 7l-79 691q14 8 40 8q28 0 42 -8l54 -489q10 -82 10 -150h4q17 92 36 145l171 501q22 6 55 6
t55 -6l59 -494q8 -66 13 -152zM457 808l209 99q26 -24 26 -72l-221 -91q-17 23 -14 64z" />
    <glyph glyph-name="wacute" unicode="&#x1e83;" horiz-adv-x="714" 
d="M143 480l49 -321q8 -48 6 -108h4q93 224 143 422q41 15 114 15l57 -333q7 -38 5 -104h4q134 244 134 348q0 33 -37 33q-22 0 -45 -15q-3 41 18 66q23 19 61 19q81 0 81 -90q0 -78 -58 -209t-117 -213q-54 0 -92 13l-54 311q-9 54 -11 119h-4q-12 -75 -62 -218.5
t-92 -224.5q-64 0 -110 13l-70 472q15 11 45 11q20 0 31 -6zM554 710l-153 -156q-32 10 -42 42l122 144q51 0 73 -30z" />
    <glyph glyph-name="Wdieresis" unicode="&#x1e84;" horiz-adv-x="872" 
d="M674 866q49 0 49 -51q0 -25 -15 -39.5t-39 -14.5q-22 0 -35.5 13t-13.5 38t14.5 39.5t39.5 14.5zM383 866q49 0 49 -51q0 -25 -15 -39.5t-39 -14.5q-22 0 -35.5 13t-13.5 38t14.5 39.5t39.5 14.5zM642 51h4q21 99 36 143l162 496q13 8 40 8q28 0 39 -8l-225 -691
q-21 -7 -62 -7q-38 0 -59 7l-56 481q-12 96 -12 166h-4q-18 -95 -42 -165l-162 -482q-21 -7 -61 -7q-35 0 -58 7l-79 691q14 8 40 8q28 0 42 -8l54 -489q10 -82 10 -150h4q17 92 36 145l171 501q22 6 55 6t55 -6l59 -494q8 -66 13 -152z" />
    <glyph glyph-name="wdieresis" unicode="&#x1e85;" horiz-adv-x="714" 
d="M303 674q46 0 46 -48q0 -23 -14 -37t-37 -14q-45 0 -45 48q0 24 13.5 37.5t36.5 13.5zM553 674q46 0 46 -48q0 -23 -14 -37t-37 -14q-45 0 -45 48q0 24 13.5 37.5t36.5 13.5zM143 480l49 -321q8 -48 6 -108h4q93 224 143 422q41 15 114 15l57 -333q7 -38 5 -104h4
q134 244 134 348q0 33 -37 33q-22 0 -45 -15q-3 41 18 66q23 19 61 19q81 0 81 -90q0 -78 -58 -209t-117 -213q-54 0 -92 13l-54 311q-9 54 -11 119h-4q-12 -75 -62 -218.5t-92 -224.5q-64 0 -110 13l-70 472q15 11 45 11q20 0 31 -6z" />
    <glyph glyph-name="uni1E8A" unicode="&#x1e8a;" horiz-adv-x="572" 
d="M222 689l95 -191q18 -36 28 -74h4q20 45 42 75l136 190q13 9 47 9q32 0 44 -9l-235 -330l175 -354q-9 -8 -44 -8t-50 8l-110 227q-19 39 -27 72h-4q-20 -41 -44 -74l-162 -225q-13 -8 -51 -8q-37 0 -46 8l267 369l-152 315q12 9 43 9q29 0 44 -9zM395 877q22 0 36 -13
t14 -39q0 -27 -16 -42.5t-42 -15.5q-49 0 -49 52q0 28 15 43t42 15z" />
    <glyph glyph-name="uni1E8B" unicode="&#x1e8b;" horiz-adv-x="464" 
d="M270 309q9 28 32 57l88 115q13 5 35 5q35 0 50 -11l-174 -227q46 -119 70 -155.5t62 -36.5q29 0 49 17q4 -19 -1.5 -43t-16.5 -35q-19 -15 -55 -15q-33 0 -57.5 13.5t-45 45.5t-34 64.5t-33.5 91.5h-4q-8 -28 -32 -58l-104 -134q-15 -7 -54 -7q-33 0 -43 7l209 264
l-86 208q15 11 48 11q23 0 34 -6l44 -115q10 -25 15 -56h4zM312 682q22 0 35.5 -13t13.5 -38t-15.5 -40t-39.5 -15q-48 0 -48 51q0 26 14 40.5t40 14.5z" />
    <glyph glyph-name="Ygrave" unicode="&#x1ef2;" horiz-adv-x="533" 
d="M251 250l-167 440q14 8 44 8q29 0 45 -8l101 -260q21 -52 30 -117h5q18 70 46 117l156 260q16 8 47 8q33 0 44 -8l-264 -445l-25 -241q-13 -7 -46 -7t-44 7zM262 902l176 -100q-3 -36 -27 -58l-196 92q11 42 47 66z" />
    <glyph glyph-name="ygrave" unicode="&#x1ef3;" horiz-adv-x="443" 
d="M239 41h4q59 103 103 204.5t44 152.5q0 34 -38 34q-28 0 -48 -16q-2 17 3.5 37t14.5 30q27 19 65 19q85 0 85 -89q0 -78 -63.5 -211.5t-126.5 -221.5t-125 -140.5t-146 -83.5q-29 23 -29 76q118 35 204 151l-129 492q15 11 50 11q21 0 32 -6l84 -327q16 -58 16 -112z
M267 742l89 -152q-18 -27 -50 -34l-111 156q28 30 72 30z" />
    <glyph glyph-name="uni2007" unicode="&#x2007;" horiz-adv-x="574" 
 />
    <glyph glyph-name="uni2008" unicode="&#x2008;" horiz-adv-x="221" 
 />
    <glyph glyph-name="uni200B" unicode="&#x200b;" horiz-adv-x="0" 
 />
    <glyph glyph-name="endash" unicode="&#x2013;" horiz-adv-x="500" 
d="M93 304h380q6 -10 6 -30q0 -29 -10 -45h-393q0 44 17 75z" />
    <glyph glyph-name="emdash" unicode="&#x2014;" horiz-adv-x="1000" 
d="M93 304h880q6 -10 6 -30q0 -29 -10 -45h-893q0 44 17 75z" />
    <glyph glyph-name="quoteleft" unicode="&#x2018;" horiz-adv-x="199" 
d="M110 501q19 112 81 214q29 19 79 19q-63 -116 -79 -230q-15 -9 -47 -9q-25 0 -34 6z" />
    <glyph glyph-name="quoteright" unicode="&#x2019;" horiz-adv-x="199" 
d="M161 717q31 16 84 16q-8 -66 -34 -136t-57 -111q-41 6 -57 34q50 85 64 197z" />
    <glyph glyph-name="quotesinglbase" unicode="&#x201a;" horiz-adv-x="199" 
d="M78 72q31 16 85 16q-9 -66 -35 -136.5t-57 -112.5q-42 4 -58 34q51 88 65 199z" />
    <glyph glyph-name="quotereversed" unicode="&#x201b;" horiz-adv-x="199" 
d="M220 495q-23 -23 -63 -27q-19 39 -31.5 102t-11.5 124q29 22 78 22q-8 -118 28 -221z" />
    <glyph glyph-name="quotedblleft" unicode="&#x201c;" horiz-adv-x="356" 
d="M107 501q19 116 81 214q29 19 78 19q-63 -116 -79 -230q-17 -9 -46 -9q-25 0 -34 6zM265 501q19 116 81 214q29 19 78 19q-63 -116 -79 -230q-17 -9 -46 -9q-25 0 -34 6z" />
    <glyph glyph-name="quotedblright" unicode="&#x201d;" horiz-adv-x="356" 
d="M161 717q31 16 83 16q-8 -66 -34 -136t-57 -111q-40 6 -56 34q50 85 64 197zM319 717q31 16 83 16q-8 -66 -34 -136t-57 -111q-40 6 -56 34q50 85 64 197z" />
    <glyph glyph-name="quotedblbase" unicode="&#x201e;" horiz-adv-x="356" 
d="M78 72q31 16 84 16q-9 -66 -35 -136.5t-57 -112.5q-41 4 -57 34q51 88 65 199zM236 72q31 16 84 16q-9 -66 -35 -136.5t-57 -112.5q-41 4 -57 34q51 88 65 199z" />
    <glyph glyph-name="dagger" unicode="&#x2020;" horiz-adv-x="500" 
d="M107 482h155l21 209q22 11 51 11q19 0 31 -5l-26 -215h163q4 -10 4 -27q0 -29 -9 -43h-166l-67 -577q-9 -6 -34 -6q-24 0 -33 6l58 577h-163q0 40 15 70z" />
    <glyph glyph-name="daggerdbl" unicode="&#x2021;" horiz-adv-x="500" 
d="M71 183h161l23 229h-163q0 40 15 70h155l21 209q22 11 51 11q19 0 31 -5l-26 -215h163q4 -10 4 -27q0 -29 -9 -43h-166l-27 -229h168q4 -10 4 -27q0 -29 -9 -43h-171l-32 -278q-9 -6 -34 -6q-24 0 -33 6l28 278h-169q0 40 15 70z" />
    <glyph glyph-name="bullet" unicode="&#x2022;" horiz-adv-x="359" 
d="M216 360q48 0 77.5 -29t29.5 -84t-33 -88.5t-87 -33.5q-48 0 -76.5 29.5t-28.5 83.5q0 57 31.5 89.5t86.5 32.5z" />
    <glyph glyph-name="ellipsis" unicode="&#x2026;" horiz-adv-x="663" 
d="M120 102q24 0 39 -14.5t15 -41.5q0 -28 -17 -44.5t-44 -16.5q-24 0 -38.5 14.5t-14.5 41.5q0 28 16 44.5t44 16.5zM341 102q24 0 39 -14.5t15 -41.5q0 -28 -17 -44.5t-44 -16.5q-24 0 -38.5 14.5t-14.5 41.5q0 28 16 44.5t44 16.5zM562 102q24 0 39 -14.5t15 -41.5
q0 -28 -17 -44.5t-44 -16.5q-24 0 -38.5 14.5t-14.5 41.5q0 28 16 44.5t44 16.5z" />
    <glyph glyph-name="perthousand" unicode="&#x2030;" horiz-adv-x="1195" 
d="M696 537l-432 -575q-19 4 -34 16t-21 29l422 552q42 0 65 -22zM234 551q63 0 98 -37.5t35 -105.5q0 -76 -42 -128t-121 -52q-64 0 -98 36.5t-34 104.5q0 78 42 130t120 52zM229 491q-42 0 -65.5 -35t-23.5 -82q0 -40 18 -62t50 -22q43 0 67 34t24 82q0 41 -18 63t-52 22z
M689 303q63 0 98 -37.5t35 -105.5q0 -76 -42 -128t-121 -52q-64 0 -98 36.5t-34 104.5q0 78 42 130t120 52zM684 243q-42 0 -65.5 -35t-23.5 -82q0 -40 18 -62t50 -22q43 0 67 34t24 82q0 41 -18 63t-52 22zM1054 303q63 0 98 -37.5t35 -105.5q0 -76 -42 -128t-121 -52
q-64 0 -98 36.5t-34 104.5q0 78 42 130t120 52zM1049 243q-42 0 -65.5 -35t-23.5 -82q0 -40 18 -62t50 -22q43 0 67 34t24 82q0 41 -18 63t-52 22z" />
    <glyph glyph-name="guilsinglleft" unicode="&#x2039;" horiz-adv-x="303" 
d="M172 255q27 -96 68 -188q-25 -25 -71 -31q-52 104 -85 217q47 91 117 188q34 18 91 18q-72 -108 -120 -204z" />
    <glyph glyph-name="guilsinglright" unicode="&#x203a;" horiz-adv-x="303" 
d="M142 36q-42 3 -62 37q70 103 111 182q-31 105 -66 185q28 20 70 20q52 -108 83 -209q-57 -105 -136 -215z" />
    <glyph glyph-name="uni203E" unicode="&#x203e;" horiz-adv-x="500" 
d="M-1 732h505q5 -10 5 -30q0 -27 -8 -43h-518q0 41 16 73z" />
    <glyph glyph-name="fraction" unicode="&#x2044;" horiz-adv-x="174" 
d="M427 677l-525 -710q-43 8 -56 46l517 689q42 -1 64 -25z" />
    <glyph glyph-name="uni2070" unicode="&#x2070;" horiz-adv-x="385" 
d="M271 772q64 0 99 -42t35 -125q0 -32 -5 -62.5t-17.5 -62t-31.5 -55.5t-50.5 -39t-70.5 -15q-133 0 -133 167q0 96 43.5 165t130.5 69zM264 710q-27 0 -47 -17.5t-30 -45t-14.5 -54.5t-4.5 -54q0 -104 68 -104q27 0 47 17.5t30.5 45.5t15.5 55.5t5 53.5q0 49 -18 76
t-52 27z" />
    <glyph glyph-name="uni2074" unicode="&#x2074;" horiz-adv-x="385" 
d="M374 753l-23 -218h43q5 -8 5 -26q0 -22 -8 -36h-46l-10 -88q-12 -7 -36 -7q-25 0 -36 7l12 88h-171q-12 23 -12 61l197 234q53 0 85 -15zM284 534l14 113q4 34 11 55h-4l-130 -167v-4q11 3 36 3h73z" />
    <glyph glyph-name="uni2075" unicode="&#x2075;" horiz-adv-x="385" 
d="M175 763h230q0 -33 -12 -63h-167l-15 -81q13 5 44 5q60 0 93 -28.5t33 -86.5q0 -68 -45.5 -103t-128.5 -35q-53 0 -87 15q-20 30 -12 71q39 -21 106 -21q96 0 96 66q0 61 -89 61q-49 0 -87 -14z" />
    <glyph glyph-name="uni2076" unicode="&#x2076;" horiz-adv-x="385" 
d="M188 590h4q25 40 88 40q55 0 83.5 -31t28.5 -86q0 -62 -38.5 -102t-109.5 -40q-133 0 -133 152q0 104 52 176.5t152 72.5q45 0 68 -16q20 -24 12 -66q-35 22 -78 22q-51 0 -84.5 -32t-44.5 -90zM258 568q-43 0 -75 -37q-2 -8 -2 -26q0 -34 18 -53t50 -19q33 0 53 20.5
t20 51.5q0 30 -16.5 46.5t-47.5 16.5z" />
    <glyph glyph-name="uni2077" unicode="&#x2077;" horiz-adv-x="385" 
d="M334 699h-193q2 36 15 64h250q10 -24 10 -54q-131 -179 -182 -323q-14 -8 -43 -8q-25 0 -37 7q57 157 180 310v4z" />
    <glyph glyph-name="uni2078" unicode="&#x2078;" horiz-adv-x="385" 
d="M318 586v-4q66 -25 66 -91q0 -55 -41.5 -87.5t-110.5 -32.5q-58 0 -95 24t-37 76q0 85 93 111v4q-54 19 -54 78q0 50 37.5 79t96.5 29q51 0 85 -22.5t34 -67.5q0 -34 -19.5 -59.5t-54.5 -36.5zM249 553q-79 -22 -79 -73q0 -24 18 -37t48 -13q33 0 55.5 16t22.5 43
q0 23 -15.5 37t-49.5 27zM260 615q66 14 66 61q0 41 -57 41q-28 0 -46 -13t-18 -37q0 -21 13 -31t42 -21z" />
    <glyph glyph-name="uni2079" unicode="&#x2079;" horiz-adv-x="385" 
d="M329 557h-4q-29 -40 -87 -40q-53 0 -80.5 30t-27.5 84q0 63 38.5 102t106.5 39q129 0 129 -153q0 -45 -11 -86.5t-33.5 -79t-64.5 -60t-97 -22.5q-53 0 -80 17q-10 13 -13.5 35t-0.5 39q40 -28 96 -28q105 0 129 123zM261 579q43 0 74 40q1 4 1 13q0 79 -65 79
q-32 0 -51.5 -19.5t-19.5 -51.5q0 -28 16 -44.5t45 -16.5z" />
    <glyph glyph-name="uni2080" unicode="&#x2080;" horiz-adv-x="385" 
d="M233 298q64 0 99 -42t35 -125q0 -32 -5 -62.5t-17.5 -62t-31.5 -55.5t-50.5 -39t-70.5 -15q-133 0 -133 167q0 96 43.5 165t130.5 69zM226 236q-27 0 -47 -17.5t-30 -45t-14.5 -54.5t-4.5 -54q0 -104 68 -104q27 0 47 17.5t30.5 45.5t15.5 55.5t5 53.5q0 49 -18 76
t-52 27z" />
    <glyph glyph-name="uni2081" unicode="&#x2081;" horiz-adv-x="385" 
d="M174 -89l36 309l-97 -18q3 38 19 63q53 23 156 32l-39 -386q-14 -7 -39 -7t-36 7z" />
    <glyph glyph-name="uni2082" unicode="&#x2082;" horiz-adv-x="385" 
d="M123 264q37 34 106 34q55 0 86 -26t31 -76q0 -116 -163 -219v-4h149q5 -10 5 -30q0 -25 -7 -37h-255q-8 19 -8 58q14 11 46.5 34.5l56 42t49 43t39.5 50t14 49.5q0 49 -66 49q-47 0 -96 -34q-5 37 13 66z" />
    <glyph glyph-name="uni2083" unicode="&#x2083;" horiz-adv-x="385" 
d="M152 131h8q46 0 81 14.5t35 49.5q0 41 -60 41q-51 0 -96 -27q-3 12 2.5 33.5t15.5 32.5q33 23 97 23q115 0 115 -93q0 -38 -20.5 -64t-57.5 -34v-3q70 -16 70 -88q0 -59 -45.5 -89t-117.5 -30q-53 0 -93 15q-20 27 -14 72q48 -22 107 -22q89 0 89 55q0 29 -26 41.5
t-86 12.5h-8q-4 10 -3 29.5t7 30.5z" />
    <glyph glyph-name="uni2084" unicode="&#x2084;" horiz-adv-x="385" 
d="M337 279l-23 -218h43q5 -8 5 -26q0 -22 -8 -36h-46l-10 -88q-12 -7 -36 -7q-26 0 -36 7l12 88h-171q-12 23 -12 61l197 234q54 0 85 -15zM247 60l14 113q4 34 11 55h-4l-130 -167v-4q10 3 36 3h73z" />
    <glyph glyph-name="uni2085" unicode="&#x2085;" horiz-adv-x="385" 
d="M135 289h230q0 -33 -12 -63h-167l-15 -81q13 5 44 5q60 0 93 -28.5t33 -86.5q0 -68 -45.5 -103t-128.5 -35q-53 0 -87 15q-20 30 -12 71q38 -21 106 -21q96 0 96 66q0 61 -89 61q-49 0 -87 -14z" />
    <glyph glyph-name="uni2086" unicode="&#x2086;" horiz-adv-x="385" 
d="M148 116h4q25 40 88 40q55 0 83.5 -31t28.5 -86q0 -62 -38.5 -102t-109.5 -40q-133 0 -133 152q0 104 52 176.5t152 72.5q45 0 68 -16q20 -24 12 -66q-35 22 -78 22q-51 0 -84.5 -32t-44.5 -90zM218 94q-43 0 -75 -37q-2 -8 -2 -26q0 -34 18 -53t50 -19q33 0 53 20.5
t20 51.5q0 30 -16.5 46.5t-47.5 16.5z" />
    <glyph glyph-name="uni2087" unicode="&#x2087;" horiz-adv-x="385" 
d="M288 225h-193q2 36 15 64h250q10 -24 10 -54q-131 -179 -182 -323q-14 -8 -43 -8q-25 0 -37 7q57 157 180 310v4z" />
    <glyph glyph-name="uni2088" unicode="&#x2088;" horiz-adv-x="385" 
d="M281 112v-4q66 -25 66 -91q0 -55 -41.5 -87.5t-110.5 -32.5q-58 0 -95 24t-37 76q0 85 93 111v4q-54 19 -54 78q0 50 37.5 79t96.5 29q51 0 85 -22.5t34 -67.5q0 -34 -19.5 -59.5t-54.5 -36.5zM212 79q-79 -22 -79 -73q0 -24 18 -37t48 -13q33 0 55.5 16t22.5 43
q0 23 -15.5 37t-49.5 27zM223 141q66 14 66 61q0 41 -57 41q-28 0 -46 -13t-18 -37q0 -21 13 -31t42 -21z" />
    <glyph glyph-name="uni2089" unicode="&#x2089;" horiz-adv-x="385" 
d="M288 83h-4q-29 -40 -87 -40q-53 0 -80.5 30t-27.5 84q0 63 38.5 102t106.5 39q129 0 129 -153q0 -45 -11 -86.5t-33.5 -79t-64.5 -60t-97 -22.5q-53 0 -80 17q-10 13 -13.5 35t-0.5 39q40 -28 96 -28q105 0 129 123zM220 105q43 0 74 40q1 4 1 13q0 79 -65 79
q-32 0 -51.5 -19.5t-19.5 -51.5q0 -28 16 -44.5t45 -16.5z" />
    <glyph glyph-name="Euro" unicode="&#x20ac;" horiz-adv-x="512" 
d="M53 231h369q4 -8 4 -24q0 -23 -6 -35h-214q27 -112 163 -112q70 0 133 28q2 -19 -5 -42.5t-20 -37.5q-54 -28 -133 -28q-98 0 -157 49.5t-73 142.5h-75q0 31 14 59zM434 305h-377q0 31 14 59h60q29 86 96.5 136.5t170.5 50.5q68 0 115 -25q24 -35 15 -84q-57 33 -120 33
q-135 0 -186 -111h214q4 -8 4 -24q0 -23 -6 -35z" />
    <glyph glyph-name="afii61289" unicode="&#x2113;" horiz-adv-x="416" 
d="M128 281l22 200q24 212 170 212q56 0 87.5 -35.5t31.5 -101.5q0 -177 -236 -323l-5 -53q-3 -37 -2.5 -64.5t16.5 -42.5t51 -15q60 0 104 66q37 -14 52 -49q-70 -98 -171 -98q-63 0 -96 30t-36 77.5t4 106.5q-23 -16 -58 -35q-16 31 -9 79q37 20 75 46zM210 325
q68 48 110.5 101t42.5 121q0 35 -14 53.5t-38 18.5q-32 0 -54 -32t-29 -94z" />
    <glyph glyph-name="afii61352" unicode="&#x2116;" horiz-adv-x="955" 
d="M213 467l-48 -464q-12 -6 -42 -6q-31 0 -41 6l62 519q37 16 106 16l155 -342q23 -50 36 -121h4l51 452q12 7 39 7q25 0 37 -7l-55 -518q-37 -14 -110 -14l-153 347q-24 53 -37 125h-4zM823 551q64 0 99.5 -37t35.5 -110q0 -78 -42 -134t-126 -56q-66 0 -100 37t-34 107
q0 79 42.5 136t124.5 57zM819 493q-49 0 -72.5 -39.5t-23.5 -91.5q0 -88 70 -88q52 0 75.5 40.5t23.5 89.5q0 89 -73 89zM651 160h258q5 -7 5 -25q0 -22 -8 -34h-268q0 35 13 59z" />
    <glyph glyph-name="trademark" unicode="&#x2122;" horiz-adv-x="760" 
d="M358 640h-100l-28 -240q-10 -5 -31 -5q-20 0 -30 5l31 240h-101q-3 6 -3 20q0 22 8 35h259q3 -6 3 -20q0 -22 -8 -35zM763 691l-32 -291q-10 -5 -30 -5q-18 0 -28 5l31 252h-4q-16 -53 -33 -89l-76 -165q-12 -5 -36 -5t-34 5l-39 165q-11 48 -11 89h-4l-28 -252
q-10 -5 -31 -5q-18 0 -28 5l38 291q12 7 46 7q33 0 47 -7l37 -164q8 -40 10 -84h4q18 63 29 85l76 163q16 7 49 7t47 -7z" />
    <glyph glyph-name="Omega" unicode="&#x2126;" horiz-adv-x="732" 
d="M49 81h171v5q-50 30 -80.5 98.5t-30.5 157.5q0 71 22 137t62.5 120t105 86.5t143.5 32.5q127 0 197.5 -80t70.5 -217q0 -108 -42 -199.5t-130 -135.5v-5h162q6 -12 6 -33q0 -33 -10 -48h-260q-14 36 -6 79q93 49 142 134t49 195q0 65 -16.5 115t-59.5 83.5t-109 33.5
q-78 0 -134 -47t-80.5 -114.5t-24.5 -144.5q0 -88 33.5 -154t92.5 -101q0 -41 -20 -79h-258q-6 12 -6 33q0 33 10 48z" />
    <glyph glyph-name="estimated" unicode="&#x212e;" horiz-adv-x="866" 
d="M870 324h-641q-6 0 -6 -4v-194q0 -13 10 -24q45 -48 108.5 -76t133.5 -28q76 0 142 31.5t112 86.5h59q-55 -65 -137 -102t-177 -37q-165 0 -281 104.5t-116 251.5q0 149 116 254.5t281 105.5q164 0 280 -105.5t116 -254.5v-9zM725 354v194q0 16 -11 25q-98 100 -239 100
q-142 0 -241 -104q-11 -8 -11 -25v-190q0 -5 6 -5h492q4 0 4 5z" />
    <glyph glyph-name="uni2150" unicode="&#x2150;" horiz-adv-x="909" 
d="M202 292l36 309l-97 -18q3 38 19 63q53 23 156 32l-39 -386q-14 -7 -39 -7t-36 7zM777 677l-525 -710q-43 8 -56 46l517 689q42 -1 64 -25zM824 319h-193q2 36 15 64h250q10 -24 10 -54q-131 -179 -182 -323q-14 -8 -43 -8q-25 0 -37 7q57 157 180 310v4z" />
    <glyph glyph-name="uni2151" unicode="&#x2151;" horiz-adv-x="909" 
d="M202 292l36 309l-97 -18q3 38 19 63q53 23 156 32l-39 -386q-14 -7 -39 -7t-36 7zM777 677l-525 -710q-43 8 -56 46l517 689q42 -1 64 -25zM817 177h-4q-29 -40 -87 -40q-53 0 -80.5 30t-27.5 84q0 63 38.5 102t106.5 39q129 0 129 -153q0 -45 -11 -86.5t-33.5 -79
t-64.5 -60t-97 -22.5q-53 0 -80 17q-10 13 -13.5 35t-0.5 39q40 -28 96 -28q105 0 129 123zM749 199q43 0 74 40q1 4 1 13q0 79 -65 79q-32 0 -51.5 -19.5t-19.5 -51.5q0 -28 16 -44.5t45 -16.5z" />
    <glyph glyph-name="uni2152" unicode="&#x2152;" horiz-adv-x="1239" 
d="M202 292l36 309l-97 -18q3 38 19 63q53 23 156 32l-39 -386q-14 -7 -39 -7t-36 7zM777 677l-525 -710q-43 8 -56 46l517 689q42 -1 64 -25zM706 5l36 309l-97 -18q3 38 19 63q53 23 156 32l-39 -386q-14 -7 -39 -7t-36 7zM1093 392q64 0 99 -42t35 -125q0 -32 -5 -62.5
t-17.5 -62t-31.5 -55.5t-50.5 -39t-70.5 -15q-133 0 -133 167q0 96 43.5 165t130.5 69zM1086 330q-27 0 -47 -17.5t-30 -45t-14.5 -54.5t-4.5 -54q0 -104 68 -104q27 0 47 17.5t30.5 45.5t15.5 55.5t5 53.5q0 49 -18 76t-52 27z" />
    <glyph glyph-name="onethird" unicode="&#x2153;" horiz-adv-x="909" 
d="M202 292l36 309l-97 -18q3 38 19 63q53 23 156 32l-39 -386q-14 -7 -39 -7t-36 7zM777 677l-525 -710q-43 8 -56 46l517 689q42 -1 64 -25zM683 225h8q46 0 81 14.5t35 49.5q0 41 -60 41q-51 0 -96 -27q-3 12 2.5 33.5t15.5 32.5q33 23 97 23q115 0 115 -93
q0 -38 -20.5 -64t-57.5 -34v-3q70 -16 70 -88q0 -59 -45.5 -89t-117.5 -30q-53 0 -93 15q-20 27 -14 72q48 -22 107 -22q89 0 89 55q0 29 -26 41.5t-86 12.5h-8q-4 10 -3 29.5t7 30.5z" />
    <glyph glyph-name="twothirds" unicode="&#x2154;" horiz-adv-x="944" 
d="M152 645q37 34 106 34q55 0 86 -26t31 -76q0 -116 -163 -219v-4h149q5 -10 5 -30q0 -25 -7 -37h-255q-8 19 -8 58q14 11 46.5 34.5l56 42t49 43t39.5 50t14 49.5q0 49 -66 49q-47 0 -96 -34q-5 37 13 66zM812 677l-525 -710q-43 8 -56 46l517 689q42 -1 64 -25zM718 225
h8q46 0 81 14.5t35 49.5q0 41 -60 41q-51 0 -96 -27q-3 12 2.5 33.5t15.5 32.5q33 23 97 23q115 0 115 -93q0 -38 -20.5 -64t-57.5 -34v-3q70 -16 70 -88q0 -59 -45.5 -89t-117.5 -30q-53 0 -93 15q-20 27 -14 72q48 -22 107 -22q89 0 89 55q0 29 -26 41.5t-86 12.5h-8
q-4 10 -3 29.5t7 30.5z" />
    <glyph glyph-name="uni2155" unicode="&#x2155;" horiz-adv-x="909" 
d="M202 292l36 309l-97 -18q3 38 19 63q53 23 156 32l-39 -386q-14 -7 -39 -7t-36 7zM777 677l-525 -710q-43 8 -56 46l517 689q42 -1 64 -25zM669 383h230q0 -33 -12 -63h-167l-15 -81q13 5 44 5q60 0 93 -28.5t33 -86.5q0 -68 -45.5 -103t-128.5 -35q-53 0 -87 15
q-20 30 -12 71q38 -21 106 -21q96 0 96 66q0 61 -89 61q-49 0 -87 -14z" />
    <glyph glyph-name="uni2156" unicode="&#x2156;" horiz-adv-x="944" 
d="M152 645q37 34 106 34q55 0 86 -26t31 -76q0 -116 -163 -219v-4h149q5 -10 5 -30q0 -25 -7 -37h-255q-8 19 -8 58q14 11 46.5 34.5l56 42t49 43t39.5 50t14 49.5q0 49 -66 49q-47 0 -96 -34q-5 37 13 66zM812 677l-525 -710q-43 8 -56 46l517 689q42 -1 64 -25zM704 383
h230q0 -33 -12 -63h-167l-15 -81q12 5 44 5q60 0 93 -28.5t33 -86.5q0 -68 -45.5 -103t-128.5 -35q-53 0 -87 15q-20 30 -12 71q39 -21 106 -21q96 0 96 66q0 61 -89 61q-49 0 -87 -14z" />
    <glyph glyph-name="uni2157" unicode="&#x2157;" horiz-adv-x="944" 
d="M181 512h8q46 0 81 14.5t35 49.5q0 41 -60 41q-51 0 -96 -27q-3 12 2.5 33.5t15.5 32.5q33 23 97 23q115 0 115 -93q0 -38 -20.5 -64t-57.5 -34v-3q70 -16 70 -88q0 -59 -45.5 -89t-117.5 -30q-53 0 -93 15q-20 27 -14 72q48 -22 107 -22q89 0 89 55q0 29 -26 41.5
t-86 12.5h-8q-4 10 -3 29.5t7 30.5zM812 677l-525 -710q-43 8 -56 46l517 689q42 -1 64 -25zM704 383h230q0 -33 -12 -63h-167l-15 -81q12 5 44 5q60 0 93 -28.5t33 -86.5q0 -68 -45.5 -103t-128.5 -35q-53 0 -87 15q-20 30 -12 71q39 -21 106 -21q96 0 96 66q0 61 -89 61
q-49 0 -87 -14z" />
    <glyph glyph-name="uni2158" unicode="&#x2158;" horiz-adv-x="944" 
d="M361 660l-23 -218h43q5 -8 5 -26q0 -22 -8 -36h-46l-10 -88q-12 -7 -36 -7q-26 0 -36 7l12 88h-171q-12 23 -12 61l197 234q54 0 85 -15zM271 441l14 113q4 34 11 55h-4l-130 -167v-4q10 3 36 3h73zM812 677l-525 -710q-43 8 -56 46l517 689q42 -1 64 -25zM704 383h230
q0 -33 -12 -63h-167l-15 -81q12 5 44 5q60 0 93 -28.5t33 -86.5q0 -68 -45.5 -103t-128.5 -35q-53 0 -87 15q-20 30 -12 71q39 -21 106 -21q96 0 96 66q0 61 -89 61q-49 0 -87 -14z" />
    <glyph glyph-name="uni2159" unicode="&#x2159;" horiz-adv-x="909" 
d="M202 292l36 309l-97 -18q3 38 19 63q53 23 156 32l-39 -386q-14 -7 -39 -7t-36 7zM777 677l-525 -710q-43 8 -56 46l517 689q42 -1 64 -25zM680 210h4q25 40 88 40q55 0 83.5 -31t28.5 -86q0 -62 -38.5 -102t-109.5 -40q-133 0 -133 152q0 104 52 176.5t152 72.5
q45 0 68 -16q20 -24 12 -66q-35 22 -78 22q-51 0 -84.5 -32t-44.5 -90zM750 188q-43 0 -75 -37q-2 -8 -2 -26q0 -34 18 -53t50 -19q33 0 53 20.5t20 51.5q0 30 -16.5 46.5t-47.5 16.5z" />
    <glyph glyph-name="uni215A" unicode="&#x215a;" horiz-adv-x="944" 
d="M171 670h230q0 -33 -12 -63h-167l-15 -81q12 5 44 5q60 0 93 -28.5t33 -86.5q0 -68 -45.5 -103t-128.5 -35q-53 0 -87 15q-20 30 -12 71q38 -21 106 -21q96 0 96 66q0 61 -89 61q-49 0 -87 -14zM812 677l-525 -710q-43 8 -56 46l517 689q42 -1 64 -25zM715 210h4
q25 40 88 40q55 0 83.5 -31t28.5 -86q0 -62 -38.5 -102t-109.5 -40q-133 0 -133 152q0 104 52 176.5t152 72.5q45 0 68 -16q20 -24 12 -66q-35 22 -78 22q-51 0 -84.5 -32t-44.5 -90zM785 188q-43 0 -75 -37q-2 -8 -2 -26q0 -34 18 -53t50 -19q33 0 53 20.5t20 51.5
q0 30 -16.5 46.5t-47.5 16.5z" />
    <glyph glyph-name="oneeighth" unicode="&#x215b;" horiz-adv-x="909" 
d="M202 292l36 309l-97 -18q3 38 19 63q53 23 156 32l-39 -386q-14 -7 -39 -7t-36 7zM777 677l-525 -710q-43 8 -56 46l517 689q42 -1 64 -25zM812 206v-4q66 -25 66 -91q0 -55 -41.5 -87.5t-110.5 -32.5q-58 0 -95 24t-37 76q0 85 93 111v4q-54 19 -54 78q0 50 37.5 79
t96.5 29q51 0 85 -22.5t34 -67.5q0 -34 -19.5 -59.5t-54.5 -36.5zM743 173q-79 -22 -79 -73q0 -24 18 -37t48 -13q33 0 55.5 16t22.5 43q0 23 -15.5 37t-49.5 27zM754 235q66 14 66 61q0 41 -57 41q-28 0 -46 -13t-18 -37q0 -21 13 -31t42 -21z" />
    <glyph glyph-name="threeeighths" unicode="&#x215c;" horiz-adv-x="944" 
d="M181 512h8q46 0 81 14.5t35 49.5q0 41 -60 41q-51 0 -96 -27q-3 12 2.5 33.5t15.5 32.5q33 23 97 23q115 0 115 -93q0 -38 -20.5 -64t-57.5 -34v-3q70 -16 70 -88q0 -59 -45.5 -89t-117.5 -30q-53 0 -93 15q-20 27 -14 72q48 -22 107 -22q89 0 89 55q0 29 -26 41.5
t-86 12.5h-8q-4 10 -3 29.5t7 30.5zM812 677l-525 -710q-43 8 -56 46l517 689q42 -1 64 -25zM847 206v-4q66 -25 66 -91q0 -55 -41.5 -87.5t-110.5 -32.5q-58 0 -95 24t-37 76q0 85 93 111v4q-54 19 -54 78q0 50 37.5 79t96.5 29q51 0 85 -22.5t34 -67.5q0 -34 -19.5 -59.5
t-54.5 -36.5zM778 173q-79 -22 -79 -73q0 -24 18 -37t48 -13q33 0 55.5 16t22.5 43q0 23 -15.5 37t-49.5 27zM789 235q66 14 66 61q0 41 -57 41q-28 0 -46 -13t-18 -37q0 -21 13 -31t42 -21z" />
    <glyph glyph-name="fiveeighths" unicode="&#x215d;" horiz-adv-x="944" 
d="M171 670h230q0 -33 -12 -63h-167l-15 -81q12 5 44 5q60 0 93 -28.5t33 -86.5q0 -68 -45.5 -103t-128.5 -35q-53 0 -87 15q-20 30 -12 71q38 -21 106 -21q96 0 96 66q0 61 -89 61q-49 0 -87 -14zM812 677l-525 -710q-43 8 -56 46l517 689q42 -1 64 -25zM847 206v-4
q66 -25 66 -91q0 -55 -41.5 -87.5t-110.5 -32.5q-58 0 -95 24t-37 76q0 85 93 111v4q-54 19 -54 78q0 50 37.5 79t96.5 29q51 0 85 -22.5t34 -67.5q0 -34 -19.5 -59.5t-54.5 -36.5zM778 173q-79 -22 -79 -73q0 -24 18 -37t48 -13q33 0 55.5 16t22.5 43q0 23 -15.5 37
t-49.5 27zM789 235q66 14 66 61q0 41 -57 41q-28 0 -46 -13t-18 -37q0 -21 13 -31t42 -21z" />
    <glyph glyph-name="seveneighths" unicode="&#x215e;" horiz-adv-x="894" 
d="M327 606h-193q2 36 15 64h250q10 -24 10 -54q-131 -179 -182 -323q-14 -8 -43 -8q-25 0 -37 7q57 157 180 310v4zM762 677l-525 -710q-43 8 -56 46l517 689q42 -1 64 -25zM797 206v-4q66 -25 66 -91q0 -55 -41.5 -87.5t-110.5 -32.5q-58 0 -95 24t-37 76q0 85 93 111v4
q-54 19 -54 78q0 50 37.5 79t96.5 29q51 0 85 -22.5t34 -67.5q0 -34 -19.5 -59.5t-54.5 -36.5zM728 173q-79 -22 -79 -73q0 -24 18 -37t48 -13q33 0 55.5 16t22.5 43q0 23 -15.5 37t-49.5 27zM739 235q66 14 66 61q0 41 -57 41q-28 0 -46 -13t-18 -37q0 -21 13 -31t42 -21z
" />
    <glyph glyph-name="uni215F" unicode="&#x215f;" horiz-adv-x="524" 
d="M202 292l36 309l-97 -18q3 38 19 63q53 23 156 32l-39 -386q-14 -7 -39 -7t-36 7zM777 677l-525 -710q-43 8 -56 46l517 689q42 -1 64 -25z" />
    <glyph glyph-name="uni2189" unicode="&#x2189;" horiz-adv-x="944" 
d="M263 679q64 0 99 -42t35 -125q0 -32 -5 -62.5t-17.5 -62t-31.5 -55.5t-50.5 -39t-70.5 -15q-133 0 -133 167q0 96 43.5 165t130.5 69zM256 617q-27 0 -47 -17.5t-30 -45t-14.5 -54.5t-4.5 -54q0 -104 68 -104q27 0 47 17.5t30.5 45.5t15.5 55.5t5 53.5q0 49 -18 76
t-52 27zM812 677l-525 -710q-43 8 -56 46l517 689q42 -1 64 -25zM718 225h8q46 0 81 14.5t35 49.5q0 41 -60 41q-51 0 -96 -27q-3 12 2.5 33.5t15.5 32.5q33 23 97 23q115 0 115 -93q0 -38 -20.5 -64t-57.5 -34v-3q70 -16 70 -88q0 -59 -45.5 -89t-117.5 -30q-53 0 -93 15
q-20 27 -14 72q48 -22 107 -22q89 0 89 55q0 29 -26 41.5t-86 12.5h-8q-4 10 -3 29.5t7 30.5z" />
    <glyph glyph-name="arrowleft" unicode="&#x2190;" horiz-adv-x="990" 
d="M945 244h-771l331 -328q-8 -19 -24 -35t-33 -21l-423 424l422 422q17 -5 34 -21t24 -35l-332 -327h772q6 -12 6 -39q0 -28 -6 -40z" />
    <glyph glyph-name="arrowup" unicode="&#x2191;" horiz-adv-x="895" 
d="M406 -173v769l-326 -329q-19 8 -34.5 23.5t-20.5 33.5l423 423l422 -422q-5 -18 -20.5 -34t-34.5 -24l-325 329v-769q-13 -7 -42 -7t-42 7z" />
    <glyph glyph-name="arrowright" unicode="&#x2192;" horiz-adv-x="990" 
d="M816 244h-771q-6 12 -6 40q0 27 6 39h772l-332 327q7 19 24 35t34 21l422 -422l-423 -424q-17 5 -33 21t-24 35z" />
    <glyph glyph-name="arrowdown" unicode="&#x2193;" horiz-adv-x="895" 
d="M489 731v-769l326 329q19 -8 34.5 -23.5t20.5 -33.5l-423 -423l-422 422q5 18 20.5 34t34.5 24l325 -329v769q13 7 42 7t42 -7z" />
    <glyph glyph-name="arrowboth" unicode="&#x2194;" horiz-adv-x="1451" 
d="M1278 244h-1105l312 -308q-8 -19 -24 -35t-33 -21l-403 404l402 402q17 -5 34 -21t24 -35l-312 -308h1105l-313 309q7 19 24 35t34 21l403 -403l-403 -404q-17 5 -33 21t-24 35z" />
    <glyph glyph-name="arrowupdn" unicode="&#x2195;" horiz-adv-x="888" 
d="M485 793v-1018l307 310q19 -8 34.5 -23.5t20.5 -33.5l-403 -403l-402 402q5 18 20.5 34t34.5 24l306 -310v1018l-307 -310q-19 8 -34.5 23.5t-20.5 33.5l403 403l403 -402q-5 -18 -20.5 -34t-34.5 -24z" />
    <glyph glyph-name="uni2196" unicode="&#x2196;" horiz-adv-x="850" 
d="M752 -13l-569 568l2 -460q-13 -6 -42 -6q-27 0 -41 6v600h598q7 -10 7 -38q0 -27 -7 -38l-466 2l576 -575q-5 -18 -22.5 -35t-35.5 -24z" />
    <glyph glyph-name="uni2197" unicode="&#x2197;" horiz-adv-x="850" 
d="M667 555l-569 -568q-18 7 -35.5 24t-22.5 35l576 575l-466 -2q-7 11 -7 38t7 38h598v-600q-14 -6 -41 -6q-29 0 -42 6z" />
    <glyph glyph-name="uni2198" unicode="&#x2198;" horiz-adv-x="850" 
d="M98 708l569 -568l-2 460q13 6 42 6q27 0 41 -6v-600h-598q-7 10 -7 38t7 38l466 -2l-576 575q5 18 22.5 35t35.5 24z" />
    <glyph glyph-name="uni2199" unicode="&#x2199;" horiz-adv-x="850" 
d="M183 140l569 568q18 -7 35.5 -24t22.5 -35l-576 -575l466 2q7 -10 7 -38t-7 -38h-598v600q13 6 41 6q29 0 42 -6z" />
    <glyph glyph-name="partialdiff" unicode="&#x2202;" horiz-adv-x="508" 
d="M417 295q-47 63 -123 63q-72 0 -114 -48t-42 -122q0 -60 28.5 -94.5t79.5 -34.5q73 0 115.5 66t55.5 170zM174 729q40 25 106 25q104 0 165 -79.5t61 -254.5q0 -80 -14 -153.5t-43 -140t-83 -106.5t-127 -40q-85 0 -133.5 52t-48.5 144q0 104 60.5 181.5t166.5 77.5
q96 0 135 -63h5q3 29 3 65q0 129 -42.5 186.5t-124.5 57.5q-54 0 -104 -26q-4 16 1.5 38.5t16.5 35.5z" />
    <glyph glyph-name="Delta" unicode="&#x2206;" horiz-adv-x="594" 
d="M560 0h-513q-11 28 -11 73l285 624q20 6 56 6q31 0 53 -6l150 -624q0 -37 -20 -73zM489 82l-93 398q-17 76 -24 163h-5q-23 -87 -59 -166l-177 -395h358z" />
    <glyph glyph-name="product" unicode="&#x220f;" horiz-adv-x="770" 
d="M589 -161v774h-324v-774q-13 -7 -45 -7q-33 0 -46 7v774h-99q-7 14 -7 41t7 41h705q7 -14 7 -41t-7 -41h-100v-774q-13 -7 -45 -7q-33 0 -46 7z" />
    <glyph glyph-name="summation" unicode="&#x2211;" horiz-adv-x="571" 
d="M154 -83h435q7 -14 7 -42q0 -27 -7 -41h-526q-13 35 -13 82l287 352l-261 353q0 44 12 74h493q7 -14 7 -41t-7 -41h-402v-4q30 -27 68 -77l200 -266l-222 -270q-31 -38 -71 -75v-4z" />
    <glyph glyph-name="minus" unicode="&#x2212;" 
d="M93 312h447q7 -11 7 -40t-7 -40h-460q0 52 13 80z" />
    <glyph glyph-name="uni2219" unicode="&#x2219;" 
d="M324 389q48 0 77.5 -29t29.5 -84t-33 -88.5t-87 -33.5q-48 0 -76.5 29.5t-28.5 83.5q0 57 31.5 89.5t86.5 32.5z" />
    <glyph glyph-name="radical" unicode="&#x221a;" horiz-adv-x="523" 
d="M174 434l102 -291q20 -54 32 -143h4q12 87 31 144l215 644q51 0 82 -25l-272 -813q-38 -13 -107 -13l-145 401l-70 -19q0 50 13 83z" />
    <glyph glyph-name="infinity" unicode="&#x221e;" horiz-adv-x="806" 
d="M433 207q-98 -119 -212 -119q-75 0 -116.5 46t-41.5 118q0 81 50.5 136.5t136.5 55.5q110 0 192 -120q94 120 208 120q74 0 115 -45.5t41 -116.5q0 -81 -51 -138t-133 -57q-60 0 -104.5 31.5t-84.5 88.5zM394 264q-19 28 -31 43.5t-30.5 33t-39 25.5t-45.5 8
q-50 0 -80.5 -32t-30.5 -84q0 -45 25 -71.5t69 -26.5q81 0 163 104zM481 268q39 -55 71.5 -82t74.5 -27q47 0 76.5 33.5t29.5 82.5q0 46 -26 72t-68 26q-80 0 -158 -105z" />
    <glyph glyph-name="integral" unicode="&#x222b;" horiz-adv-x="314" 
d="M354 803q16 -32 16 -84q-29 16 -64 16q-49 0 -68 -36.5t-19 -108.5t14 -265t14 -270q0 -111 -35 -174t-126 -63q-54 0 -83 20q0 47 27 77q21 -13 49 -13q47 0 64 35t17 110q0 74 -13 268.5t-13 272.5q0 228 157 228q36 0 63 -13z" />
    <glyph glyph-name="approxequal" unicode="&#x2248;" 
d="M92 368q38 66 129 66q45 0 103 -26t95 -26q50 0 76 40q37 -14 48 -43q-40 -73 -133 -73q-45 0 -102 26t-94 26q-61 0 -96 -53q-23 26 -26 63zM92 168q38 66 129 66q45 0 103 -26t95 -26q50 0 76 40q37 -14 48 -43q-40 -73 -133 -73q-45 0 -102 26t-94 26q-61 0 -96 -53
q-23 26 -26 63z" />
    <glyph glyph-name="notequal" unicode="&#x2260;" 
d="M98 408h254l56 89q38 0 63 -18l-44 -71h108q6 -12 6 -38t-6 -38h-151l-76 -123h227q6 -12 6 -38t-6 -38h-271l-64 -104q-37 6 -53 35l42 69h-104q0 50 13 76h135l76 123h-224q0 50 13 76z" />
    <glyph glyph-name="lessequal" unicode="&#x2264;" 
d="M109 75h400q6 -12 6 -38q0 -23 -6 -37h-412q0 51 12 75zM131 418l294 194q36 -13 66 -50l-282 -179v-4l279 -177q-4 -20 -17.5 -39t-31.5 -26l-319 208q0 50 11 73z" />
    <glyph glyph-name="greaterequal" unicode="&#x2265;" 
d="M502 353l-323 -214q-36 19 -46 67l272 173v4l-275 175q23 34 66 51l296 -193q10 -23 10 -63zM118 75h400q6 -12 6 -38q0 -23 -6 -37h-412q0 51 12 75z" />
    <glyph glyph-name="dotmath" unicode="&#x22c5;" 
d="M319 331q24 0 39 -14.5t15 -41.5q0 -28 -17 -44.5t-44 -16.5q-24 0 -38.5 14.5t-14.5 41.5q0 28 16 44.5t44 16.5z" />
    <glyph glyph-name="H18543" unicode="&#x25aa;" 
d="M58 0l59 482h450l-50 -482h-459z" />
    <glyph glyph-name="H18551" unicode="&#x25ab;" 
d="M58 0l59 482h450l-50 -482h-459zM183 408l-38 -331h301l39 331h-302z" />
    <glyph glyph-name="uni25B8" unicode="&#x25b8;" 
d="M76 -32q6 282 66 545q89 -42 227 -126t208 -140q-89 -62 -247 -150t-254 -129z" />
    <glyph glyph-name="uni25B9" unicode="&#x25b9;" 
d="M76 -32q6 282 66 545q89 -42 227 -126t208 -140q-89 -62 -247 -150t-254 -129zM152 82q63 28 161.5 80.5t147.5 85.5q-46 34 -132.5 85.5t-139.5 74.5q-30 -164 -37 -326z" />
    <glyph glyph-name="uni25C2" unicode="&#x25c2;" 
d="M490 -32q-87 40 -223.5 126.5t-210.5 147.5q84 58 240 143t255 128q-7 -319 -61 -545z" />
    <glyph glyph-name="uni25C3" unicode="&#x25c3;" 
d="M490 -32q-87 40 -223.5 126.5t-210.5 147.5q84 58 240 143t255 128q-7 -319 -61 -545zM440 78q33 168 39 329q-57 -24 -155 -77t-150 -87q44 -35 128.5 -87.5t137.5 -77.5z" />
    <glyph glyph-name="lozenge" unicode="&#x25ca;" horiz-adv-x="504" 
d="M140 341l60 -130q40 -87 55 -166h4q31 78 98 182l83 130l-45 98q-55 118 -70 188h-5q-35 -86 -86 -162zM50 345l234 353q32 12 90 12l157 -362l-235 -359q-34 -11 -89 -11z" />
    <glyph glyph-name="circle" unicode="&#x25cb;" 
d="M336 502q102 0 164.5 -61.5t62.5 -169.5q0 -119 -75.5 -205t-200.5 -86q-102 0 -161 61t-59 172q0 128 75 208.5t194 80.5zM330 424q-82 0 -132.5 -56t-50.5 -147q0 -78 38.5 -120t108.5 -42q86 0 137.5 60.5t51.5 145.5q0 75 -42 117t-111 42z" />
    <glyph glyph-name="H18533" unicode="&#x25cf;" 
d="M336 502q102 0 164.5 -61.5t62.5 -169.5q0 -119 -75.5 -205t-200.5 -86q-102 0 -161 61t-59 172q0 128 75 208.5t194 80.5z" />
    <glyph glyph-name="uniFB00" unicode="&#xfb00;" horiz-adv-x="575" 
d="M231 482h199l12 99q12 96 55 135.5t110 39.5q56 0 89 -24q10 -14 12.5 -38t-2.5 -44q-40 31 -88 31t-69.5 -23.5t-27.5 -76.5l-11 -99h122q6 -10 6 -31q0 -28 -9 -44h-127l-62 -558q-11 -7 -43 -7t-43 7l67 558h-198l-45 -403q-11 -7 -43 -7q-31 0 -42 7l49 403h-69
q0 45 16 75h62l10 82q12 97 52 135.5t106 38.5q52 0 80 -21q22 -34 10 -82q-33 28 -77 28t-64.5 -24t-26.5 -72z" />
    <glyph glyph-name="fi" unicode="&#xfb01;" horiz-adv-x="531" 
d="M88 482h62l7 58q26 216 213 216q68 0 114 -32q23 -31 13 -82q-58 40 -123 40q-58 0 -94 -31t-44 -112l-6 -57h114q6 -10 6 -31q0 -28 -9 -44h-119l-62 -558q-11 -7 -43 -7t-43 7l67 558h-69q0 45 16 75zM491 478l-41 -364q-4 -35 4.5 -45.5t30.5 -10.5q21 0 43 13
q3 -19 -2.5 -41.5t-15.5 -33.5q-24 -16 -61 -16q-48 0 -67.5 23.5t-19.5 67.5q0 19 3 40l47 367q13 7 40 7q29 0 39 -7z" />
    <glyph glyph-name="fl" unicode="&#xfb02;" horiz-adv-x="545" 
d="M88 482h62l6 54q24 220 215 220q90 0 153 -51l-68 -591q-4 -34 5 -45t32 -11q29 0 54 16q3 -19 -2.5 -41.5t-15.5 -33.5q-28 -19 -70 -19q-91 0 -91 89q0 9 3 42l71 552q-28 19 -72 19q-53 0 -89 -31t-45 -112l-6 -57h110q6 -10 6 -31q0 -28 -9 -44h-115l-62 -558
q-11 -7 -43 -7t-43 7l67 558h-69q0 45 16 75z" />
    <glyph glyph-name="uniFB03" unicode="&#xfb03;" horiz-adv-x="811" 
d="M231 482h199l7 58q26 216 213 216q68 0 114 -32q23 -31 13 -82q-58 40 -123 40q-59 0 -94.5 -31t-43.5 -112l-6 -57h114q6 -10 6 -31q0 -28 -9 -44h-119l-62 -558q-11 -7 -43 -7t-43 7l67 558h-198l-45 -403q-11 -7 -43 -7q-31 0 -42 7l49 403h-69q0 45 16 75h62l10 82
q12 97 52 135.5t106 38.5q52 0 80 -21q22 -34 10 -82q-33 28 -77 28t-64.5 -24t-26.5 -72zM771 478l-41 -364q-4 -35 4.5 -45.5t30.5 -10.5q21 0 43 13q3 -19 -2.5 -41.5t-15.5 -33.5q-24 -16 -61 -16q-48 0 -67.5 23.5t-19.5 67.5q0 19 3 40l47 367q13 7 40 7q29 0 39 -7z
" />
    <glyph glyph-name="uniFB04" unicode="&#xfb04;" horiz-adv-x="825" 
d="M231 482h199l6 54q24 220 215 220q90 0 153 -51l-68 -591q-4 -34 5 -45t32 -11q29 0 54 16q3 -19 -2.5 -41.5t-15.5 -33.5q-28 -19 -70 -19q-91 0 -91 89q0 9 3 42l71 552q-28 19 -72 19q-53 0 -89 -31t-45 -112l-6 -57h110q6 -10 6 -31q0 -28 -9 -44h-115l-62 -558
q-11 -7 -43 -7t-43 7l67 558h-198l-45 -403q-11 -7 -43 -7q-31 0 -42 7l49 403h-69q0 45 16 75h62l10 82q12 97 52 135.5t106 38.5q52 0 80 -21q22 -34 10 -82q-33 28 -77 28t-64.5 -24t-26.5 -72z" />
    <glyph glyph-name="uniFB06" unicode="&#xfb06;" horiz-adv-x="740" 
d="M54 96q26 -18 66.5 -30t78.5 -12q104 0 104 75q0 29 -21 49t-50.5 32.5t-59 27.5t-50.5 44.5t-21 73.5q0 67 42 106.5t119 39.5q25 0 50 -5v4q-23 28 -23 73q0 73 48.5 115.5t133.5 42.5q160 0 160 -147q0 -38 -10 -103h133q6 -10 6 -31q0 -28 -9 -44h-136l-30 -258
q-6 -46 6.5 -68t53.5 -22q49 0 89 34q7 -48 -19 -83q-42 -30 -101 -30q-62 0 -89.5 28.5t-27.5 84.5q0 22 4 52l34 262h-67q0 45 16 75h61q10 62 10 92q0 44 -22 70t-69 26q-51 0 -80 -30t-29 -82q0 -49 24 -90q9 -15 13.5 -40t0.5 -44q-60 47 -123 47q-87 0 -87 -66
q0 -28 21 -47t51 -31.5t60 -27.5t51 -44.5t21 -73.5q0 -76 -50.5 -118.5t-139.5 -42.5q-90 0 -142 31q-9 18 -9 43t8 42z" />
    <glyph glyph-name="uniFEFF" unicode="&#xfeff;" horiz-adv-x="0" 
 />
    <glyph glyph-name="i.latn_TRK" horiz-adv-x="257" 
d="M217 478l-41 -364q-4 -35 4.5 -45.5t30.5 -10.5q21 0 43 13q3 -19 -2.5 -41.5t-15.5 -33.5q-24 -16 -61 -16q-48 0 -67.5 23.5t-19.5 67.5q0 19 3 40l47 367q13 7 40 7q29 0 39 -7zM200 707q24 0 38 -13.5t14 -40.5q0 -26 -16 -42t-42 -16q-23 0 -37 14t-14 40
q0 27 15.5 42.5t41.5 15.5z" />
    <glyph glyph-name="Ldot.latn_CAT" horiz-adv-x="540" 
d="M495 0h-406l79 691q11 7 42 7q29 0 40 -7l-63 -611h313q5 -10 5 -30q0 -30 -10 -50zM444 432q22 0 36 -13t14 -39q0 -27 -16 -42.5t-42 -15.5q-49 0 -49 52q0 28 15 43t42 15z" />
    <glyph glyph-name="ldot.latn_CAT" horiz-adv-x="358" 
d="M247 734l-71 -620q-4 -34 5 -45t32 -11q29 0 54 16q3 -19 -2.5 -41.5t-15.5 -33.5q-29 -19 -70 -19q-91 0 -91 89q0 9 3 42l78 607q28 16 78 16zM332 340q22 0 35.5 -13t13.5 -38t-15.5 -40t-39.5 -15q-48 0 -48 51q0 26 14 40.5t40 14.5z" />
    <glyph glyph-name="zero.numr" horiz-adv-x="385" 
d="M263 679q64 0 99 -42t35 -125q0 -32 -5 -62.5t-17.5 -62t-31.5 -55.5t-50.5 -39t-70.5 -15q-133 0 -133 167q0 96 43.5 165t130.5 69zM256 617q-27 0 -47 -17.5t-30 -45t-14.5 -54.5t-4.5 -54q0 -104 68 -104q27 0 47 17.5t30.5 45.5t15.5 55.5t5 53.5q0 49 -18 76
t-52 27z" />
    <glyph glyph-name="one.numr" horiz-adv-x="385" 
d="M202 292l36 309l-97 -18q3 38 19 63q53 23 156 32l-39 -386q-14 -7 -39 -7t-36 7z" />
    <glyph glyph-name="two.numr" horiz-adv-x="385" 
d="M152 645q37 34 106 34q55 0 86 -26t31 -76q0 -116 -163 -219v-4h149q5 -10 5 -30q0 -25 -7 -37h-255q-8 19 -8 58q14 11 46.5 34.5l56 42t49 43t39.5 50t14 49.5q0 49 -66 49q-47 0 -96 -34q-5 37 13 66z" />
    <glyph glyph-name="three.numr" horiz-adv-x="385" 
d="M181 512h8q46 0 81 14.5t35 49.5q0 41 -60 41q-51 0 -96 -27q-3 12 2.5 33.5t15.5 32.5q33 23 97 23q115 0 115 -93q0 -38 -20.5 -64t-57.5 -34v-3q70 -16 70 -88q0 -59 -45.5 -89t-117.5 -30q-53 0 -93 15q-20 27 -14 72q48 -22 107 -22q89 0 89 55q0 29 -26 41.5
t-86 12.5h-8q-4 10 -3 29.5t7 30.5z" />
    <glyph glyph-name="four.numr" horiz-adv-x="385" 
d="M361 660l-23 -218h43q5 -8 5 -26q0 -22 -8 -36h-46l-10 -88q-12 -7 -36 -7q-26 0 -36 7l12 88h-171q-12 23 -12 61l197 234q54 0 85 -15zM271 441l14 113q4 34 11 55h-4l-130 -167v-4q10 3 36 3h73z" />
    <glyph glyph-name="five.numr" horiz-adv-x="385" 
d="M171 670h230q0 -33 -12 -63h-167l-15 -81q12 5 44 5q60 0 93 -28.5t33 -86.5q0 -68 -45.5 -103t-128.5 -35q-53 0 -87 15q-20 30 -12 71q38 -21 106 -21q96 0 96 66q0 61 -89 61q-49 0 -87 -14z" />
    <glyph glyph-name="six.numr" horiz-adv-x="385" 
d="M180 497h4q25 40 88 40q55 0 83.5 -31t28.5 -86q0 -62 -38.5 -102t-109.5 -40q-133 0 -133 152q0 104 52 176.5t152 72.5q45 0 68 -16q20 -24 12 -66q-35 22 -78 22q-51 0 -84.5 -32t-44.5 -90zM250 475q-43 0 -75 -37q-2 -8 -2 -26q0 -34 18 -53t50 -19q33 0 53 20.5
t20 51.5q0 30 -16.5 46.5t-47.5 16.5z" />
    <glyph glyph-name="seven.numr" horiz-adv-x="385" 
d="M327 606h-193q2 36 15 64h250q10 -24 10 -54q-131 -179 -182 -323q-14 -8 -43 -8q-25 0 -37 7q57 157 180 310v4z" />
    <glyph glyph-name="eight.numr" horiz-adv-x="385" 
d="M310 493v-4q66 -25 66 -91q0 -55 -41.5 -87.5t-110.5 -32.5q-58 0 -95 24t-37 76q0 85 93 111v4q-54 19 -54 78q0 50 37.5 79t96.5 29q51 0 85 -22.5t34 -67.5q0 -34 -19.5 -59.5t-54.5 -36.5zM241 460q-79 -22 -79 -73q0 -24 18 -37t48 -13q33 0 55.5 16t22.5 43
q0 23 -15.5 37t-49.5 27zM252 522q66 14 66 61q0 41 -57 41q-28 0 -46 -13t-18 -37q0 -21 13 -31t42 -21z" />
    <glyph glyph-name="nine.numr" horiz-adv-x="385" 
d="M321 464h-4q-29 -40 -87 -40q-53 0 -80.5 30t-27.5 84q0 63 38.5 102t106.5 39q129 0 129 -153q0 -45 -11 -86.5t-33.5 -79t-64.5 -60t-97 -22.5q-53 0 -80 17q-10 13 -13.5 35t-0.5 39q40 -28 96 -28q105 0 129 123zM253 486q43 0 74 40q1 4 1 13q0 79 -65 79
q-32 0 -51.5 -19.5t-19.5 -51.5q0 -28 16 -44.5t45 -16.5z" />
    <glyph glyph-name="zero.dnom" horiz-adv-x="385" 
d="M239 392q64 0 99 -42t35 -125q0 -32 -5 -62.5t-17.5 -62t-31.5 -55.5t-50.5 -39t-70.5 -15q-133 0 -133 167q0 96 43.5 165t130.5 69zM232 330q-27 0 -47 -17.5t-30 -45t-14.5 -54.5t-4.5 -54q0 -104 68 -104q27 0 47 17.5t30.5 45.5t15.5 55.5t5 53.5q0 49 -18 76
t-52 27z" />
    <glyph glyph-name="one.dnom" horiz-adv-x="385" 
d="M182 5l36 309l-97 -18q3 38 19 63q53 23 156 32l-39 -386q-14 -7 -39 -7t-36 7z" />
    <glyph glyph-name="two.dnom" horiz-adv-x="385" 
d="M129 358q37 34 106 34q55 0 86 -26t31 -76q0 -116 -163 -219v-4h149q5 -10 5 -30q0 -25 -7 -37h-255q-8 19 -8 58q14 11 46.5 34.5l56 42t49 43t39.5 50t14 49.5q0 49 -66 49q-47 0 -96 -34q-5 37 13 66z" />
    <glyph glyph-name="three.dnom" horiz-adv-x="385" 
d="M159 225h8q46 0 81 14.5t35 49.5q0 41 -60 41q-51 0 -96 -27q-3 12 2.5 33.5t15.5 32.5q33 23 97 23q115 0 115 -93q0 -38 -20.5 -64t-57.5 -34v-3q70 -16 70 -88q0 -59 -45.5 -89t-117.5 -30q-53 0 -93 15q-20 27 -14 72q48 -22 107 -22q89 0 89 55q0 29 -26 41.5
t-86 12.5h-8q-4 10 -3 29.5t7 30.5z" />
    <glyph glyph-name="four.dnom" horiz-adv-x="385" 
d="M342 373l-23 -218h43q5 -8 5 -26q0 -22 -8 -36h-46l-10 -88q-12 -7 -36 -7q-25 0 -36 7l12 88h-171q-12 23 -12 61l197 234q53 0 85 -15zM252 154l14 113q4 34 11 55h-4l-130 -167v-4q11 3 36 3h73z" />
    <glyph glyph-name="five.dnom" horiz-adv-x="385" 
d="M145 383h230q0 -33 -12 -63h-167l-15 -81q12 5 44 5q60 0 93 -28.5t33 -86.5q0 -68 -45.5 -103t-128.5 -35q-53 0 -87 15q-20 30 -12 71q38 -21 106 -21q96 0 96 66q0 61 -89 61q-49 0 -87 -14z" />
    <glyph glyph-name="six.dnom" horiz-adv-x="385" 
d="M156 210h4q25 40 88 40q55 0 83.5 -31t28.5 -86q0 -62 -38.5 -102t-109.5 -40q-133 0 -133 152q0 104 52 176.5t152 72.5q45 0 68 -16q20 -24 12 -66q-35 22 -78 22q-51 0 -84.5 -32t-44.5 -90zM226 188q-43 0 -75 -37q-2 -8 -2 -26q0 -34 18 -53t50 -19q33 0 53 20.5
t20 51.5q0 30 -16.5 46.5t-47.5 16.5z" />
    <glyph glyph-name="seven.dnom" horiz-adv-x="385" 
d="M300 319h-193q2 36 15 64h250q10 -24 10 -54q-131 -179 -182 -323q-14 -8 -43 -8q-25 0 -37 7q57 157 180 310v4z" />
    <glyph glyph-name="eight.dnom" horiz-adv-x="385" 
d="M288 206v-4q66 -25 66 -91q0 -55 -41.5 -87.5t-110.5 -32.5q-58 0 -95 24t-37 76q0 85 93 111v4q-54 19 -54 78q0 50 37.5 79t96.5 29q51 0 85 -22.5t34 -67.5q0 -34 -19.5 -59.5t-54.5 -36.5zM219 173q-79 -22 -79 -73q0 -24 18 -37t48 -13q33 0 55.5 16t22.5 43
q0 23 -15.5 37t-49.5 27zM230 235q66 14 66 61q0 41 -57 41q-28 0 -46 -13t-18 -37q0 -21 13 -31t42 -21z" />
    <glyph glyph-name="nine.dnom" horiz-adv-x="385" 
d="M293 177h-4q-29 -40 -87 -40q-53 0 -80.5 30t-27.5 84q0 63 38.5 102t106.5 39q129 0 129 -153q0 -45 -11 -86.5t-33.5 -79t-64.5 -60t-97 -22.5q-53 0 -80 17q-10 13 -13.5 35t-0.5 39q40 -28 96 -28q105 0 129 123zM225 199q43 0 74 40q1 4 1 13q0 79 -65 79
q-32 0 -51.5 -19.5t-19.5 -51.5q0 -28 16 -44.5t45 -16.5z" />
    <glyph glyph-name="space.frac" horiz-adv-x="41" 
 />
    <glyph glyph-name="quotedbl.tf" 
d="M212 435q-41 0 -63 14q25 106 39 225q46 0 75 -15q-13 -111 -51 -224zM399 435q-41 0 -63 14q25 106 39 225q46 0 75 -15q-13 -111 -51 -224z" />
    <glyph glyph-name="numbersign.tf" 
d="M131 495h89l47 169q25 13 68 13l-48 -182h158l46 169q25 13 68 13l-46 -182h85q4 -6 4 -24q0 -21 -9 -35h-96l-43 -173h87q4 -6 4 -24q0 -21 -9 -35h-97l-51 -199q-11 -7 -39 -7q-29 0 -36 7l54 199h-157l-53 -199q-11 -7 -39 -7q-29 0 -36 7l56 199h-89q0 31 18 59h88
l48 173h-90q0 31 18 59zM271 436l-45 -173h157l46 173h-158z" />
    <glyph glyph-name="dollar.tf" 
d="M73 110q84 -57 199 -57q162 0 162 128q0 46 -30 76t-73 47t-86 36.5t-73 59.5t-30 102q0 81 48 131t135 58l9 73q29 10 69 10l-10 -83q66 -6 117 -42q10 -13 14.5 -39.5t1.5 -47.5q-74 58 -165 58q-137 0 -137 -109q0 -45 30.5 -73.5t74 -45.5t86.5 -37t73.5 -61.5
t30.5 -105.5q0 -92 -53.5 -145.5t-155.5 -63.5l-10 -94q-10 -6 -38 -6q-26 0 -37 6l11 93q-83 4 -144 39q-27 34 -19 93z" />
    <glyph glyph-name="percent.tf" horiz-adv-x="900" 
d="M791 676l-537 -707q-44 10 -57 44l527 684q40 0 67 -21zM287 691q66 0 102.5 -40.5t36.5 -117.5q0 -84 -43.5 -146t-129.5 -62q-67 0 -103 41t-36 116q0 86 44 147.5t129 61.5zM280 630q-49 0 -73 -44t-24 -99q0 -100 75 -100q50 0 74.5 44t24.5 99q0 47 -20 73.5
t-57 26.5zM725 343q66 0 102.5 -40.5t36.5 -117.5q0 -84 -43.5 -146t-129.5 -62q-67 0 -103 41t-36 116q0 86 44 147.5t129 61.5zM718 282q-49 0 -73 -44t-24 -99q0 -100 75 -100q50 0 74.5 44t24.5 99q0 47 -20 73.5t-57 26.5z" />
    <glyph glyph-name="quotesingle.tf" horiz-adv-x="350" 
d="M217 435q-41 0 -63 14q25 106 39 225q46 0 75 -15q-13 -111 -51 -224z" />
    <glyph glyph-name="comma.tf" horiz-adv-x="350" 
d="M137 74q33 15 87 15q-10 -69 -36 -140.5t-57 -113.5q-44 6 -61 35q53 90 67 204z" />
    <glyph glyph-name="period.tf" horiz-adv-x="350" 
d="M172 102q24 0 39 -14.5t15 -41.5q0 -28 -17 -44.5t-44 -16.5q-24 0 -38.5 14.5t-14.5 41.5q0 28 16 44.5t44 16.5z" />
    <glyph glyph-name="zero.tf" 
d="M357 693q101 0 157 -74.5t56 -219.5q0 -71 -14 -139.5t-44 -134.5t-87.5 -107t-135.5 -41q-103 0 -157 74t-54 219q0 77 15.5 149t47 135t87.5 101t129 38zM349 617q-50 0 -88 -34t-58 -87.5t-29.5 -109.5t-9.5 -111q0 -106 34.5 -162.5t98.5 -56.5q50 0 88 33.5
t58.5 87.5t30.5 110t10 111q0 105 -35 162t-100 57z" />
    <glyph glyph-name="one.tf" 
d="M112 77h161l59 517l-168 -32q5 41 23 74q35 13 105.5 29t130.5 22l-64 -610h156q6 -12 6 -33q0 -28 -9 -44h-416q0 37 16 77z" />
    <glyph glyph-name="two.tf" 
d="M173 638q69 55 176 55q90 0 142 -43.5t52 -128.5q0 -54 -23.5 -108.5t-56 -96t-85.5 -88t-92 -74.5l-96 -66v-5h326q5 -10 5 -33q0 -35 -10 -50h-425q-14 29 -14 80q28 24 89.5 70t105 82t91 82.5t73 95t25.5 95.5q0 109 -131 109q-93 0 -176 -66q-3 17 4 45t20 45z" />
    <glyph glyph-name="three.tf" 
d="M381 347q144 -27 144 -163q0 -100 -73.5 -153.5t-198.5 -53.5q-99 0 -158 26q-13 18 -18.5 44.5t-0.5 47.5q71 -38 174 -38q81 0 132.5 31.5t51.5 97.5q0 62 -51 91t-161 29h-16q-5 13 -4 37t8 37h20q41 0 77 6.5t70 20.5t54 42.5t20 68.5q0 100 -126 100q-89 0 -163 -48
q-3 17 4 43.5t21 41.5q59 38 161 38q89 0 139.5 -40t50.5 -121q0 -72 -41 -120t-116 -60v-5z" />
    <glyph glyph-name="four.tf" 
d="M470 179l-18 -174q-13 -7 -45 -7q-31 0 -42 7l20 174h-308q-12 27 -12 76l345 426q64 0 111 -22l-42 -404h80q6 -10 6 -33q0 -27 -9 -43h-86zM158 249q43 5 61 5h176l29 258q6 54 16 92h-6l-276 -350v-5z" />
    <glyph glyph-name="five.tf" 
d="M203 670h371q0 -45 -13 -79h-299l-35 -193q33 13 95 13q101 0 155 -48.5t54 -146.5q0 -116 -75 -177.5t-213 -61.5q-92 0 -146 24q-25 38 -18 91q25 -15 72 -25.5t96 -10.5q88 0 141.5 38t53.5 116q0 65 -40.5 95t-125.5 30q-71 0 -140 -22z" />
    <glyph glyph-name="six.tf" 
d="M186 336h5q49 88 170 88q94 0 141.5 -52.5t47.5 -146.5q0 -109 -62.5 -178.5t-179.5 -69.5q-215 0 -215 263q0 66 12.5 129.5t39.5 122.5t66 103.5t96 71t125 26.5q67 0 109 -24q11 -13 16.5 -40t1.5 -48q-51 36 -124 36q-96 0 -162 -73.5t-87 -207.5zM181 263
q-3 -14 -3 -41q0 -168 135 -168q70 0 110 44.5t40 115.5q0 62 -33 98t-95 36q-91 0 -154 -85z" />
    <glyph glyph-name="seven.tf" 
d="M489 590h-363q2 44 18 80h426q12 -32 12 -73q-227 -309 -332 -591q-18 -9 -53 -9q-33 0 -46 8q54 139 146 296.5t192 283.5v5z" />
    <glyph glyph-name="eight.tf" 
d="M250 356v4q-103 46 -103 147q0 85 61.5 135.5t156.5 50.5q83 0 137 -39.5t54 -116.5q0 -62 -37.5 -110t-102.5 -70v-4q125 -50 125 -165q0 -95 -70 -153t-182 -58q-90 0 -151 41.5t-61 131.5q0 77 46 129.5t127 76.5zM317 315q-66 -18 -109.5 -55.5t-43.5 -96.5
q0 -54 36 -82.5t96 -28.5q68 0 112.5 35t44.5 96q0 52 -33.5 80.5t-102.5 51.5zM348 394q56 17 92.5 50.5t36.5 83.5q0 46 -32 70.5t-84 24.5q-58 0 -96 -29t-38 -83q0 -46 29.5 -70.5t91.5 -46.5z" />
    <glyph glyph-name="nine.tf" 
d="M465 336h-6q-57 -82 -165 -82q-88 0 -134.5 52.5t-46.5 144.5q0 108 61.5 175t171.5 67q208 0 208 -265q0 -63 -10.5 -123.5t-36.5 -121t-64.5 -105.5t-99.5 -73t-136 -28q-84 0 -124 25q-12 18 -16.5 45.5t1.5 50.5q52 -41 140 -41q100 0 167.5 72t89.5 207zM471 411
q2 24 2 39q0 82 -34 125.5t-97 43.5q-65 0 -104.5 -44t-39.5 -114q0 -61 32 -95.5t92 -34.5q84 0 149 80z" />
    <glyph glyph-name="colon.tf" horiz-adv-x="350" 
d="M173 119q24 0 39 -14.5t15 -41.5q0 -28 -17 -44.5t-44 -16.5q-24 0 -38.5 14.5t-14.5 41.5q0 28 16 44.5t44 16.5zM213 481q24 0 38.5 -14t14.5 -41t-16.5 -43t-42.5 -16q-24 0 -38 14.5t-14 40.5q0 28 15.5 43.5t42.5 15.5z" />
    <glyph glyph-name="semicolon.tf" horiz-adv-x="350" 
d="M133 74q33 15 87 15q-10 -69 -36 -140.5t-57 -113.5q-44 6 -61 35q53 90 67 204zM216 481q24 0 38.5 -14t14.5 -41t-16.5 -43t-42.5 -16q-24 0 -38 14.5t-14 40.5q0 28 15.5 43.5t42.5 15.5z" />
    <glyph glyph-name="cent.tf" 
d="M533 472q-61 39 -125 39q-91 0 -141 -54t-50 -141q0 -150 156 -150q74 0 135 34q2 -20 -4.5 -43t-18.5 -35q-46 -28 -106 -32l-10 -87q-11 -6 -38 -6q-25 0 -36 6l12 89q-85 10 -131 66.5t-46 149.5q0 108 59.5 185.5t169.5 89.5l10 81q25 10 69 10l-10 -89q55 -5 89 -31
q11 -14 15.5 -38.5t0.5 -43.5z" />
    <glyph glyph-name="sterling.tf" 
d="M127 381h65q-11 41 -11 95q0 98 56 157.5t166 59.5q84 0 135 -40q10 -14 15.5 -41t1.5 -47q-65 52 -149 52q-140 0 -140 -136q0 -50 12 -100h193q5 -7 5 -27q0 -24 -8 -42h-178q6 -25 6 -60q0 -107 -97 -173v-4h343q5 -13 5 -31q0 -28 -9 -44h-416q-13 27 -13 72
q101 79 101 176q0 32 -5 64h-92q0 38 14 69z" />
    <glyph glyph-name="currency.tf" 
d="M345 549q63 0 107 -29l69 79q38 -14 52 -49l-74 -79q27 -43 27 -111q0 -101 -57 -165l54 -74q-19 -32 -62 -44l-50 72q-49 -26 -109 -26q-64 0 -105 28l-70 -77q-38 14 -54 50l76 79q-27 45 -27 113q0 101 57 163l-53 76q22 34 63 43l49 -74q49 25 107 25zM337 483
q-67 0 -103.5 -46.5t-36.5 -117.5q0 -62 28.5 -95.5t83.5 -33.5q68 0 105.5 50t37.5 117q0 59 -30 92.5t-85 33.5z" />
    <glyph glyph-name="yen.tf" 
d="M95 203h176l5 44l-32 82h-143q0 35 16 67h100l-107 270q14 8 42 8q29 0 45 -8l100 -246q20 -51 30 -119h5q18 72 47 119l154 246q16 8 46 8q32 0 42 -8l-166 -270h95q5 -8 5 -27q0 -28 -7 -40h-134l-53 -86l-4 -40h172q5 -8 5 -27q0 -28 -7 -40h-177l-14 -132
q-13 -7 -45 -7t-43 7l15 132h-184q0 35 16 67z" />
    <glyph glyph-name="section.tf" 
d="M525 232q0 -49 -24 -95t-67 -78q11 -28 11 -67q0 -85 -57.5 -136.5t-167.5 -51.5q-86 0 -147 33q-23 31 -17 84q66 -49 168 -49q68 0 105.5 29t37.5 86q0 37 -18.5 66t-45.5 47l-59.5 39.5t-59.5 43t-45.5 58t-18.5 83.5q0 106 100 176q-8 19 -8 50q0 77 51 123t142 46
q75 0 123 -35q10 -13 14 -36.5t1 -42.5q-55 50 -138 50q-56 0 -88 -24t-32 -73q0 -34 18 -60.5t44.5 -42.5l57.5 -36.5t57.5 -41.5t44.5 -58.5t18 -86.5zM449 217q0 37 -14 65t-37.5 47.5t-48.5 35t-53 35.5t-44 42q-59 -37 -59 -103q0 -43 24 -75.5t54.5 -50.5t69 -45
t58.5 -55q50 42 50 104z" />
    <glyph glyph-name="degree.tf" horiz-adv-x="350" 
d="M228 693q58 0 91 -33.5t33 -93.5q0 -66 -39.5 -112t-108.5 -46q-59 0 -91 34t-32 95q0 69 39.5 112.5t107.5 43.5zM224 633q-36 0 -57.5 -24.5t-21.5 -65.5q0 -74 62 -74q37 0 59 27.5t22 66.5q0 33 -16.5 51.5t-47.5 18.5z" />
    <glyph glyph-name="florin.tf" 
d="M139 334h146l33 171q21 105 65.5 146.5t120.5 41.5q55 0 89 -23q23 -38 12 -83q-41 32 -92 32q-55 0 -79.5 -27t-35.5 -84l-32 -174h150q4 -10 4 -23q0 -28 -10 -44h-156l-48 -264q-9 -50 -25 -87t-33.5 -57.5t-41.5 -32.5t-45 -15.5t-49 -3.5q-55 0 -92 20
q-12 16 -15.5 42.5t1.5 48.5q47 -32 99 -32q55 0 79 28t35 84l53 269h-150q2 36 17 67z" />
    <glyph glyph-name="uni2007.tf" 
 />
    <glyph glyph-name="uni2008.tf" horiz-adv-x="350" 
 />
    <glyph glyph-name="perthousand.tf" horiz-adv-x="1300" 
d="M800 676l-537 -707q-44 10 -57 44l527 684q40 0 67 -21zM296 691q66 0 102.5 -40.5t36.5 -117.5q0 -84 -43.5 -146t-129.5 -62q-67 0 -103 41t-36 116q0 86 44 147.5t129 61.5zM289 630q-49 0 -73 -44t-24 -99q0 -100 75 -100q50 0 74.5 44t24.5 99q0 47 -20 73.5
t-57 26.5zM730 343q66 0 102.5 -40.5t36.5 -117.5q0 -84 -43.5 -146t-129.5 -62q-67 0 -103 41t-36 116q0 86 44 147.5t129 61.5zM723 282q-49 0 -73 -44t-24 -99q0 -100 75 -100q50 0 74.5 44t24.5 99q0 47 -20 73.5t-57 26.5zM1120 343q66 0 102.5 -40.5t36.5 -117.5
q0 -84 -43.5 -146t-129.5 -62q-67 0 -103 41t-36 116q0 86 44 147.5t129 61.5zM1113 282q-49 0 -73 -44t-24 -99q0 -100 75 -100q50 0 74.5 44t24.5 99q0 47 -20 73.5t-57 26.5z" />
    <glyph glyph-name="Euro.tf" 
d="M73 285h390q5 -8 5 -26q0 -28 -7 -40h-247q31 -162 202 -162q76 0 154 33q4 -54 -26 -81q-68 -32 -154 -32q-113 0 -181.5 62.5t-83.5 179.5h-68q0 36 16 66zM476 387h-400q0 36 16 66h52q34 108 114 174t201 66q84 0 139 -32q10 -15 14 -39t-1 -44q-67 39 -137 39
q-92 0 -152 -44t-89 -120h245q5 -8 5 -26q0 -28 -7 -40z" />
    <glyph glyph-name="numbersign.lf" horiz-adv-x="523" 
d="M123 495h85l47 169q25 13 68 13l-48 -182h136l46 169q25 13 68 13l-46 -182h81q4 -6 4 -24q0 -21 -9 -35h-92l-43 -173h83q4 -6 4 -24q0 -21 -9 -35h-93l-51 -199q-11 -7 -39 -7q-29 0 -36 7l54 199h-135l-53 -199q-11 -7 -39 -7q-29 0 -36 7l56 199h-85q0 31 18 59h84
l48 173h-86q0 31 18 59zM259 436l-45 -173h135l46 173h-136z" />
    <glyph glyph-name="dollar.lf" horiz-adv-x="476" 
d="M35 108q84 -55 191 -55q155 0 155 128q0 46 -28.5 76t-69 47t-81 36.5t-69 59.5t-28.5 102q0 81 45.5 131t128.5 58l9 73q29 10 69 10l-9 -84q65 -6 108 -39q11 -13 15.5 -38.5t0.5 -47.5q-69 55 -155 55q-60 0 -95 -26.5t-35 -82.5q0 -39 20.5 -65.5t51.5 -39.5
t67.5 -30.5t67.5 -36t51.5 -57t20.5 -93.5q0 -93 -51.5 -146.5t-150.5 -62.5l-10 -95q-10 -6 -38 -6q-26 0 -37 6l11 93q-76 4 -136 36q-26 34 -19 94z" />
    <glyph glyph-name="percent.lf" horiz-adv-x="791" 
d="M251 691q63 0 98.5 -40.5t35.5 -117.5q0 -53 -16 -98.5t-55 -78t-95 -32.5q-65 0 -99.5 41t-34.5 117q0 85 42 147t124 62zM245 630q-47 0 -69.5 -44t-22.5 -99q0 -100 71 -100q46 0 69.5 44.5t23.5 98.5q0 47 -18.5 73.5t-53.5 26.5zM733 674l-525 -705
q-19 3 -34.5 15.5t-21.5 29.5l514 682q39 0 67 -22zM655 344q63 0 98.5 -40.5t35.5 -117.5q0 -53 -16 -98.5t-55 -78t-95 -32.5q-65 0 -99.5 41t-34.5 117q0 85 42 147t124 62zM649 283q-47 0 -69.5 -44t-22.5 -99q0 -100 71 -100q46 0 69.5 44.5t23.5 98.5q0 47 -18.5 73.5
t-53.5 26.5z" />
    <glyph glyph-name="zero.lf" horiz-adv-x="586" 
d="M365 693q101 0 156.5 -74.5t55.5 -219.5q0 -55 -7.5 -109.5t-28 -112.5t-51 -101t-80.5 -71t-113 -28q-210 0 -210 293q0 77 15.5 149t46.5 135t87 101t129 38zM357 617q-50 0 -87.5 -34t-58 -87.5t-30 -109.5t-9.5 -111q0 -105 34.5 -162t98.5 -57q50 0 88 33.5
t58.5 87.5t30.5 110t10 111q0 105 -35 162t-100 57z" />
    <glyph glyph-name="one.lf" horiz-adv-x="370" 
d="M174 4l67 590l-169 -32q3 39 23 75q89 34 236 50l-70 -683q-11 -7 -44 -7q-32 0 -43 7z" />
    <glyph glyph-name="two.lf" horiz-adv-x="488" 
d="M134 642q67 51 166 51q87 0 136 -43.5t49 -129.5q0 -54 -22 -108t-52 -95t-80 -87.5t-86.5 -75t-90.5 -66.5v-5h304q5 -10 5 -33q0 -35 -10 -50h-407q-14 29 -14 80q27 24 85 70l100 82t87 82t69.5 95t24.5 97q0 108 -123 108q-87 0 -165 -63q-2 19 5 47.5t19 43.5z" />
    <glyph glyph-name="three.lf" horiz-adv-x="506" 
d="M348 347q62 -14 99 -50t37 -111q0 -102 -70.5 -155.5t-193.5 -53.5q-93 0 -153 24q-28 41 -19 92q70 -36 168 -36q78 0 127.5 31.5t49.5 97.5q0 62 -49.5 91t-155.5 29h-11q-6 14 -5 37t8 37h16q30 0 58 3.5t57 13t50.5 24.5t35 40t13.5 57q0 100 -121 100
q-88 0 -155 -46q-3 19 4 44.5t20 40.5q58 36 155 36q87 0 135.5 -40t48.5 -122q0 -71 -38 -117.5t-111 -61.5v-5z" />
    <glyph glyph-name="four.lf" horiz-adv-x="542" 
d="M545 179h-88l-18 -175q-13 -7 -45 -7q-31 0 -42 7l20 175h-312q-12 29 -12 70l358 432q61 -2 100 -22l-42 -404h84q6 -10 6 -33q0 -27 -9 -43zM149 248q30 6 70 6h162l30 252q6 55 14 90h-4l-272 -343v-5z" />
    <glyph glyph-name="five.lf" horiz-adv-x="504" 
d="M172 670h358q0 -47 -13 -79h-286l-34 -193q30 13 90 13q96 0 148 -48.5t52 -146.5q0 -116 -73 -177.5t-207 -61.5q-84 0 -140 22q-24 39 -19 91q23 -14 69.5 -24t92.5 -10q85 0 137 37.5t52 115.5q0 65 -39 95.5t-120 30.5q-68 0 -134 -22z" />
    <glyph glyph-name="six.lf" horiz-adv-x="542" 
d="M181 339h5q49 85 166 85q90 0 136.5 -52.5t46.5 -146.5q0 -109 -61 -178.5t-176 -69.5q-210 0 -210 263q0 83 20 161.5t59 145t104.5 106.5t148.5 40q63 0 106 -22q11 -13 16.5 -40.5t1.5 -48.5q-49 35 -119 35q-94 0 -159.5 -72.5t-84.5 -205.5zM176 268q-4 -18 -4 -47
q0 -82 33.5 -124.5t96.5 -42.5q68 0 107 44.5t39 114.5q0 63 -32.5 99t-92.5 36q-86 0 -147 -80z" />
    <glyph glyph-name="seven.lf" horiz-adv-x="472" 
d="M428 590h-343q2 44 18 80h405q12 -32 12 -73q-101 -146 -185 -302t-131 -289q-18 -9 -52 -9q-33 0 -46 8q51 138 138.5 296.5t183.5 284.5v4z" />
    <glyph glyph-name="eight.lf" horiz-adv-x="546" 
d="M239 356v4q-95 47 -95 146q0 85 60 136t152 51q79 0 130.5 -39.5t51.5 -116.5q0 -62 -35 -110t-96 -70v-4q56 -24 86.5 -62.5t30.5 -102.5q0 -95 -68 -153t-177 -58q-88 0 -146 41.5t-58 132.5q0 76 43.5 128.5t120.5 76.5zM307 315q-145 -42 -145 -153q0 -54 33.5 -82
t90.5 -28q65 0 107.5 35t42.5 96q0 53 -32 81t-97 51zM339 394q52 17 86 50.5t34 83.5q0 46 -29.5 70.5t-78.5 24.5q-55 0 -90.5 -29.5t-35.5 -82.5q0 -46 28 -70.5t86 -46.5z" />
    <glyph glyph-name="nine.lf" horiz-adv-x="531" 
d="M434 333h-5q-58 -79 -158 -79q-86 0 -131 52.5t-45 143.5q0 108 60.5 175.5t167.5 67.5q204 0 204 -265q0 -63 -10.5 -123.5t-36 -121t-63.5 -105.5t-97.5 -73t-133.5 -28q-82 0 -121 24q-11 17 -16 45t0 49q54 -38 136 -38q98 0 163 71t86 205zM442 406q3 18 3 43
q0 83 -32.5 126.5t-93.5 43.5q-63 0 -101 -44.5t-38 -113.5q0 -62 31 -96t89 -34q79 0 142 75z" />
    <glyph glyph-name="cent.lf" horiz-adv-x="457" 
d="M443 195q2 -19 -5 -42.5t-19 -35.5q-38 -23 -95 -27l-10 -87q-10 -6 -38 -6q-25 0 -36 6l12 90q-79 12 -120.5 67.5t-41.5 147.5q0 108 55.5 185t157.5 90l10 81q25 10 69 10l-10 -89q49 -3 79 -25q11 -15 15.5 -39.5t-0.5 -43.5q-55 34 -112 34q-85 0 -131 -53.5
t-46 -140.5q0 -151 143 -151q61 0 123 29z" />
    <glyph glyph-name="sterling.lf" horiz-adv-x="490" 
d="M97 381h63q-11 46 -11 95q0 98 54.5 157.5t158.5 59.5q76 0 126 -36q11 -14 16 -40t0 -49q-63 49 -137 49q-67 0 -100.5 -35.5t-33.5 -100.5q0 -51 13 -100h177q5 -7 5 -27q0 -24 -8 -42h-162q5 -28 5 -60q0 -105 -95 -172v-5h319q5 -13 5 -31q0 -28 -9 -44h-393
q-12 28 -12 72q99 80 99 176q0 34 -5 64h-89q0 38 14 69z" />
    <glyph glyph-name="currency.lf" horiz-adv-x="515" 
d="M317 548q64 0 107 -29l69 79q38 -14 52 -49l-74 -79q27 -43 27 -111q0 -101 -57 -165l54 -74q-19 -32 -62 -44l-50 72q-49 -26 -109 -26q-64 0 -105 28l-70 -77q-38 14 -54 50l76 79q-27 45 -27 113q0 101 57 163l-53 76q22 34 63 43l49 -74q49 25 107 25zM309 482
q-67 0 -103.5 -46.5t-36.5 -117.5q0 -62 28.5 -95.5t83.5 -33.5q68 0 105.5 50t37.5 117q0 59 -30 92.5t-85 33.5z" />
    <glyph glyph-name="yen.lf" horiz-adv-x="510" 
d="M76 203h166l5 44l-30 82h-135q0 35 16 67h95l-98 270q14 8 42 8q29 0 45 -8l89 -246q19 -54 27 -119h5q16 72 44 119l143 246q16 8 46 8q32 0 42 -8l-157 -270h90q5 -8 5 -27q0 -28 -7 -40h-127l-50 -86l-4 -40h162q5 -8 5 -27q0 -28 -7 -40h-167l-14 -132q-13 -7 -45 -7
t-43 7l15 132h-174q0 35 16 67z" />
    <glyph glyph-name="section.lf" horiz-adv-x="465" 
d="M460 232q0 -106 -84 -174q9 -29 9 -66q0 -85 -53.5 -136.5t-157.5 -51.5q-81 0 -138 31q-23 29 -17 84q64 -47 158 -47q130 0 130 115q0 43 -23.5 75.5t-57 54.5l-67 46t-57 64.5t-23.5 96.5q0 109 92 176q-6 21 -6 50q0 78 47.5 123.5t131.5 45.5q71 0 118 -32
q10 -13 14 -36.5t1 -42.5q-54 47 -130 47q-108 0 -108 -97q0 -40 23 -69t55.5 -49.5t64.5 -43.5t55 -64.5t23 -99.5zM384 217q0 37 -13 65.5t-35 47.5t-45.5 35t-49 36t-40.5 42q-50 -40 -50 -104q0 -43 22.5 -75.5t51 -50.5t64 -45.5t54.5 -55.5q41 41 41 105z" />
    <glyph glyph-name="degree.lf" horiz-adv-x="362" 
d="M239 693q58 0 92 -33.5t34 -93.5q0 -66 -40 -112t-110 -46q-59 0 -92 34t-33 95q0 68 40 112t109 44zM235 633q-37 0 -59 -24.5t-22 -65.5q0 -35 16.5 -54.5t47.5 -19.5q38 0 60.5 27.5t22.5 66.5q0 33 -17 51.5t-49 18.5z" />
    <glyph glyph-name="florin.lf" horiz-adv-x="415" 
d="M83 334h121l33 171q21 106 61 147t109 41q50 0 81 -20q23 -38 12 -83q-36 29 -81 29q-48 0 -69.5 -27t-32.5 -84l-32 -174h128q4 -10 4 -23q0 -28 -10 -44h-134l-48 -264q-12 -63 -30 -104t-42.5 -60t-47.5 -25.5t-55 -6.5q-49 0 -83 17q-12 16 -15.5 42.5t1.5 48.5
q41 -29 86 -29q47 0 67.5 27.5t31.5 84.5l53 269h-125q2 36 17 67z" />
    <glyph glyph-name="perthousand.lf" horiz-adv-x="1167" 
d="M251 691q63 0 98.5 -40.5t35.5 -117.5q0 -53 -16 -98.5t-55 -78t-95 -32.5q-65 0 -99.5 41t-34.5 117q0 85 42 147t124 62zM245 630q-47 0 -69.5 -44t-22.5 -99q0 -100 71 -100q46 0 69.5 44.5t23.5 98.5q0 47 -18.5 73.5t-53.5 26.5zM733 674l-525 -705
q-19 3 -34.5 15.5t-21.5 29.5l514 682q39 0 67 -22zM655 344q63 0 98.5 -40.5t35.5 -117.5q0 -53 -16 -98.5t-55 -78t-95 -32.5q-65 0 -99.5 41t-34.5 117q0 85 42 147t124 62zM649 283q-47 0 -69.5 -44t-22.5 -99q0 -100 71 -100q46 0 69.5 44.5t23.5 98.5q0 47 -18.5 73.5
t-53.5 26.5zM1031 344q63 0 98.5 -40.5t35.5 -117.5q0 -53 -16 -98.5t-55 -78t-95 -32.5q-65 0 -99.5 41t-34.5 117q0 85 42 147t124 62zM1025 283q-47 0 -69.5 -44t-22.5 -99q0 -100 71 -100q46 0 69.5 44.5t23.5 98.5q0 47 -18.5 73.5t-53.5 26.5z" />
    <glyph glyph-name="Euro.lf" horiz-adv-x="546" 
d="M61 285h383q5 -8 5 -26q0 -28 -7 -40h-236q31 -162 196 -162q74 0 150 33q4 -54 -26 -81q-66 -32 -150 -32q-111 0 -177.5 62.5t-81.5 179.5h-72q0 36 16 66zM457 387h-393q0 36 16 66h56q34 108 112 174t196 66q83 0 136 -32q10 -15 14 -39t-1 -44q-66 39 -134 39
q-89 0 -148 -44.5t-87 -119.5h235q5 -8 5 -26q0 -28 -7 -40z" />
    <glyph glyph-name="quotedbl.tosf" 
d="M213 407q-41 0 -63 14q25 106 39 225q46 0 75 -15q-13 -111 -51 -224zM402 407q-41 0 -63 14q25 106 39 225q46 0 75 -15q-13 -111 -51 -224z" />
    <glyph glyph-name="numbersign.tosf" 
d="M134 418h83l31 106q23 12 68 12l-32 -118h150l30 106q23 12 68 12l-31 -118h76q4 -6 4 -24q0 -22 -9 -35h-86l-44 -168h78q4 -6 4 -24q0 -21 -9 -35h-89l-33 -127q-11 -7 -39 -7q-30 0 -37 7l36 127h-146l-35 -127q-11 -7 -39 -7q-30 0 -37 7l37 127h-81q0 31 18 59h81
l49 168h-84q0 31 18 59zM268 359l-46 -168h148l47 168h-149z" />
    </font>
</defs>
</svg>
