<?xml version="1.0" encoding="utf-8"?>
<!-- Generator: Adobe Illustrator 22.1.0, SVG Export Plug-In . SVG Version: 6.00 Build 0)  -->
<svg version="1.1" id="Layer_1" xmlns="http://www.w3.org/2000/svg" xmlns:xlink="http://www.w3.org/1999/xlink" x="0px" y="0px"
	 viewBox="0 0 308 100" style="enable-background:new 0 0 308 100;" xml:space="preserve">
<style type="text/css">
	.st0{fill:#4DBC15;}
	.st1{fill:none;}
</style>
<g>
	<g id="art">
		<g>
			<path d="M171.8,50.4c-1.6-1.6-3.5-2.9-5.7-3.8c-2.2-0.9-4.6-1.4-7.1-1.4s-4.9,0.5-7.1,1.4c-2.2,0.9-4.1,2.2-5.7,3.8
				c-1.6,1.6-2.9,3.5-3.8,5.7c-0.9,2.1-1.4,4.5-1.4,6.9c0,2.5,0.5,4.8,1.4,7s2.2,4.1,3.8,5.7s3.5,2.9,5.7,3.8s4.6,1.4,7.1,1.4
				s4.9-0.5,7.1-1.4c2.2-0.9,4.1-2.2,5.7-3.8c1.6-1.6,2.9-3.5,3.8-5.7c0.9-2.2,1.4-4.5,1.4-7s-0.5-4.8-1.4-6.9
				C174.7,53.9,173.4,52,171.8,50.4z M168.4,67.4c-0.5,1.3-1.1,2.4-2,3.4c-0.9,0.9-1.9,1.7-3.2,2.2c-1.2,0.5-2.7,0.8-4.2,0.8
				c-1.6,0-3-0.3-4.2-0.8s-2.3-1.3-3.2-2.2c-0.9-0.9-1.5-2-2-3.4c-0.5-1.3-0.7-2.8-0.7-4.4s0.2-3,0.7-4.4c0.5-1.3,1.1-2.4,2-3.4
				c0.9-0.9,1.9-1.6,3.2-2.2c1.2-0.5,2.7-0.8,4.2-0.8c1.6,0,3,0.3,4.2,0.8s2.3,1.3,3.2,2.2s1.5,2,2,3.4c0.5,1.3,0.7,2.8,0.7,4.4
				C169.1,64.6,168.8,66,168.4,67.4z"/>
			<path d="M124.7,46.3c-5-2.1-10.7-1.2-14.7,2V34h-8v46h8V61.9c0-3.4,0.9-9.2,7.5-9.2c6.1,0,7.5,5,7.5,9.2V80h8V59.4
				C133,54,129.9,48.5,124.7,46.3z"/>
			<polyline points="224,74 224,80 253,80 253,73 234.1,73 252,52.4 252,46 225,46 225,53 242.3,53 224,73.5 			"/>
			<polyline points="259,74 259,80 288,80 288,73 269.1,73 287,52.4 287,46 260,46 260,53 277.3,53 259,73.5 			"/>
			<path d="M208,46v18.6c0,1-0.1,2.1-0.4,3.1c-0.3,1-0.7,2-1.3,2.9l0,0c-0.6,0.9-1.3,1.6-2.3,2.1c-0.9,0.5-2.1,0.8-3.5,0.8
				s-2.6-0.3-3.5-0.8s-1.7-1.3-2.3-2.1c-0.6-0.9-1-1.9-1.3-2.9c-0.3-1.1-0.4-2.2-0.4-3.1V46h-8v19.3c0,7.2,3.1,12,9.4,14.4
				c1.9,0.7,3.9,1.1,6.1,1.1c2.2,0,4.2-0.4,6.1-1.1c7.7-3,9.4-9.5,9.4-14.4V46H208z"/>
			<g>
				<polygon class="st0" points="54,80 74,80 74,45.5 34,34 34,20 20,20 20,80 40,80 40,60 54,60 				"/>
			</g>
		</g>
	</g>
	<g id="clear_space">
		<rect class="st1" width="308" height="100"/>
	</g>
</g>
</svg>
