<?xml version="1.0" encoding="UTF-8"?>
<svg width="50px" height="51px" viewBox="0 0 50 51" version="1.1" xmlns="http://www.w3.org/2000/svg" xmlns:xlink="http://www.w3.org/1999/xlink">
    <title>Present</title>
    <g id="Desktop-and-Mobile-Final" stroke="none" stroke-width="1" fill="none" fill-rule="evenodd" stroke-linecap="round" stroke-linejoin="round">
        <g id="Holiday_Landing-Page_Revised" transform="translate(-695.000000, -3231.000000)" stroke="#F59E0A" stroke-width="2">
            <g id="Present" transform="translate(696.000000, 3232.000000)">
                <path d="M36.1518797,10.1867905 L36.4932331,10.0013843 C36.9233083,9.76623496 37.3924812,9.39843726 37.887218,8.9025133 C39.8857143,6.89620697 39.8857143,3.51216661 37.887218,1.51038238 C36.9142857,0.535115514 35.606015,0 34.2,0 C32.7969925,0 31.487218,0.535115514 30.5157895,1.50736764 C28.4496241,3.58150552 26.6285714,6.07318424 25.4646617,7.79761282 L24,9.9697296 L22.5353383,7.79761282 C21.3729323,6.07318424 19.5518797,3.58150552 17.4842105,1.51038238 C16.5142857,0.535115514 15.2075188,0 13.8030075,0 C12.3969925,0 11.0857143,0.535115514 10.1142857,1.51038238 C8.11428571,3.51216661 8.11428571,6.89620697 10.112782,8.8979912 C10.6090226,9.39843726 11.081203,9.77075707 11.512782,10.0043991 L11.8526316,10.1867905 M24,10.2154305 L4.70977444,10.2154305 C2.15789474,10.2154305 0,12.2548989 0,14.6697019 L0,21.6035931 C0,22.9647461 1.10676692,24.0771834 2.46766917,24.0771834 L17.7834586,24.0771834 M30.2150376,24.0771834 L45.5338346,24.0771834 C46.8932331,24.0771834 48,22.9647461 48,21.6035931 L48,14.6697019 C48,12.2548989 45.8421053,10.2154305 43.2902256,10.2154305 L24,10.2154305 M2.26466165,24.1058234 L2.26466165,44.5457286 C2.26466165,46.9605316 4.42105263,49 6.97293233,49 L24,49 M24,49 L41.0315789,49 C43.5834586,49 45.7398496,46.9605316 45.7398496,44.5457286 L45.7398496,24.1058234" id="Stroke-1"></path>
                <line x1="18" y1="10" x2="18" y2="49" id="Stroke-3"></line>
                <line x1="30" y1="10" x2="30" y2="49" id="Stroke-5"></line>
            </g>
        </g>
    </g>
</svg>