<?xml version="1.0" encoding="UTF-8"?>
<svg width="58px" height="53px" viewBox="0 0 58 53" version="1.1" xmlns="http://www.w3.org/2000/svg" xmlns:xlink="http://www.w3.org/1999/xlink">
    <title>Skate</title>
    <g id="Desktop-and-Mobile-Final" stroke="none" stroke-width="1" fill="none" fill-rule="evenodd" stroke-linecap="round" stroke-linejoin="round">
        <g id="Holiday_Landing-Page_Revised" transform="translate(-675.000000, -5752.000000)" stroke="#F59E0A" stroke-width="2">
            <g id="Skate" transform="translate(676.000000, 5753.722600)">
                <path d="M41.6563782,0 L50.9145056,0 L50.6532183,0 C53.1820515,0 55.2249821,2.04751456 55.2249821,4.57176386 L55.2249821,8.89293638 C55.2249821,10.2986926 54.0881531,11.4355216 52.6808689,11.4355216 L50.9145056,11.4355216 L41.6563782,11.4355216 L32.3997787,11.4355216 L30.6318874,11.4355216 C29.2261312,11.4355216 28.0893022,10.2986926 28.0893022,8.89293638 L28.0893022,4.57176386 C28.0893022,2.04751456 30.1322328,0 32.6610661,0 L32.3997787,0 L41.6563782,0 Z" id="Stroke-1"></path>
                <path d="M52.9328354,50 L15.6420945,50 C7.01502937,50 0,42.9834426 0,34.3594335" id="Stroke-3"></path>
                <path d="M52.9328354,11.43598 L52.9328354,18.4846253 L52.9328354,33.8272326 L52.9328354,34.2275675 C52.9328354,38.4891482 49.4749806,41.945475 45.2149279,41.945475 L27.6093587,41.945475 L15.6420945,41.945475 C11.4508016,41.945475 8.0555946,38.545684 8.0555946,34.3589751 L8.0555946,34.0151761 C8.0555946,27.8588804 13.0460293,22.8653897 19.203853,22.8653897 L25.7757635,22.8653897 C28.4558684,22.8653897 30.6317346,20.6910514 30.6317346,18.0078906 L30.6317346,11.43598" id="Stroke-5"></path>
                <line x1="19.2033946" y1="41.9451694" x2="19.2033946" y2="48.9189429" id="Stroke-7"></line>
                <line x1="41.5922023" y1="41.9451694" x2="41.5922023" y2="48.9189429" id="Stroke-9"></line>
                <line x1="8.0554418" y1="34.3589751" x2="52.9326826" y2="34.2275675" id="Stroke-11"></line>
            </g>
        </g>
    </g>
</svg>