<?xml version="1.0" encoding="UTF-8"?>
<svg width="38px" height="40px" viewBox="0 0 38 40" version="1.1" xmlns="http://www.w3.org/2000/svg" xmlns:xlink="http://www.w3.org/1999/xlink">
    <!-- Generator: Sketch 52.5 (67469) - http://www.bohemiancoding.com/sketch -->
    <title>drawing-house-plan</title>
    <desc>Created with Sketch.</desc>
    <g id="Page-1" stroke="none" stroke-width="1" fill="none" fill-rule="evenodd">
        <g id="shopping-tool2" transform="translate(-490.000000, -410.000000)" fill="#FBA347">
            <g id="Group-8" transform="translate(360.000000, 0.000000)">
                <g id="Group-3" transform="translate(76.000000, 410.000000)">
                    <g id="drawing-house-plan" transform="translate(54.000000, 0.000000)">
                        <path d="M0.226324503,4.23567881 L0.227649007,4.23700331 C0.249172185,4.2875 0.272764901,4.30968543 0.272764901,4.30968543 L0.287582781,4.2942053 L10.374255,13.9414735 L10.374255,39.3957781 L37.4986755,39.3957781 L37.4986755,1.54544702 L10.374255,1.54544702 L10.374255,5.96639073 L4.20985099,0.071192053 L4.17955298,0.10281457 C3.975,0.0281456954 2.82235099,-0.397847682 1.21746689,1.28038079 C-0.387417219,2.95860927 0.142880795,4.03451987 0.226324503,4.23567881 Z M28.3405629,27.8725166 L34.1341887,27.8725166 L34.1341887,36.0313742 L28.3405629,36.0313742 L28.3405629,27.8725166 Z M28.3405629,12.5641556 L29.9386589,12.5641556 L30.7744205,12.5641556 L33.045447,12.5641556 L33.9760762,12.5641556 L34.1341887,12.5641556 L34.1341887,27.1995861 L28.3405629,27.1995861 L28.3405629,12.5641556 Z M28.3405629,4.90993377 L29.2658113,4.90993377 L29.2658113,11.8912252 L28.3405629,11.8912252 L28.3405629,4.90993377 Z M31.4472682,4.90993377 L32.3725166,4.90993377 L32.3725166,11.8912252 L31.4472682,11.8912252 L31.4472682,4.90993377 Z M34.1341887,11.8912252 L33.9760762,11.8912252 L33.045447,11.8912252 L33.045447,4.90993377 L34.1341887,4.90993377 L34.1341887,11.8912252 Z M30.7744205,11.8912252 L29.9386589,11.8912252 L29.9386589,4.90993377 L30.7744205,4.90993377 L30.7744205,11.8912252 Z M27.6676325,11.8912252 L26.8264901,11.8912252 L26.8264901,4.90993377 L27.6676325,4.90993377 L27.6676325,11.8912252 Z M25.228394,4.90993377 L26.1536424,4.90993377 L26.1536424,11.8912252 L25.228394,11.8912252 L25.228394,4.90993377 Z M13.7386589,4.90993377 L24.5555464,4.90993377 L24.5555464,11.8912252 L21.0228477,11.8912252 L21.0228477,12.5641556 L24.5555464,12.5641556 L26.8265728,12.5641556 L27.6677152,12.5641556 L27.6677152,27.1995861 L27.6677152,27.8725166 L27.6677152,36.0313742 L23.2097682,36.0313742 L23.2097682,34.4709437 L21.8639901,34.4709437 L21.8639901,36.0313742 L13.7386589,36.0313742 L13.7387417,23.4986755 L14.7985927,23.4986755 L14.7985927,22.1528974 L13.7387417,22.1528974 L13.7387417,17.1593543 L14.3463576,17.7407285 C14.4950331,16.9965232 15.0374172,16.0807119 15.7237583,15.2974338 C16.5520695,14.3506623 17.5096026,13.673096 18.2383278,13.4879967 L13.7386589,9.18418874 L13.7386589,4.90993377 Z" id="Shape" fill-rule="nonzero"></path>
                        <path d="M16.0144868,15.4959437 C15.0663907,16.5981788 14.7050497,17.5462748 14.6868377,18.0240066 C14.681457,18.1693709 15.0077815,18.3537252 15.0656457,18.3537252 C15.0669702,18.3537252 15.0683775,18.3537252 15.0690397,18.3537252 L15.8394868,18.4459437 L16.4134934,18.5145695 L19.0337748,18.8288079 C19.0337748,18.8274834 19.0324503,18.8260762 19.0324503,18.8240894 C19.0169702,18.6283113 19.106457,18.4001656 19.2780629,18.1982616 C19.3615066,18.1006623 19.5802152,17.8840232 19.8527318,17.8644868 L19.1051325,15.3142384 L18.9436258,14.7631623 L18.7424669,14.0754967 C18.754553,13.9240894 18.5809603,13.7296358 18.5325331,13.7296358 C18.0472682,13.730298 17.0002483,14.3493377 16.0144868,15.4959437 Z M18.1771523,14.5390728 L18.2982616,14.9528974 L18.4597682,15.5039735 L19.0445364,17.4984272 C18.9153146,17.597351 18.820447,17.6982616 18.7659768,17.7629139 C18.6764901,17.8678808 18.6010762,17.9788907 18.5399007,18.0919702 L16.4936258,17.8470199 L15.9196192,17.778394 L15.4297185,17.7198675 C15.5643212,17.3067053 15.900745,16.6607616 16.5245033,15.9353477 C17.1859272,15.1649007 17.7975993,14.7362583 18.1771523,14.5390728 Z" id="Shape" fill-rule="nonzero"></path>
                        <path d="M19.4724338,18.8395695 C19.4758278,18.8442881 19.4758278,18.8516556 19.4798013,18.8557119 L20.086755,19.3637417 C20.125745,19.3960265 20.2691225,19.4424669 20.4057119,19.4424669 C20.4971854,19.4424669 20.5853477,19.421606 20.6365066,19.3624172 C20.7643212,19.2150662 20.6149834,18.8832781 20.5496689,18.8288079 L19.9427152,18.3207781 C19.9285596,18.3086921 19.9097682,18.3033113 19.8875,18.3033113 C19.8834437,18.3033113 19.8787252,18.305298 19.8747517,18.306043 C19.797351,18.3127483 19.6876656,18.3807119 19.5934603,18.4897351 C19.4738411,18.6275662 19.4259934,18.7756623 19.4724338,18.8395695 Z" id="Path"></path>
                        <polygon id="Path" points="21.8639073 24.3021523 23.2096854 24.3021523 23.2096854 22.1528974 20.9299669 22.1528974 20.9299669 23.4986755 21.8639073 23.4986755"></polygon>
                        <rect id="Rectangle" x="16.8925497" y="22.1528974" width="1.9432947" height="1.34577815"></rect>
                        <rect id="Rectangle" x="21.8639073" y="26.3961921" width="1.34577815" height="1.9432947"></rect>
                        <rect id="Rectangle" x="21.8639073" y="30.4335265" width="1.34577815" height="1.9432947"></rect>
                    </g>
                </g>
            </g>
        </g>
    </g>
</svg>