<?xml version="1.0" encoding="UTF-8"?>
<svg width="44px" height="39px" viewBox="0 0 44 39" version="1.1" xmlns="http://www.w3.org/2000/svg" xmlns:xlink="http://www.w3.org/1999/xlink">
    <!-- Generator: Sketch 52.5 (67469) - http://www.bohemiancoding.com/sketch -->
    <title>newsletter</title>
    <desc>Created with Sketch.</desc>
    <g id="Page-1" stroke="none" stroke-width="1" fill="none" fill-rule="evenodd">
        <g id="shopping-tool2" transform="translate(-1375.000000, -411.000000)" fill="#FBA347">
            <g id="Group-8" transform="translate(360.000000, 0.000000)">
                <g id="Group-3-Copy-5" transform="translate(957.000000, 411.000000)">
                    <g id="newsletter" transform="translate(58.000000, 0.000000)">
                        <path d="M43.2337991,13.1972056 L34.6243513,7.6491018 C34.5570193,7.60625416 34.4827678,7.59001996 34.4103792,7.56606786 L34.4103792,5.65256154 C34.4103792,5.1415835 33.9968064,4.72774451 33.4855622,4.72774451 L30.0518962,4.72774451 L22.8795742,0.244976713 C22.5799069,0.0570858283 22.1988024,0.0570858283 21.8988689,0.244976713 L14.7265469,4.72774451 L10.3680639,4.72774451 C9.85708583,4.72774451 9.44324684,5.14131737 9.44324684,5.65256154 L9.44324684,7.5655356 C9.37085828,7.58948769 9.29634065,7.60598802 9.22927478,7.6491018 L0.619827013,13.1972056 C0.356087824,13.3677977 0.196141051,13.6605456 0.196141051,13.9745842 L0.196141051,38.0168995 C0.196141051,38.5278776 0.609713906,38.9417166 1.12095808,38.9417166 L42.732668,38.9417166 C43.243646,38.9417166 43.657485,38.5281437 43.657485,38.0168995 L43.657485,13.9748503 C43.657485,13.6605456 43.4975383,13.3680639 43.2337991,13.1972056 Z M22.3893546,2.11989355 L26.5626081,4.72774451 L18.2161011,4.72774451 L22.3893546,2.11989355 Z M11.2928809,6.57711244 L32.5610113,6.57711244 L32.5610113,27.3829674 C32.5610113,27.3856287 32.5626081,27.3877578 32.5626081,27.3906853 L29.4344644,29.2900865 L21.9071191,25.1844311 C21.6263473,25.0327345 21.2848969,25.0335329 21.005988,25.1934797 L14.1370592,29.1186959 L11.2915502,27.3909514 C11.2915502,27.3882901 11.293147,27.386161 11.293147,27.3834997 L11.2928809,6.57711244 Z M2.04577512,14.4786427 L9.44324684,9.71217565 L9.44324684,26.2689288 L2.04577512,21.7771124 L2.04577512,14.4786427 Z M2.04577512,23.9399867 L12.3017964,30.1667332 L2.04577512,36.0275449 L2.04577512,23.9399867 Z M3.90924817,37.0926148 L21.4754491,27.055356 L39.877312,37.0926148 L3.90924817,37.0926148 Z M41.8081171,36.0389887 L31.3107119,30.3133733 L41.8081171,23.9397206 L41.8081171,36.0389887 Z M41.8081171,21.7771124 L34.4103792,26.2686627 L34.4103792,9.71217565 L41.8081171,14.4789088 L41.8081171,21.7771124 Z" id="Shape" fill-rule="nonzero"></path>
                        <path d="M14.9916168,15.8242182 L26.0880905,15.8242182 C26.5990685,15.8242182 27.0129075,15.4106454 27.0129075,14.8994012 L27.0129075,9.35129741 C27.0129075,8.84031936 26.5993347,8.42648037 26.0880905,8.42648037 L14.9916168,8.42648037 C14.4806387,8.42648037 14.0667997,8.84005323 14.0667997,9.35129741 L14.0667997,14.8994012 C14.0667997,15.4106454 14.4806387,15.8242182 14.9916168,15.8242182 Z M15.9161677,10.2758483 L25.1632735,10.2758483 L25.1632735,13.9745842 L15.9161677,13.9745842 L15.9161677,10.2758483 Z" id="Shape" fill-rule="nonzero"></path>
                        <rect id="Rectangle" x="14.0667997" y="17.6735862" width="14.7952096" height="1.84936793"></rect>
                        <rect id="Rectangle" x="14.0667997" y="21.3725882" width="14.7952096" height="1.84936793"></rect>
                    </g>
                </g>
            </g>
        </g>
    </g>
</svg>