<?xml version="1.0" encoding="UTF-8"?>
<svg width="40px" height="40px" viewBox="0 0 40 40" version="1.1" xmlns="http://www.w3.org/2000/svg" xmlns:xlink="http://www.w3.org/1999/xlink">
    <!-- Generator: Sketch 52.5 (67469) - http://www.bohemiancoding.com/sketch -->
    <title>receipt</title>
    <desc>Created with Sketch.</desc>
    <g id="Page-1" stroke="none" stroke-width="1" fill="none" fill-rule="evenodd">
        <g id="shopping-tool2" transform="translate(-777.000000, -410.000000)" fill="#FBA347">
            <g id="Group-8" transform="translate(360.000000, 0.000000)">
                <g id="Group-3-Copy-3" transform="translate(358.000000, 410.000000)">
                    <g id="receipt" transform="translate(59.000000, 0.000000)">
                        <path d="M30,4.16664062 C26.318125,4.16664062 23.3333594,7.15140625 23.3333594,10.8332812 C23.3333594,14.5151562 26.318125,17.5 30,17.5 C33.6801563,17.4958594 36.6625,14.5135156 36.6666406,10.8333594 C36.6666406,7.15140625 33.681875,4.16664062 30,4.16664062 Z M30,15.8333594 C27.2385937,15.8333594 25,13.5947656 25,10.8333594 C25,8.07195313 27.2385937,5.83335937 30,5.83335937 C32.7603125,5.83609375 34.9972656,8.07304687 35,10.8333594 C35,13.5947656 32.7614063,15.8333594 30,15.8333594 Z" id="Shape" fill-rule="nonzero"></path>
                        <path d="M31.9108594,8.5775 L29.1667187,11.3216406 L28.0892187,10.2441406 L26.9108594,11.4225 L28.5775,13.0891406 C28.73375,13.2454688 28.9457031,13.3332812 29.1666406,13.3332812 C29.3876562,13.3332031 29.5995312,13.2453906 29.7557812,13.0891406 L33.0891406,9.75578125 L31.9108594,8.5775 Z" id="Path"></path>
                        <rect id="Rectangle" x="16.6666406" y="21.6666406" width="11.6666406" height="1.66664063"></rect>
                        <path d="M18.3333594,10 L9.16664063,10 C5.94648438,10.0036719 3.33695312,12.6132031 3.33328125,15.8333594 L5,15.8333594 C5.00273438,13.5332812 6.86664063,11.6694531 9.16664063,11.6667187 L18.3332813,11.6667187 C19.25375,11.6667187 19.9999219,12.4128906 19.9999219,13.3333594 C19.9999219,14.2538281 19.25375,15 18.3332813,15 L9.16664063,15 L9.16664063,16.6666406 L18.3332813,16.6666406 C20.1742188,16.6666406 21.6666406,15.1742969 21.6666406,13.3332812 C21.6666406,11.4922656 20.1742969,10 18.3333594,10 Z" id="Path"></path>
                        <path d="M0.833359375,13.3333594 C0.373125,13.3333594 0,13.7064063 0,14.1666406 L0,15 L4.16664062,15 L4.16664062,13.3333594 L0.833359375,13.3333594 Z" id="Path"></path>
                        <path d="M38.3333594,24.1666406 L38.3333594,35.8332812 C38.3333594,37.2139844 37.2140625,38.3332812 35.8333594,38.3332812 L15.8333594,38.3332812 C14.4526562,38.3332812 13.3333594,37.2139844 13.3333594,35.8332812 L13.3333594,15.8332813 L11.6667187,15.8332813 L11.6667187,35.8332812 C11.6694531,38.1333594 13.5333594,39.9971875 15.8333594,39.9999219 L35.8333594,39.9999219 C38.1334375,39.9971875 39.9972656,38.1332812 40,35.8332812 L40,24.1666406 L38.3333594,24.1666406 Z" id="Path"></path>
                        <path d="M35.8333594,0 L19.1666406,0 C18.945625,7.8125e-05 18.73375,0.087890625 18.5775,0.244140625 L11.9108594,6.91078125 L13.0892187,8.08914062 L19.5117188,1.66664063 L35.8333594,1.66664063 C37.2140625,1.66664063 38.3333594,2.7859375 38.3333594,4.16664062 L38.3333594,15.8332813 L40,15.8332813 L40,4.16664062 C39.9972656,1.86664063 38.1333594,0.002734375 35.8333594,0 Z" id="Path"></path>
                        <path d="M19.7560156,0.244375 C19.430625,-0.08109375 18.9029687,-0.081171875 18.5775,0.24421875 L11.9108594,6.91085937 C11.7545312,7.06710937 11.6667187,7.2790625 11.6667187,7.5 L11.6667187,10.8333594 L13.3333594,10.8333594 L13.3333594,7.845 L18.3333594,2.845 L18.3333594,5.83335937 C18.3333594,6.29359375 17.9602344,6.66671875 17.5,6.66671875 L15.8333594,6.66671875 L15.8333594,8.33335937 L17.5,8.33335937 C18.8807031,8.33335937 20,7.2140625 20,5.83335937 L20,0.833359375 C19.9999219,0.612421875 19.9121875,0.400546875 19.7560156,0.244375 Z" id="Path"></path>
                        <path d="M5,22.5 L3.33335938,22.5 C3.33703125,25.7201563 5.9465625,28.3296875 9.16671875,28.3333594 L9.16671875,26.6667188 C6.86664063,26.6639062 5.00273437,24.8000781 5,22.5 Z" id="Path"></path>
                        <rect id="Rectangle" x="9.16664062" y="26.6666406" width="3.33335938" height="1.66664063"></rect>
                        <path d="M0,23.3333594 L0,24.1667187 C0,24.626875 0.373125,25 0.833359375,25 L4.16671875,25 L4.16671875,23.3333594 L0,23.3333594 Z" id="Path"></path>
                        <path d="M39.2766406,18.2233594 C38.2996875,17.2911719 36.7627344,17.2911719 35.7857812,18.2233594 L24.2232812,29.7858594 C23.8979688,30.11125 23.8979688,30.63875 24.2232812,30.9642188 L26.5357812,33.2767188 C26.6920312,33.4330469 26.9039844,33.5208594 27.1249219,33.5208594 C27.3459375,33.5207813 27.5578125,33.4329688 27.7140625,33.2767188 L39.2765625,21.7142188 C39.2769531,21.7138281 39.2774219,21.7133594 39.2778125,21.7129687 C40.2411719,20.7489062 40.240625,19.1866406 39.2766406,18.2233594 Z M38.0983594,20.5358594 L27.125,31.5091406 L25.9908594,30.375 L36.9642188,19.4016406 C37.2814844,19.0984375 37.7810937,19.0984375 38.0983594,19.4016406 C38.0985156,19.4017969 38.0986719,19.4019531 38.0988281,19.4021094 C38.4117187,19.7153125 38.4115625,20.2228906 38.0983594,20.5358594 Z" id="Shape" fill-rule="nonzero"></path>
                        <path d="M26.75,31.9425 L24.3633594,33.135 L25.5583594,30.7458594 L24.0675,30 L21.7541406,34.6275 C21.69625,34.7432812 21.6661719,34.8709375 21.66625,35.0003906 C21.6664844,35.460625 22.0397656,35.8335156 22.5,35.8333594 C22.6289062,35.8344531 22.7563281,35.8059375 22.8725,35.75 L27.5,33.4333594 L26.75,31.9425 Z" id="Path"></path>
                        <polygon id="Rectangle" transform="translate(34.641255, 22.861523) rotate(-44.991897) translate(-34.641255, -22.861523) " points="33.8079426 21.2265388 35.4745673 21.2265388 35.4745673 24.4965075 33.8079426 24.4965075"></polygon>
                        <rect id="Rectangle" x="16.6666406" y="34.1666406" width="5.83335938" height="1.66664063"></rect>
                        <rect id="Rectangle" x="16.6666406" y="30" width="5" height="1.66664062"></rect>
                        <rect id="Rectangle" x="16.6666406" y="25.8333594" width="7.5" height="1.66664063"></rect>
                        <rect id="Rectangle" x="27.5" y="34.1666406" width="7.5" height="1.66664063"></rect>
                        <rect id="Rectangle" x="31.6666406" y="30" width="3.33335937" height="1.66664062"></rect>
                    </g>
                </g>
            </g>
        </g>
    </g>
</svg>