<?xml version="1.0" encoding="UTF-8"?>
<svg width="40px" height="40px" viewBox="0 0 40 40" version="1.1" xmlns="http://www.w3.org/2000/svg" xmlns:xlink="http://www.w3.org/1999/xlink">
    <!-- Generator: Sketch 52.5 (67469) - http://www.bohemiancoding.com/sketch -->
    <title>telephone</title>
    <desc>Created with Sketch.</desc>
    <g id="Page-1" stroke="none" stroke-width="1" fill="none" fill-rule="evenodd">
        <g id="shopping-tool2" transform="translate(-1067.000000, -410.000000)" fill="#FBA347" fill-rule="nonzero">
            <g id="Group-8" transform="translate(360.000000, 0.000000)">
                <g id="Group-3-Copy-4" transform="translate(669.000000, 410.000000)">
                    <g id="telephone" transform="translate(38.000000, 0.000000)">
                        <path d="M34.0698152,5.85215606 C30.2997947,2.08213552 25.2895277,0.00410677618 19.9589322,0.00410677618 C14.6283368,0.00410677618 9.61806982,2.08213552 5.84804928,5.85215606 C2.07802875,9.62217659 0,14.6324435 0,19.963039 C0,25.2936345 2.07802875,30.3039014 5.84804928,34.073922 C9.61806982,37.8439425 14.6283368,39.9219713 19.9589322,39.9219713 C23.0554415,39.9219713 25.8809035,39.3470226 28.1232033,38.2710472 C30.2505133,37.2443532 31.7946612,35.7741273 32.476386,34.1396304 C33.2895277,32.1765914 32.8295688,30.1314168 31.2197125,28.5215606 L31.1622177,28.4640657 C31.1868583,28.4312115 31.2197125,28.4065708 31.2443532,28.3819302 C32.3942505,27.174538 32.3942505,25.5893224 31.2279261,24.4229979 L28.386037,21.5811088 C27.8275154,21.0061602 27.1540041,20.6940452 26.4394251,20.6940452 C25.724846,20.6940452 25.0431211,20.9979466 24.4681725,21.5728953 L22.9897331,23.0513347 C22.9158111,23.0102669 22.8501027,22.9774127 22.7761807,22.9445585 C22.5954825,22.8542094 22.4312115,22.7720739 22.2915811,22.6817248 C20.788501,21.7289528 19.4250513,20.4804928 18.1190965,18.8788501 C17.5441478,18.1560575 17.1498973,17.5400411 16.8542094,16.9322382 C17.2238193,16.587269 17.5687885,16.2340862 17.9055441,15.889117 C18.0451745,15.7412731 18.1930185,15.6016427 18.3408624,15.4537988 C19.5482546,14.2464066 19.5482546,12.6858316 18.3408624,11.4784394 L16.936345,10.073922 C16.7720739,9.90965092 16.6160164,9.75359343 16.4599589,9.58932238 C16.1478439,9.26899384 15.8275154,8.94045175 15.4825462,8.6201232 C14.9240246,8.0698152 14.2587269,7.78234086 13.5523614,7.78234086 C12.8459959,7.78234086 12.1724846,8.0698152 11.5975359,8.6201232 C11.5893224,8.62833676 11.5893224,8.62833676 11.5811088,8.63655031 L9.81519507,10.4024641 C9.10882957,11.1088296 8.69815195,11.9794661 8.61601643,12.9815195 C8.49281314,14.5420945 8.94455852,15.9876797 9.29774127,16.9322382 C10.1437372,19.2156057 11.4086242,21.3347023 13.2895277,23.6016427 C15.5728953,26.3285421 18.3244353,28.4887064 21.4702259,30.0082136 C22.6776181,30.5831622 24.2956879,31.2566735 26.1190965,31.3798768 C26.2340862,31.3880903 26.349076,31.3880903 26.4640657,31.3880903 C27.7371663,31.3880903 28.8131417,30.9281314 29.650924,30.0164271 C29.6591376,30.0082136 29.6755647,29.9917864 29.6837782,29.9835729 C29.7084189,29.9507187 29.7412731,29.9178645 29.7741273,29.8850103 L29.8234086,29.9342916 C30.8747433,30.9856263 31.1622177,32.1848049 30.6529774,33.4086242 C29.7084189,35.650924 26.036961,37.9507187 19.9589322,37.9507187 C10.036961,37.9507187 1.97125257,29.8850103 1.97125257,19.963039 C1.97125257,10.0410678 10.036961,1.97535934 19.9589322,1.97535934 C29.8809035,1.97535934 37.9466119,10.0410678 37.9466119,19.963039 C37.9466119,21.5975359 37.724846,23.2073922 37.2977413,24.7597536 C37.1498973,25.2854209 37.4620123,25.8275154 37.9876797,25.9753593 C38.513347,26.1232033 39.0554415,25.8110883 39.2032854,25.2854209 C39.6796715,23.5605749 39.926078,21.7700205 39.926078,19.963039 C39.9178645,14.6324435 37.8398357,9.62217659 34.0698152,5.85215606 Z M28.1889117,28.6776181 C27.7207392,29.1786448 27.1950719,29.4004107 26.4640657,29.4004107 C26.3901437,29.4004107 26.3162218,29.4004107 26.2422998,29.3921971 C24.7638604,29.2936345 23.3675565,28.7104723 22.3244353,28.2094456 C19.4414784,26.8131417 16.9117043,24.8336756 14.8090349,22.3203285 C13.0759754,20.2340862 11.9178645,18.3039014 11.1457906,16.2340862 C10.6858316,14.9856263 10.513347,14.0328542 10.5790554,13.1293634 C10.6283368,12.5954825 10.825462,12.1601643 11.211499,11.7823409 L12.9774127,10.0246407 C13.1170431,9.89322382 13.3305955,9.73716632 13.5605749,9.73716632 C13.7905544,9.73716632 13.9876797,9.88501027 14.110883,10.0164271 C14.1190965,10.0246407 14.1273101,10.0328542 14.1355236,10.0410678 C14.4476386,10.3285421 14.7433265,10.6324435 15.0554415,10.9527721 C15.2197125,11.1170431 15.3839836,11.2895277 15.5482546,11.4537988 L16.9527721,12.8583162 C17.3880903,13.2936345 17.3880903,13.613963 16.9527721,14.0492813 C16.8049281,14.1971253 16.6570842,14.3449692 16.5092402,14.4928131 C16.073922,14.9281314 15.6714579,15.3470226 15.2279261,15.7412731 C15.211499,15.7494867 15.2032854,15.7659138 15.1868583,15.7823409 C14.5708419,16.3983573 14.7843943,17.0390144 14.8501027,17.2525667 C14.8583162,17.2772074 14.8665298,17.2936345 14.8747433,17.3182752 C15.2525667,18.2299795 15.7782341,19.0841889 16.5831622,20.1026694 L16.5913758,20.110883 C18.036961,21.8932238 19.5564682,23.2731006 21.2402464,24.3408624 C21.4620123,24.4804928 21.6837782,24.5954825 21.8973306,24.7022587 C22.0780287,24.7926078 22.2422998,24.8747433 22.3819302,24.9650924 C22.4065708,24.9815195 22.4394251,24.9979466 22.4722793,25.0143737 C22.6858316,25.1211499 22.899384,25.1704312 23.1129363,25.1704312 C23.4743326,25.1704312 23.8110883,25.0225873 24.0985626,24.7268994 L25.8644764,22.9609856 C26.0041068,22.8213552 26.2094456,22.6570842 26.4394251,22.6570842 C26.6529774,22.6570842 26.8501027,22.8131417 26.973306,22.9445585 C26.9815195,22.9527721 26.9815195,22.9527721 26.9897331,22.9609856 L29.8316222,25.8028747 C30.2340862,26.2053388 30.2340862,26.5749487 29.8151951,27.0102669 L29.8069815,27.0184805 C29.6180698,27.2238193 29.412731,27.4209446 29.1909651,27.6344969 C28.862423,27.9548255 28.5174538,28.2915811 28.1889117,28.6776181 Z" id="Shape"></path>
                    </g>
                </g>
            </g>
        </g>
    </g>
</svg>